STARTFONT 2.1
COMMENT $Xorg: $
COMMENT ISO10646-1 extension by Markus Kuhn <mkuhn@acm.org>, 2001-03-20
COMMENT  (c) Copyright Bigelow & Holmes 1986, 1985. Lucida is a registered
COMMENT  trademark of Bigelow & Holmes. See LEGAL NOTICE file for terms 
COMMENT  of the license. 
FONT -B&H-LucidaBright-DemiBold-R-Normal--20-140-100-100-P-118-ISO10646-1
SIZE 14 100 100
FONTBOUNDINGBOX 35 31 -12 -8
STARTPROPERTIES 22
COMMENT Begin LogicalFontDescription
FONTNAME_REGISTRY ""
FOUNDRY "B&H"
FAMILY_NAME "LucidaBright"
WEIGHT_NAME "DemiBold"
SLANT "R"
SETWIDTH_NAME "Normal"
ADD_STYLE_NAME ""
PIXEL_SIZE 20
POINT_SIZE 140
RESOLUTION_X 100
RESOLUTION_Y 100
SPACING "P"
AVERAGE_WIDTH 118
CHARSET_REGISTRY "ISO10646"
CHARSET_ENCODING "1"
COMMENT END LogicalFontDescription
FONT_ASCENT 18
FONT_DESCENT 5
DEFAULT_CHAR 0
COPYRIGHT "Copyright Bigelow & Holmes 1986, 1985."
FACE_NAME "Lucida Bright Demibold"
X_HEIGHT 11
CAP_HEIGHT 15
ENDPROPERTIES
CHARS 756
STARTCHAR char0
ENCODING 0
SWIDTH 798 0
DWIDTH 16 0
BBX 15 15 0 0
BITMAP
AAAA
0000
8002
0000
8002
0000
8002
0000
8002
0000
8002
0000
8002
0000
AAAA
ENDCHAR
STARTCHAR space
ENCODING 32
SWIDTH 333 0
DWIDTH 7 0
BBX 1 1 0 0
BITMAP
00
ENDCHAR
STARTCHAR exclam
ENCODING 33
SWIDTH 265 0
DWIDTH 5 0
BBX 3 15 1 0
BITMAP
E0
E0
E0
E0
E0
E0
E0
40
40
40
40
00
E0
E0
E0
ENDCHAR
STARTCHAR quotedbl
ENCODING 34
SWIDTH 461 0
DWIDTH 9 0
BBX 7 6 1 9
BITMAP
EE
EE
EE
44
44
44
ENDCHAR
STARTCHAR numbersign
ENCODING 35
SWIDTH 663 0
DWIDTH 13 0
BBX 12 15 1 0
BITMAP
0440
0440
0440
0440
0880
7FF0
0880
0880
1100
1100
FFE0
1100
2200
2200
2200
ENDCHAR
STARTCHAR dollar
ENCODING 36
SWIDTH 623 0
DWIDTH 12 0
BBX 9 18 2 -2
BITMAP
0800
3F80
7980
E880
E800
E800
7800
7800
1E00
0F00
0F80
0B80
8B80
8B80
CB00
FE00
0800
0800
ENDCHAR
STARTCHAR percent
ENCODING 37
SWIDTH 759 0
DWIDTH 15 0
BBX 15 15 0 0
BITMAP
3806
4408
C610
C630
C660
C640
4480
3900
0238
0444
0CC6
18C6
10C6
2044
C038
ENDCHAR
STARTCHAR ampersand
ENCODING 38
SWIDTH 765 0
DWIDTH 15 0
BBX 14 15 1 0
BITMAP
0F00
19C0
39C0
39C0
1980
1F00
1C00
7E7C
6618
E718
E390
E3F0
F1E0
70F0
1F7C
ENDCHAR
STARTCHAR quotesingle
ENCODING 39
SWIDTH 253 0
DWIDTH 5 0
BBX 3 6 1 9
BITMAP
E0
E0
E0
40
40
40
ENDCHAR
STARTCHAR parenleft
ENCODING 40
SWIDTH 327 0
DWIDTH 7 0
BBX 5 19 1 -4
BITMAP
08
18
30
30
60
60
E0
E0
E0
E0
E0
E0
E0
60
60
30
30
18
08
ENDCHAR
STARTCHAR parenright
ENCODING 41
SWIDTH 327 0
DWIDTH 7 0
BBX 5 19 1 -4
BITMAP
80
C0
60
60
30
30
38
38
38
38
38
38
38
30
30
60
60
C0
80
ENDCHAR
STARTCHAR asterisk
ENCODING 42
SWIDTH 434 0
DWIDTH 9 0
BBX 8 7 0 8
BITMAP
18
59
FF
66
3C
66
24
ENDCHAR
STARTCHAR plus
ENCODING 43
SWIDTH 623 0
DWIDTH 12 0
BBX 11 13 1 0
BITMAP
0400
0400
0400
0400
0400
0400
FFE0
0400
0400
0400
0400
0400
0400
ENDCHAR
STARTCHAR comma
ENCODING 44
SWIDTH 265 0
DWIDTH 5 0
BBX 3 7 1 -3
BITMAP
E0
E0
E0
E0
60
60
C0
ENDCHAR
STARTCHAR hyphen
ENCODING 45
SWIDTH 289 0
DWIDTH 6 0
BBX 5 2 0 6
BITMAP
F8
F8
ENDCHAR
STARTCHAR period
ENCODING 46
SWIDTH 265 0
DWIDTH 5 0
BBX 3 3 1 0
BITMAP
E0
E0
E0
ENDCHAR
STARTCHAR slash
ENCODING 47
SWIDTH 527 0
DWIDTH 11 0
BBX 11 18 0 -3
BITMAP
0060
0040
0080
0080
0100
0100
0200
0200
0400
0400
0800
0800
1000
1000
2000
2000
4000
C000
ENDCHAR
STARTCHAR zero
ENCODING 48
SWIDTH 623 0
DWIDTH 12 0
BBX 11 15 1 0
BITMAP
1F00
3180
71C0
60C0
E0E0
E0E0
E0E0
E0E0
E0E0
E0E0
E0E0
60C0
71C0
3180
1F00
ENDCHAR
STARTCHAR one
ENCODING 49
SWIDTH 623 0
DWIDTH 12 0
BBX 9 15 2 0
BITMAP
FC00
1C00
1C00
1C00
1C00
1C00
1C00
1C00
1C00
1C00
1C00
1C00
1C00
3E00
FF80
ENDCHAR
STARTCHAR two
ENCODING 50
SWIDTH 623 0
DWIDTH 12 0
BBX 10 15 1 0
BITMAP
7F00
C380
C1C0
81C0
01C0
01C0
0380
0300
0400
1800
3000
6000
7FC0
FFC0
FFC0
ENDCHAR
STARTCHAR three
ENCODING 51
SWIDTH 623 0
DWIDTH 12 0
BBX 9 15 2 0
BITMAP
FE00
C700
8380
0380
0380
0300
0600
7E00
0F00
0380
0380
0380
8380
8700
FC00
ENDCHAR
STARTCHAR four
ENCODING 52
SWIDTH 623 0
DWIDTH 12 0
BBX 12 15 0 0
BITMAP
01C0
03C0
03C0
05C0
09C0
11C0
31C0
61C0
41C0
FFF0
FFF0
01C0
01C0
01C0
07F0
ENDCHAR
STARTCHAR five
ENCODING 53
SWIDTH 623 0
DWIDTH 12 0
BBX 9 15 2 0
BITMAP
FF80
FF80
8000
8000
8000
8000
FC00
0F00
0780
0380
0380
0380
8380
8700
FC00
ENDCHAR
STARTCHAR six
ENCODING 54
SWIDTH 623 0
DWIDTH 12 0
BBX 11 15 1 0
BITMAP
0FC0
3840
7040
7000
E000
E000
EF80
F1C0
E0E0
E0E0
E0E0
60E0
70C0
31C0
1F00
ENDCHAR
STARTCHAR seven
ENCODING 55
SWIDTH 623 0
DWIDTH 12 0
BBX 10 15 2 0
BITMAP
FFC0
FFC0
FFC0
0080
0100
0300
0600
0400
0C00
1800
1800
3800
3000
7000
7000
ENDCHAR
STARTCHAR eight
ENCODING 56
SWIDTH 623 0
DWIDTH 12 0
BBX 11 15 1 0
BITMAP
1F00
3380
71C0
71C0
71C0
7980
3E00
1F80
63C0
E1E0
E0E0
E0E0
E0E0
71C0
1F00
ENDCHAR
STARTCHAR nine
ENCODING 57
SWIDTH 623 0
DWIDTH 12 0
BBX 11 15 1 0
BITMAP
1F00
7180
61C0
E0C0
E0E0
E0E0
E0E0
71E0
3EE0
00E0
00E0
01C0
41C0
4380
7E00
ENDCHAR
STARTCHAR colon
ENCODING 58
SWIDTH 265 0
DWIDTH 5 0
BBX 3 11 1 0
BITMAP
E0
E0
E0
00
00
00
00
00
E0
E0
E0
ENDCHAR
STARTCHAR semicolon
ENCODING 59
SWIDTH 265 0
DWIDTH 5 0
BBX 3 14 1 -3
BITMAP
E0
E0
E0
00
00
00
00
00
E0
E0
E0
60
60
C0
ENDCHAR
STARTCHAR less
ENCODING 60
SWIDTH 623 0
DWIDTH 12 0
BBX 11 13 -1 0
BITMAP
0020
0060
0180
0600
1800
3000
C000
3000
1800
0600
0180
0060
0020
ENDCHAR
STARTCHAR equal
ENCODING 61
SWIDTH 623 0
DWIDTH 12 0
BBX 12 6 0 3
BITMAP
FFF0
0000
0000
0000
0000
FFF0
ENDCHAR
STARTCHAR greater
ENCODING 62
SWIDTH 623 0
DWIDTH 12 0
BBX 11 13 0 0
BITMAP
8000
C000
3000
0C00
0300
0180
0060
0180
0300
0C00
3000
C000
8000
ENDCHAR
STARTCHAR question
ENCODING 63
SWIDTH 505 0
DWIDTH 10 0
BBX 9 15 1 0
BITMAP
FE00
C700
8380
0380
0380
0300
0400
0C00
1800
3800
3800
0000
3800
3800
3800
ENDCHAR
STARTCHAR at
ENCODING 64
SWIDTH 861 0
DWIDTH 17 0
BBX 16 15 1 0
BITMAP
03F0
0E0C
1806
21C2
6331
4631
8631
8C31
8C61
8CE2
8CE4
4778
6000
3020
0FC0
ENDCHAR
STARTCHAR A
ENCODING 65
SWIDTH 795 0
DWIDTH 16 0
BBX 16 15 0 0
BITMAP
0180
0180
03C0
03C0
07E0
04E0
04F0
0870
0870
1FF8
1038
201C
201C
601E
F03F
ENDCHAR
STARTCHAR B
ENCODING 66
SWIDTH 639 0
DWIDTH 13 0
BBX 12 15 0 0
BITMAP
FF80
39C0
38E0
38E0
38E0
38C0
3980
3F80
38E0
3870
3870
3870
3870
38E0
FFC0
ENDCHAR
STARTCHAR C
ENCODING 67
SWIDTH 711 0
DWIDTH 14 0
BBX 13 15 1 0
BITMAP
07F0
1C18
3808
7008
E000
E000
E000
E000
E000
E000
E000
7000
3800
1C08
07F0
ENDCHAR
STARTCHAR D
ENCODING 68
SWIDTH 794 0
DWIDTH 16 0
BBX 15 15 0 0
BITMAP
FFE0
3878
381C
381C
380E
380E
380E
380E
380E
380E
380C
381C
3818
3830
FFE0
ENDCHAR
STARTCHAR E
ENCODING 69
SWIDTH 601 0
DWIDTH 12 0
BBX 12 15 0 0
BITMAP
FFE0
3820
3820
3800
3800
3800
3840
3FC0
3840
3800
3800
3800
3810
3830
FFF0
ENDCHAR
STARTCHAR F
ENCODING 70
SWIDTH 584 0
DWIDTH 12 0
BBX 11 15 0 0
BITMAP
FFE0
3820
3820
3800
3800
3800
3840
3FC0
3840
3800
3800
3800
3800
3800
FE00
ENDCHAR
STARTCHAR G
ENCODING 71
SWIDTH 753 0
DWIDTH 15 0
BBX 14 15 1 0
BITMAP
0FE0
1C30
3010
7010
E000
E000
E000
E000
E1FC
E070
E070
7070
7070
3870
0FE0
ENDCHAR
STARTCHAR H
ENCODING 72
SWIDTH 798 0
DWIDTH 16 0
BBX 16 15 0 0
BITMAP
FE7F
381C
381C
381C
381C
381C
381C
3FFC
381C
381C
381C
381C
381C
381C
FE7F
ENDCHAR
STARTCHAR I
ENCODING 73
SWIDTH 349 0
DWIDTH 7 0
BBX 7 15 0 0
BITMAP
FE
38
38
38
38
38
38
38
38
38
38
38
38
38
FE
ENDCHAR
STARTCHAR J
ENCODING 74
SWIDTH 452 0
DWIDTH 9 0
BBX 9 18 0 -3
BITMAP
3F80
0E00
0E00
0E00
0E00
0E00
0E00
0E00
0E00
0E00
0E00
0E00
0E00
0E00
0E00
8E00
9C00
F800
ENDCHAR
STARTCHAR K
ENCODING 75
SWIDTH 747 0
DWIDTH 15 0
BBX 15 15 0 0
BITMAP
FC3C
3830
3820
3840
3880
3900
3B00
3F00
3F80
3BC0
39E0
38F0
3878
387C
FCFE
ENDCHAR
STARTCHAR L
ENCODING 76
SWIDTH 584 0
DWIDTH 12 0
BBX 12 15 0 0
BITMAP
FE00
3800
3800
3800
3800
3800
3800
3800
3800
3800
3800
3800
3830
3810
FFF0
ENDCHAR
STARTCHAR M
ENCODING 77
SWIDTH 904 0
DWIDTH 18 0
BBX 18 15 0 0
BITMAP
F807C0
3C0700
3C0F00
3E0F00
2E1F00
2E1700
273700
272700
27A700
23C700
23C700
218700
218700
200700
F00FC0
ENDCHAR
STARTCHAR N
ENCODING 78
SWIDTH 788 0
DWIDTH 16 0
BBX 15 15 0 0
BITMAP
F03E
3808
3C08
3C08
3E08
2F08
2788
2388
23C8
21E8
20E8
20F8
2078
2038
F818
ENDCHAR
STARTCHAR O
ENCODING 79
SWIDTH 810 0
DWIDTH 16 0
BBX 15 15 1 0
BITMAP
0FE0
1C70
3018
701C
E00E
E00E
E00E
E00E
E00E
E00E
E00E
701C
3018
1C70
0FE0
ENDCHAR
STARTCHAR P
ENCODING 80
SWIDTH 614 0
DWIDTH 12 0
BBX 12 15 0 0
BITMAP
FFC0
38E0
3870
3870
3870
3870
3860
38E0
3F80
3800
3800
3800
3800
3800
FE00
ENDCHAR
STARTCHAR Q
ENCODING 81
SWIDTH 810 0
DWIDTH 16 0
BBX 17 19 1 -4
BITMAP
0FE000
1C7000
301800
701C00
E00E00
E00E00
E00E00
E00E00
E00E00
E00E00
E00E00
701C00
301C00
1C7800
0FE000
007800
003E00
000F80
000600
ENDCHAR
STARTCHAR R
ENCODING 82
SWIDTH 720 0
DWIDTH 14 0
BBX 15 15 0 0
BITMAP
FFC0
38E0
3870
3870
3870
3870
39E0
3FC0
3BC0
39E0
38E0
38F0
3878
387C
FC3E
ENDCHAR
STARTCHAR S
ENCODING 83
SWIDTH 556 0
DWIDTH 11 0
BBX 10 15 1 0
BITMAP
3F00
7180
E080
E080
E000
F800
7E00
3F00
0F80
03C0
01C0
81C0
81C0
C380
7E00
ENDCHAR
STARTCHAR T
ENCODING 84
SWIDTH 714 0
DWIDTH 14 0
BBX 13 15 1 0
BITMAP
FFF8
C708
8708
0700
0700
0700
0700
0700
0700
0700
0700
0700
0700
0700
1FC0
ENDCHAR
STARTCHAR U
ENCODING 85
SWIDTH 747 0
DWIDTH 15 0
BBX 15 15 0 0
BITMAP
FE3E
3808
3808
3808
3808
3808
3808
3808
3808
3808
3808
3808
1C10
1C10
07E0
ENDCHAR
STARTCHAR V
ENCODING 86
SWIDTH 753 0
DWIDTH 15 0
BBX 15 15 0 0
BITMAP
FC1E
780C
3808
3C08
1C10
1C10
0E30
0E20
0F20
0740
0740
0380
0380
0380
0100
ENDCHAR
STARTCHAR W
ENCODING 87
SWIDTH 955 0
DWIDTH 19 0
BBX 19 15 0 0
BITMAP
FC61E0
7060C0
787080
387080
38F080
3CF100
1CB900
1D3900
1D3A00
1F1E00
0E1E00
0E1C00
0E0C00
040C00
040C00
ENDCHAR
STARTCHAR X
ENCODING 88
SWIDTH 702 0
DWIDTH 14 0
BBX 14 15 0 0
BITMAP
FE3C
3818
3C10
1C20
0E40
0FC0
0780
0780
07C0
09C0
19E0
10E0
20F0
6078
F0FC
ENDCHAR
STARTCHAR Y
ENCODING 89
SWIDTH 717 0
DWIDTH 14 0
BBX 15 15 0 0
BITMAP
FE1E
780C
3C08
1C10
1E30
0F20
0740
07C0
0380
0380
0380
0380
0380
0380
0FE0
ENDCHAR
STARTCHAR Z
ENCODING 90
SWIDTH 639 0
DWIDTH 13 0
BBX 11 15 1 0
BITMAP
7FE0
41E0
41C0
03C0
0380
0700
0F00
0E00
1E00
1C00
3800
7800
7020
F060
FFE0
ENDCHAR
STARTCHAR bracketleft
ENCODING 91
SWIDTH 327 0
DWIDTH 7 0
BBX 5 18 1 -3
BITMAP
F8
E0
E0
E0
E0
E0
E0
E0
E0
E0
E0
E0
E0
E0
E0
E0
E0
F8
ENDCHAR
STARTCHAR backslash
ENCODING 92
SWIDTH 527 0
DWIDTH 11 0
BBX 11 18 0 -3
BITMAP
C000
4000
2000
2000
1000
1000
0800
0800
0400
0400
0200
0200
0100
0100
0080
0080
0040
0060
ENDCHAR
STARTCHAR bracketright
ENCODING 93
SWIDTH 327 0
DWIDTH 7 0
BBX 5 18 0 -3
BITMAP
F8
38
38
38
38
38
38
38
38
38
38
38
38
38
38
38
38
F8
ENDCHAR
STARTCHAR asciicircum
ENCODING 94
SWIDTH 623 0
DWIDTH 12 0
BBX 12 12 0 2
BITMAP
0200
0600
0600
0900
0900
1080
1080
2040
2040
6060
4020
C030
ENDCHAR
STARTCHAR underscore
ENCODING 95
SWIDTH 500 0
DWIDTH 10 0
BBX 8 1 1 -2
BITMAP
FF
ENDCHAR
STARTCHAR grave
ENCODING 96
SWIDTH 617 0
DWIDTH 12 0
BBX 5 3 3 12
BITMAP
E0
30
18
ENDCHAR
STARTCHAR a
ENCODING 97
SWIDTH 556 0
DWIDTH 11 0
BBX 10 11 1 0
BITMAP
3E00
6300
4380
0380
0380
3F80
F380
E380
E380
E380
7DC0
ENDCHAR
STARTCHAR b
ENCODING 98
SWIDTH 640 0
DWIDTH 13 0
BBX 13 15 0 0
BITMAP
F800
3800
3800
3800
39E0
3BF0
3C70
3838
3838
3838
3838
3838
3870
3C70
3BC0
ENDCHAR
STARTCHAR c
ENCODING 99
SWIDTH 541 0
DWIDTH 11 0
BBX 9 11 1 0
BITMAP
1F80
7080
6080
E000
E000
E000
E000
E000
7000
3880
1F80
ENDCHAR
STARTCHAR d
ENCODING 100
SWIDTH 652 0
DWIDTH 13 0
BBX 13 15 0 0
BITMAP
03E0
00E0
00E0
00E0
1EE0
71E0
60E0
E0E0
E0E0
E0E0
E0E0
E0E0
71E0
7EF0
3CF8
ENDCHAR
STARTCHAR e
ENCODING 101
SWIDTH 568 0
DWIDTH 11 0
BBX 10 11 0 0
BITMAP
1F00
7380
6180
E1C0
E1C0
FFC0
E000
E000
7000
3840
1FC0
ENDCHAR
STARTCHAR f
ENCODING 102
SWIDTH 416 0
DWIDTH 8 0
BBX 9 15 0 0
BITMAP
1F80
3880
3880
3800
FF00
3800
3800
3800
3800
3800
3800
3800
3800
3800
FE00
ENDCHAR
STARTCHAR g
ENCODING 103
SWIDTH 599 0
DWIDTH 12 0
BBX 12 15 0 -4
BITMAP
1FF0
31A0
71C0
71C0
71C0
3180
1F00
1000
3000
7FC0
1FE0
E0E0
E0E0
F1C0
3F00
ENDCHAR
STARTCHAR h
ENCODING 104
SWIDTH 654 0
DWIDTH 13 0
BBX 14 15 0 0
BITMAP
F800
3800
3800
3800
39E0
3BF0
3C70
3870
3870
3870
3870
3870
3870
3870
FFFC
ENDCHAR
STARTCHAR i
ENCODING 105
SWIDTH 325 0
DWIDTH 7 0
BBX 7 15 0 0
BITMAP
38
38
38
00
F8
38
38
38
38
38
38
38
38
38
FE
ENDCHAR
STARTCHAR j
ENCODING 106
SWIDTH 355 0
DWIDTH 7 0
BBX 7 19 0 -4
BITMAP
0E
0E
0E
00
3E
0E
0E
0E
0E
0E
0E
0E
0E
0E
0E
0E
8E
8E
FC
ENDCHAR
STARTCHAR k
ENCODING 107
SWIDTH 654 0
DWIDTH 12 0
BBX 13 15 0 0
BITMAP
F800
3800
3800
3800
38F0
3860
3880
3900
3B00
3F80
3B80
3BC0
39E0
38F0
FCF8
ENDCHAR
STARTCHAR l
ENCODING 108
SWIDTH 325 0
DWIDTH 7 0
BBX 7 15 0 0
BITMAP
F8
38
38
38
38
38
38
38
38
38
38
38
38
38
FE
ENDCHAR
STARTCHAR m
ENCODING 109
SWIDTH 967 0
DWIDTH 19 0
BBX 19 11 0 0
BITMAP
FBCF00
3FFF80
3CF380
38E380
38E380
38E380
38E380
38E380
38E380
38E380
FDF7E0
ENDCHAR
STARTCHAR n
ENCODING 110
SWIDTH 654 0
DWIDTH 13 0
BBX 14 11 0 0
BITMAP
F9E0
7BF0
3C70
3870
3870
3870
3870
3870
3870
3870
FFFC
ENDCHAR
STARTCHAR o
ENCODING 111
SWIDTH 617 0
DWIDTH 12 0
BBX 11 11 1 0
BITMAP
1F00
71C0
71C0
E0E0
E0E0
E0E0
E0E0
E0E0
71C0
31C0
1F00
ENDCHAR
STARTCHAR p
ENCODING 112
SWIDTH 652 0
DWIDTH 13 0
BBX 13 15 0 -4
BITMAP
F9E0
7BF0
3C70
3838
3838
3838
3838
3838
3870
3C70
3BC0
3800
3800
3800
FE00
ENDCHAR
STARTCHAR q
ENCODING 113
SWIDTH 640 0
DWIDTH 13 0
BBX 13 15 0 -4
BITMAP
1EE0
71E0
70E0
E0E0
E0E0
E0E0
E0E0
E0E0
71E0
7EE0
3CE0
00E0
00E0
00E0
03F8
ENDCHAR
STARTCHAR r
ENCODING 114
SWIDTH 462 0
DWIDTH 9 0
BBX 9 11 0 0
BITMAP
F980
3F80
3C80
3800
3800
3800
3800
3800
3800
3800
FE00
ENDCHAR
STARTCHAR s
ENCODING 115
SWIDTH 525 0
DWIDTH 10 0
BBX 9 11 1 0
BITMAP
3F00
7100
E100
F000
FC00
7F00
1F80
8780
8380
C700
7E00
ENDCHAR
STARTCHAR t
ENCODING 116
SWIDTH 389 0
DWIDTH 8 0
BBX 7 14 0 0
BITMAP
30
70
70
FE
70
70
70
70
70
70
70
70
70
3E
ENDCHAR
STARTCHAR u
ENCODING 117
SWIDTH 654 0
DWIDTH 13 0
BBX 14 11 0 0
BITMAP
F9F0
3870
3870
3870
3870
3870
3870
3870
38F0
3F78
1E7C
ENDCHAR
STARTCHAR v
ENCODING 118
SWIDTH 657 0
DWIDTH 13 0
BBX 13 11 0 0
BITMAP
FC78
7830
3820
3C40
1C40
1E80
0E80
0F80
0700
0700
0200
ENDCHAR
STARTCHAR w
ENCODING 119
SWIDTH 880 0
DWIDTH 18 0
BBX 18 11 0 0
BITMAP
FC63C0
706180
38F100
38F100
39F200
1D3A00
1D3A00
1E3C00
0E1C00
0C1C00
040800
ENDCHAR
STARTCHAR x
ENCODING 120
SWIDTH 608 0
DWIDTH 12 0
BBX 12 11 0 0
BITMAP
FCF0
7840
3C80
1D80
0F00
0F00
0F80
1B80
33C0
61E0
F3F0
ENDCHAR
STARTCHAR y
ENCODING 121
SWIDTH 654 0
DWIDTH 13 0
BBX 13 15 0 -4
BITMAP
FC78
7830
3820
3C40
1C40
1C80
0E80
0F00
0700
0600
0600
0400
0C00
1800
3800
ENDCHAR
STARTCHAR z
ENCODING 122
SWIDTH 584 0
DWIDTH 12 0
BBX 10 11 1 0
BITMAP
FFC0
C3C0
8780
0700
0E00
1E00
3C00
3800
7840
F0C0
FFC0
ENDCHAR
STARTCHAR braceleft
ENCODING 123
SWIDTH 366 0
DWIDTH 7 0
BBX 5 18 1 -3
BITMAP
38
70
70
70
70
70
70
70
E0
60
70
70
70
70
70
70
70
38
ENDCHAR
STARTCHAR bar
ENCODING 124
SWIDTH 259 0
DWIDTH 5 0
BBX 1 18 2 -3
BITMAP
80
80
80
80
80
80
80
80
80
80
80
80
80
80
80
80
80
80
ENDCHAR
STARTCHAR braceright
ENCODING 125
SWIDTH 366 0
DWIDTH 7 0
BBX 5 18 1 -3
BITMAP
E0
70
70
70
70
70
70
70
38
30
70
70
70
70
70
70
70
E0
ENDCHAR
STARTCHAR asciitilde
ENCODING 126
SWIDTH 623 0
DWIDTH 12 0
BBX 12 4 0 4
BITMAP
7810
4C10
8320
81E0
ENDCHAR
STARTCHAR space
ENCODING 160
SWIDTH 333 0
DWIDTH 7 0
BBX 1 1 0 0
BITMAP
00
ENDCHAR
STARTCHAR exclamdown
ENCODING 161
SWIDTH 265 0
DWIDTH 5 0
BBX 3 15 1 -4
BITMAP
E0
E0
E0
00
40
40
40
40
E0
E0
E0
E0
E0
E0
E0
ENDCHAR
STARTCHAR cent
ENCODING 162
SWIDTH 623 0
DWIDTH 12 0
BBX 9 15 1 0
BITMAP
0400
0400
1F80
7580
6480
E400
E400
E400
E400
E400
6400
3480
1F80
0400
0400
ENDCHAR
STARTCHAR sterling
ENCODING 163
SWIDTH 623 0
DWIDTH 12 0
BBX 9 15 2 0
BITMAP
0F80
1880
3880
3800
3800
3800
FE00
3800
3800
3800
3000
6000
FF80
FF80
FF80
ENDCHAR
STARTCHAR currency
ENCODING 164
SWIDTH 623 0
DWIDTH 12 0
BBX 13 13 0 1
BITMAP
8008
4010
3FE0
38E0
3060
2020
2020
2020
3060
38E0
3FE0
4010
8008
ENDCHAR
STARTCHAR yen
ENCODING 165
SWIDTH 623 0
DWIDTH 12 0
BBX 13 15 0 0
BITMAP
FC78
7810
3820
3C60
1E40
0E80
0700
3FC0
0700
0700
3FC0
0700
0700
0700
1FC0
ENDCHAR
STARTCHAR brokenbar
ENCODING 166
SWIDTH 259 0
DWIDTH 5 0
BBX 1 18 2 -3
BITMAP
80
80
80
80
80
80
80
80
00
00
80
80
80
80
80
80
80
80
ENDCHAR
STARTCHAR section
ENCODING 167
SWIDTH 623 0
DWIDTH 12 0
BBX 9 19 2 -4
BITMAP
3F00
7100
E100
E000
F000
FC00
7F00
5F80
C780
C180
F180
FD00
7E00
1F00
0780
0380
8380
C700
FE00
ENDCHAR
STARTCHAR dieresis
ENCODING 168
SWIDTH 617 0
DWIDTH 12 0
BBX 6 2 3 13
BITMAP
CC
CC
ENDCHAR
STARTCHAR copyright
ENCODING 169
SWIDTH 855 0
DWIDTH 17 0
BBX 16 15 1 0
BITMAP
07E0
1818
300C
63E6
4622
8C01
8C01
8C01
8C01
8C01
4622
63E6
300C
1818
07E0
ENDCHAR
STARTCHAR ordfeminine
ENCODING 170
SWIDTH 488 0
DWIDTH 10 0
BBX 9 8 1 7
BITMAP
FE00
8700
0700
3F00
F700
E700
E700
7B80
ENDCHAR
STARTCHAR guillemotleft
ENCODING 171
SWIDTH 566 0
DWIDTH 11 0
BBX 10 9 0 1
BITMAP
0840
1880
3180
7300
E700
7300
3180
1880
0840
ENDCHAR
STARTCHAR logicalnot
ENCODING 172
SWIDTH 623 0
DWIDTH 12 0
BBX 12 6 0 3
BITMAP
FFF0
0010
0010
0010
0010
0010
ENDCHAR
STARTCHAR hyphen
ENCODING 173
SWIDTH 289 0
DWIDTH 6 0
BBX 5 2 0 6
BITMAP
F8
F8
ENDCHAR
STARTCHAR registered
ENCODING 174
SWIDTH 623 0
DWIDTH 12 0
BBX 9 10 2 5
BITMAP
3E00
6300
5F00
9280
9280
9C80
9480
5700
6300
3E00
ENDCHAR
STARTCHAR macron
ENCODING 175
SWIDTH 617 0
DWIDTH 12 0
BBX 6 1 3 14
BITMAP
FC
ENDCHAR
STARTCHAR degree
ENCODING 176
SWIDTH 259 0
DWIDTH 5 0
BBX 3 4 1 11
BITMAP
40
A0
A0
40
ENDCHAR
STARTCHAR plusminus
ENCODING 177
SWIDTH 623 0
DWIDTH 12 0
BBX 11 13 1 0
BITMAP
0400
0400
0400
0400
0400
FFE0
0400
0400
0400
0400
0000
0000
FFE0
ENDCHAR
STARTCHAR twosuperior
ENCODING 178
SWIDTH 374 0
DWIDTH 7 0
BBX 6 9 -11 6
BITMAP
F8
8C
8C
0C
18
20
40
FC
FC
ENDCHAR
STARTCHAR threesuperior
ENCODING 179
SWIDTH 374 0
DWIDTH 7 0
BBX 6 9 -12 6
BITMAP
F8
8C
0C
08
70
1C
0C
8C
F8
ENDCHAR
STARTCHAR acute
ENCODING 180
SWIDTH 617 0
DWIDTH 12 0
BBX 5 3 4 12
BITMAP
38
60
C0
ENDCHAR
STARTCHAR mu
ENCODING 181
SWIDTH 705 0
DWIDTH 14 0
BBX 14 14 0 -3
BITMAP
F9F0
3870
3870
3870
3870
3870
3870
3870
38F0
3FF0
3E7C
3800
3800
3800
ENDCHAR
STARTCHAR paragraph
ENCODING 182
SWIDTH 623 0
DWIDTH 12 0
BBX 8 18 1 -3
BITMAP
7F
F9
F9
F9
F9
79
39
09
09
09
09
09
09
09
09
09
09
09
ENDCHAR
STARTCHAR periodcentered
ENCODING 183
SWIDTH 623 0
DWIDTH 12 0
BBX 2 3 5 5
BITMAP
C0
C0
C0
ENDCHAR
STARTCHAR cedilla
ENCODING 184
SWIDTH 617 0
DWIDTH 12 0
BBX 3 5 5 -4
BITMAP
40
C0
60
60
C0
ENDCHAR
STARTCHAR onesuperior
ENCODING 185
SWIDTH 374 0
DWIDTH 7 0
BBX 6 9 -12 6
BITMAP
F0
30
30
30
30
30
30
30
FC
ENDCHAR
STARTCHAR ordmasculine
ENCODING 186
SWIDTH 488 0
DWIDTH 10 0
BBX 9 8 0 7
BITMAP
3E00
7700
E380
E380
E380
E380
7700
3E00
ENDCHAR
STARTCHAR guillemotright
ENCODING 187
SWIDTH 566 0
DWIDTH 11 0
BBX 10 9 1 1
BITMAP
8400
4600
6300
3380
39C0
3380
6300
4600
8400
ENDCHAR
STARTCHAR onequarter
ENCODING 188
SWIDTH 803 0
DWIDTH 16 0
BBX 15 15 3 0
BITMAP
F01C
3018
3030
3070
30E0
30C0
318C
339C
FF2C
064C
0EFE
1CFE
180C
300C
701E
ENDCHAR
STARTCHAR onehalf
ENCODING 189
SWIDTH 803 0
DWIDTH 16 0
BBX 14 15 3 0
BITMAP
F01C
3018
3030
3070
30E0
30C0
31F8
338C
FF8C
060C
0E18
1C20
1840
30FC
70FC
ENDCHAR
STARTCHAR threequarters
ENCODING 190
SWIDTH 803 0
DWIDTH 16 0
BBX 15 15 3 0
BITMAP
F81C
8C18
0C30
0870
70E0
1CC0
0D8C
8F9C
FB2C
064C
0EFE
1CFE
180C
300C
701E
ENDCHAR
STARTCHAR questiondown
ENCODING 191
SWIDTH 505 0
DWIDTH 10 0
BBX 9 15 1 -4
BITMAP
0E00
0E00
0E00
0000
0E00
0E00
0C00
1800
1000
6000
E000
E000
E080
7180
3F80
ENDCHAR
STARTCHAR Agrave
ENCODING 192
SWIDTH 795 0
DWIDTH 16 0
BBX 16 19 0 0
BITMAP
0700
0180
00C0
0000
0180
0180
03C0
03C0
07E0
04E0
04F0
0870
0870
1FF8
1038
201C
201C
601E
F03F
ENDCHAR
STARTCHAR Aacute
ENCODING 193
SWIDTH 795 0
DWIDTH 16 0
BBX 16 19 0 0
BITMAP
00E0
0180
0300
0000
0180
0180
03C0
03C0
07E0
04E0
04F0
0870
0870
1FF8
1038
201C
201C
601E
F03F
ENDCHAR
STARTCHAR Acircumflex
ENCODING 194
SWIDTH 795 0
DWIDTH 16 0
BBX 16 19 0 0
BITMAP
01C0
0360
0630
0000
0180
0180
03C0
03C0
07E0
04E0
04F0
0870
0870
1FF8
1038
201C
201C
601E
F03F
ENDCHAR
STARTCHAR Atilde
ENCODING 195
SWIDTH 795 0
DWIDTH 16 0
BBX 16 19 0 0
BITMAP
0390
07F0
04E0
0000
0180
0180
03C0
03C0
07E0
04E0
04F0
0870
0870
1FF8
1038
201C
201C
601E
F03F
ENDCHAR
STARTCHAR Adieresis
ENCODING 196
SWIDTH 795 0
DWIDTH 16 0
BBX 16 18 0 0
BITMAP
0660
0660
0000
0180
0180
03C0
03C0
07E0
04E0
04F0
0870
0870
1FF8
1038
201C
201C
601E
F03F
ENDCHAR
STARTCHAR Aring
ENCODING 197
SWIDTH 795 0
DWIDTH 16 0
BBX 16 19 0 0
BITMAP
0380
0280
0380
0000
0180
0180
03C0
03C0
07E0
04E0
04F0
0870
0870
1FF8
1038
201C
201C
601E
F03F
ENDCHAR
STARTCHAR AE
ENCODING 198
SWIDTH 959 0
DWIDTH 19 0
BBX 19 15 0 0
BITMAP
007FE0
007820
00B820
00B800
013800
023800
023840
043FC0
043840
083800
1FF800
103800
203820
403820
F0FFE0
ENDCHAR
STARTCHAR Ccedilla
ENCODING 199
SWIDTH 711 0
DWIDTH 14 0
BBX 13 19 1 -4
BITMAP
07F0
1C18
3808
7008
E000
E000
E000
E000
E000
E000
E000
7000
3800
1C08
07F0
0200
0300
0300
0600
ENDCHAR
STARTCHAR Egrave
ENCODING 200
SWIDTH 601 0
DWIDTH 12 0
BBX 12 19 0 0
BITMAP
1C00
0600
0300
0000
FFE0
3820
3820
3800
3800
3800
3840
3FC0
3840
3800
3800
3800
3810
3830
FFF0
ENDCHAR
STARTCHAR Eacute
ENCODING 201
SWIDTH 601 0
DWIDTH 12 0
BBX 12 19 0 0
BITMAP
0380
0600
0C00
0000
FFE0
3820
3820
3800
3800
3800
3840
3FC0
3840
3800
3800
3800
3810
3830
FFF0
ENDCHAR
STARTCHAR Ecircumflex
ENCODING 202
SWIDTH 601 0
DWIDTH 12 0
BBX 12 19 0 0
BITMAP
0700
0D80
18C0
0000
FFE0
3820
3820
3800
3800
3800
3840
3FC0
3840
3800
3800
3800
3810
3830
FFF0
ENDCHAR
STARTCHAR Edieresis
ENCODING 203
SWIDTH 601 0
DWIDTH 12 0
BBX 12 18 0 0
BITMAP
1980
1980
0000
FFE0
3820
3820
3800
3800
3800
3840
3FC0
3840
3800
3800
3800
3810
3830
FFF0
ENDCHAR
STARTCHAR Igrave
ENCODING 204
SWIDTH 349 0
DWIDTH 7 0
BBX 7 19 0 0
BITMAP
E0
30
18
00
FE
38
38
38
38
38
38
38
38
38
38
38
38
38
FE
ENDCHAR
STARTCHAR Iacute
ENCODING 205
SWIDTH 349 0
DWIDTH 7 0
BBX 7 19 0 0
BITMAP
0E
18
30
00
FE
38
38
38
38
38
38
38
38
38
38
38
38
38
FE
ENDCHAR
STARTCHAR Icircumflex
ENCODING 206
SWIDTH 349 0
DWIDTH 7 0
BBX 7 19 0 0
BITMAP
38
6C
C6
00
FE
38
38
38
38
38
38
38
38
38
38
38
38
38
FE
ENDCHAR
STARTCHAR Idieresis
ENCODING 207
SWIDTH 349 0
DWIDTH 7 0
BBX 7 18 0 0
BITMAP
CC
CC
00
FE
38
38
38
38
38
38
38
38
38
38
38
38
38
FE
ENDCHAR
STARTCHAR Eth
ENCODING 208
SWIDTH 794 0
DWIDTH 16 0
BBX 15 15 0 0
BITMAP
FFE0
3878
381C
381C
380E
380E
380E
FF0E
380E
380E
380C
381C
3818
3838
FFE0
ENDCHAR
STARTCHAR Ntilde
ENCODING 209
SWIDTH 788 0
DWIDTH 16 0
BBX 15 19 0 0
BITMAP
0720
0FE0
09C0
0000
F03E
3808
3C08
3C08
3E08
2F08
2788
2388
23C8
21E8
20E8
20F8
2078
2038
F818
ENDCHAR
STARTCHAR Ograve
ENCODING 210
SWIDTH 810 0
DWIDTH 16 0
BBX 15 19 1 0
BITMAP
0E00
0300
0180
0000
0FE0
1C70
3018
701C
E00E
E00E
E00E
E00E
E00E
E00E
E00E
701C
3018
1C70
0FE0
ENDCHAR
STARTCHAR Oacute
ENCODING 211
SWIDTH 810 0
DWIDTH 16 0
BBX 15 19 1 0
BITMAP
00E0
0180
0300
0000
0FE0
1C70
3018
701C
E00E
E00E
E00E
E00E
E00E
E00E
E00E
701C
3018
1C70
0FE0
ENDCHAR
STARTCHAR Ocircumflex
ENCODING 212
SWIDTH 810 0
DWIDTH 16 0
BBX 15 19 1 0
BITMAP
0380
06C0
0C60
0000
0FE0
1C70
3018
701C
E00E
E00E
E00E
E00E
E00E
E00E
E00E
701C
3018
1C70
0FE0
ENDCHAR
STARTCHAR Otilde
ENCODING 213
SWIDTH 810 0
DWIDTH 16 0
BBX 15 19 1 0
BITMAP
0720
0FE0
09C0
0000
0FE0
1C70
3018
701C
E00E
E00E
E00E
E00E
E00E
E00E
E00E
701C
3018
1C70
0FE0
ENDCHAR
STARTCHAR Odieresis
ENCODING 214
SWIDTH 810 0
DWIDTH 16 0
BBX 15 18 1 0
BITMAP
0CC0
0CC0
0000
0FE0
1C70
3018
701C
E00E
E00E
E00E
E00E
E00E
E00E
E00E
701C
3018
1C70
0FE0
ENDCHAR
STARTCHAR multiply
ENCODING 215
SWIDTH 623 0
DWIDTH 12 0
BBX 12 13 0 0
BITMAP
C010
4030
2040
1080
1980
0F00
0600
0F00
1980
1080
2040
C020
8030
ENDCHAR
STARTCHAR Oslash
ENCODING 216
SWIDTH 810 0
DWIDTH 16 0
BBX 15 15 1 0
BITMAP
0FE6
1C3C
301C
701C
E02E
E04E
E08E
E10E
E20E
E40E
E80E
701C
7018
7870
C7E0
ENDCHAR
STARTCHAR Ugrave
ENCODING 217
SWIDTH 747 0
DWIDTH 15 0
BBX 15 19 0 0
BITMAP
0E00
0300
0180
0000
FE3E
3808
3808
3808
3808
3808
3808
3808
3808
3808
3808
3808
1C10
1C10
07E0
ENDCHAR
STARTCHAR Uacute
ENCODING 218
SWIDTH 747 0
DWIDTH 15 0
BBX 15 19 0 0
BITMAP
00E0
0180
0300
0000
FE3E
3808
3808
3808
3808
3808
3808
3808
3808
3808
3808
3808
1C10
1C10
07E0
ENDCHAR
STARTCHAR Ucircumflex
ENCODING 219
SWIDTH 747 0
DWIDTH 15 0
BBX 15 19 0 0
BITMAP
0380
06C0
0C60
0000
FE3E
3808
3808
3808
3808
3808
3808
3808
3808
3808
3808
3808
1C10
1C10
07E0
ENDCHAR
STARTCHAR Udieresis
ENCODING 220
SWIDTH 747 0
DWIDTH 15 0
BBX 15 18 0 0
BITMAP
0CC0
0CC0
0000
FE3E
3808
3808
3808
3808
3808
3808
3808
3808
3808
3808
3808
1C10
1C10
07E0
ENDCHAR
STARTCHAR Yacute
ENCODING 221
SWIDTH 717 0
DWIDTH 14 0
BBX 15 19 0 0
BITMAP
00E0
0180
0300
0000
FE1E
780C
3C08
1C10
1E30
0F20
0740
07C0
0380
0380
0380
0380
0380
0380
0FE0
ENDCHAR
STARTCHAR Thorn
ENCODING 222
SWIDTH 614 0
DWIDTH 12 0
BBX 12 15 0 0
BITMAP
FE00
3800
3800
3FC0
38E0
3870
3870
3870
3870
3860
38E0
3F80
3800
3800
FE00
ENDCHAR
STARTCHAR germandbls
ENCODING 223
SWIDTH 700 0
DWIDTH 14 0
BBX 13 15 1 0
BITMAP
0F80
18E0
38E0
38E0
3880
3900
3B00
3BC0
3BE0
39F0
38F8
3838
3938
3938
FDF0
ENDCHAR
STARTCHAR agrave
ENCODING 224
SWIDTH 556 0
DWIDTH 11 0
BBX 10 15 1 0
BITMAP
3800
0C00
0600
0000
3E00
6300
4380
0380
0380
3F80
F380
E380
E380
E380
7DC0
ENDCHAR
STARTCHAR aacute
ENCODING 225
SWIDTH 556 0
DWIDTH 11 0
BBX 10 15 1 0
BITMAP
0700
0C00
1800
0000
3E00
6300
4380
0380
0380
3F80
F380
E380
E380
E380
7DC0
ENDCHAR
STARTCHAR acircumflex
ENCODING 226
SWIDTH 556 0
DWIDTH 11 0
BBX 10 15 1 0
BITMAP
1C00
3600
6300
0000
3E00
6300
4380
0380
0380
3F80
F380
E380
E380
E380
7DC0
ENDCHAR
STARTCHAR atilde
ENCODING 227
SWIDTH 556 0
DWIDTH 11 0
BBX 10 15 1 0
BITMAP
3900
7F00
4E00
0000
3E00
6300
4380
0380
0380
3F80
F380
E380
E380
E380
7DC0
ENDCHAR
STARTCHAR adieresis
ENCODING 228
SWIDTH 556 0
DWIDTH 11 0
BBX 10 14 1 0
BITMAP
3300
3300
0000
3E00
6300
4380
0380
0380
3F80
F380
E380
E380
E380
7DC0
ENDCHAR
STARTCHAR aring
ENCODING 229
SWIDTH 556 0
DWIDTH 11 0
BBX 10 15 1 0
BITMAP
1C00
1400
1C00
0000
3E00
6300
4380
0380
0380
3F80
F380
E380
E380
E380
7DC0
ENDCHAR
STARTCHAR ae
ENCODING 230
SWIDTH 858 0
DWIDTH 17 0
BBX 16 11 0 0
BITMAP
3E7C
63CE
4386
0387
0387
3FFF
F380
E380
E3C0
F3E1
7C7F
ENDCHAR
STARTCHAR ccedilla
ENCODING 231
SWIDTH 541 0
DWIDTH 11 0
BBX 9 15 1 -4
BITMAP
1F80
7080
6080
E000
E000
E000
E000
E000
7000
3880
1F80
0800
0C00
0C00
1800
ENDCHAR
STARTCHAR egrave
ENCODING 232
SWIDTH 568 0
DWIDTH 11 0
BBX 10 15 0 0
BITMAP
3800
0C00
0600
0000
1F00
7380
6180
E1C0
E1C0
FFC0
E000
E000
7000
3840
1FC0
ENDCHAR
STARTCHAR eacute
ENCODING 233
SWIDTH 568 0
DWIDTH 11 0
BBX 10 15 0 0
BITMAP
0700
0C00
1800
0000
1F00
7380
6180
E1C0
E1C0
FFC0
E000
E000
7000
3840
1FC0
ENDCHAR
STARTCHAR ecircumflex
ENCODING 234
SWIDTH 568 0
DWIDTH 11 0
BBX 10 15 0 0
BITMAP
0E00
1B00
3180
0000
1F00
7380
6180
E1C0
E1C0
FFC0
E000
E000
7000
3840
1FC0
ENDCHAR
STARTCHAR edieresis
ENCODING 235
SWIDTH 568 0
DWIDTH 11 0
BBX 10 14 0 0
BITMAP
3300
3300
0000
1F00
7380
6180
E1C0
E1C0
FFC0
E000
E000
7000
3840
1FC0
ENDCHAR
STARTCHAR igrave
ENCODING 236
SWIDTH 325 0
DWIDTH 7 0
BBX 7 15 0 0
BITMAP
E0
30
18
00
F8
38
38
38
38
38
38
38
38
38
FE
ENDCHAR
STARTCHAR iacute
ENCODING 237
SWIDTH 325 0
DWIDTH 7 0
BBX 7 15 0 0
BITMAP
0E
18
30
00
F8
38
38
38
38
38
38
38
38
38
FE
ENDCHAR
STARTCHAR icircumflex
ENCODING 238
SWIDTH 325 0
DWIDTH 7 0
BBX 7 15 0 0
BITMAP
38
6C
C6
00
F8
38
38
38
38
38
38
38
38
38
FE
ENDCHAR
STARTCHAR idieresis
ENCODING 239
SWIDTH 325 0
DWIDTH 7 0
BBX 7 14 0 0
BITMAP
CC
CC
00
F8
38
38
38
38
38
38
38
38
38
FE
ENDCHAR
STARTCHAR eth
ENCODING 240
SWIDTH 652 0
DWIDTH 13 0
BBX 11 16 1 0
BITMAP
0300
FC00
1C00
3700
4380
1FC0
71C0
71E0
E0E0
E0E0
E0E0
E0E0
E0E0
71C0
3180
1F00
ENDCHAR
STARTCHAR ntilde
ENCODING 241
SWIDTH 654 0
DWIDTH 13 0
BBX 14 15 0 0
BITMAP
0E40
1FC0
1380
0000
F9E0
7BF0
3C70
3870
3870
3870
3870
3870
3870
3870
FFFC
ENDCHAR
STARTCHAR ograve
ENCODING 242
SWIDTH 617 0
DWIDTH 12 0
BBX 11 15 1 0
BITMAP
3800
0C00
0600
0000
1F00
71C0
71C0
E0E0
E0E0
E0E0
E0E0
E0E0
71C0
31C0
1F00
ENDCHAR
STARTCHAR oacute
ENCODING 243
SWIDTH 617 0
DWIDTH 12 0
BBX 11 15 1 0
BITMAP
0380
0600
0C00
0000
1F00
71C0
71C0
E0E0
E0E0
E0E0
E0E0
E0E0
71C0
31C0
1F00
ENDCHAR
STARTCHAR ocircumflex
ENCODING 244
SWIDTH 617 0
DWIDTH 12 0
BBX 11 15 1 0
BITMAP
0E00
1B00
3180
0000
1F00
71C0
71C0
E0E0
E0E0
E0E0
E0E0
E0E0
71C0
31C0
1F00
ENDCHAR
STARTCHAR otilde
ENCODING 245
SWIDTH 617 0
DWIDTH 12 0
BBX 11 15 1 0
BITMAP
1C80
3F80
2700
0000
1F00
71C0
71C0
E0E0
E0E0
E0E0
E0E0
E0E0
71C0
31C0
1F00
ENDCHAR
STARTCHAR odieresis
ENCODING 246
SWIDTH 617 0
DWIDTH 12 0
BBX 11 14 1 0
BITMAP
1980
1980
0000
1F00
71C0
71C0
E0E0
E0E0
E0E0
E0E0
E0E0
71C0
31C0
1F00
ENDCHAR
STARTCHAR divide
ENCODING 247
SWIDTH 623 0
DWIDTH 12 0
BBX 12 11 0 0
BITMAP
0600
0600
0000
0000
0000
FFF0
0000
0000
0000
0600
0600
ENDCHAR
STARTCHAR oslash
ENCODING 248
SWIDTH 617 0
DWIDTH 12 0
BBX 13 11 0 0
BITMAP
0F98
18E0
38E0
70F0
7170
7270
7470
7870
38E0
38C0
CF80
ENDCHAR
STARTCHAR ugrave
ENCODING 249
SWIDTH 654 0
DWIDTH 13 0
BBX 14 15 0 0
BITMAP
0E00
0300
0180
0000
F9F0
3870
3870
3870
3870
3870
3870
3870
38F0
3F78
1E7C
ENDCHAR
STARTCHAR uacute
ENCODING 250
SWIDTH 654 0
DWIDTH 13 0
BBX 14 15 0 0
BITMAP
01C0
0300
0600
0000
F9F0
3870
3870
3870
3870
3870
3870
3870
38F0
3F78
1E7C
ENDCHAR
STARTCHAR ucircumflex
ENCODING 251
SWIDTH 654 0
DWIDTH 13 0
BBX 14 15 0 0
BITMAP
0380
06C0
0C60
0000
F9F0
3870
3870
3870
3870
3870
3870
3870
38F0
3F78
1E7C
ENDCHAR
STARTCHAR udieresis
ENCODING 252
SWIDTH 654 0
DWIDTH 13 0
BBX 14 14 0 0
BITMAP
0CC0
0CC0
0000
F9F0
3870
3870
3870
3870
3870
3870
3870
38F0
3F78
1E7C
ENDCHAR
STARTCHAR yacute
ENCODING 253
SWIDTH 654 0
DWIDTH 13 0
BBX 13 19 0 -4
BITMAP
01C0
0300
0600
0000
FC78
7830
3820
3C40
1C40
1C80
0E80
0F00
0700
0600
0600
0400
0C00
1800
3800
ENDCHAR
STARTCHAR thorn
ENCODING 254
SWIDTH 652 0
DWIDTH 13 0
BBX 13 18 0 -4
BITMAP
F800
3800
3800
39E0
3BF0
3C70
3838
3838
3838
3838
3838
3870
3C70
3BC0
3800
3800
3800
FE00
ENDCHAR
STARTCHAR ydieresis
ENCODING 255
SWIDTH 654 0
DWIDTH 13 0
BBX 13 18 0 -4
BITMAP
1980
1980
0000
FC78
7830
3820
3C40
1C40
1C80
0E80
0F00
0700
0600
0600
0400
0C00
1800
3800
ENDCHAR
STARTCHAR Amacron
ENCODING 256
SWIDTH 795 0
DWIDTH 16 0
BBX 16 17 0 0
BITMAP
07E0
0000
0180
0180
03C0
03C0
07E0
04E0
04F0
0870
0870
1FF8
1038
201C
201C
601E
F03F
ENDCHAR
STARTCHAR amacron
ENCODING 257
SWIDTH 556 0
DWIDTH 11 0
BBX 10 13 1 0
BITMAP
3F00
0000
3E00
6300
4380
0380
0380
3F80
F380
E380
E380
E380
7DC0
ENDCHAR
STARTCHAR Abreve
ENCODING 258
SWIDTH 795 0
DWIDTH 16 0
BBX 16 19 0 0
BITMAP
0410
03E0
01C0
0000
0180
0180
03C0
03C0
07E0
04E0
04F0
0870
0870
1FF8
1038
201C
201C
601E
F03F
ENDCHAR
STARTCHAR abreve
ENCODING 259
SWIDTH 556 0
DWIDTH 11 0
BBX 10 15 1 0
BITMAP
4100
3E00
1C00
0000
3E00
6300
4380
0380
0380
3F80
F380
E380
E380
E380
7DC0
ENDCHAR
STARTCHAR Aogonek
ENCODING 260
SWIDTH 795 0
DWIDTH 16 0
BBX 16 18 0 -3
BITMAP
0180
0180
03C0
03C0
07E0
04E0
04F0
0870
0870
1FF8
1038
201C
201C
601E
F03F
00C0
0180
01E0
ENDCHAR
STARTCHAR aogonek
ENCODING 261
SWIDTH 556 0
DWIDTH 11 0
BBX 10 14 1 -3
BITMAP
3E00
6300
4380
0380
0380
3F80
F380
E380
E380
E380
7DC0
0C00
1800
1E00
ENDCHAR
STARTCHAR Cacute
ENCODING 262
SWIDTH 711 0
DWIDTH 14 0
BBX 13 19 1 0
BITMAP
01C0
0300
0600
0000
07F0
1C18
3808
7008
E000
E000
E000
E000
E000
E000
E000
7000
3800
1C08
07F0
ENDCHAR
STARTCHAR cacute
ENCODING 263
SWIDTH 541 0
DWIDTH 11 0
BBX 9 15 1 0
BITMAP
0700
0C00
1800
0000
1F80
7080
6080
E000
E000
E000
E000
E000
7000
3880
1F80
ENDCHAR
STARTCHAR Ccircumflex
ENCODING 264
SWIDTH 711 0
DWIDTH 14 0
BBX 13 19 1 0
BITMAP
0700
0D80
18C0
0000
07F0
1C18
3808
7008
E000
E000
E000
E000
E000
E000
E000
7000
3800
1C08
07F0
ENDCHAR
STARTCHAR ccircumflex
ENCODING 265
SWIDTH 541 0
DWIDTH 11 0
BBX 9 15 1 0
BITMAP
1C00
3600
6300
0000
1F80
7080
6080
E000
E000
E000
E000
E000
7000
3880
1F80
ENDCHAR
STARTCHAR Cdotaccent
ENCODING 266
SWIDTH 711 0
DWIDTH 14 0
BBX 13 19 1 0
BITMAP
0300
0300
0300
0000
07F0
1C18
3808
7008
E000
E000
E000
E000
E000
E000
E000
7000
3800
1C08
07F0
ENDCHAR
STARTCHAR cdotaccent
ENCODING 267
SWIDTH 541 0
DWIDTH 11 0
BBX 9 15 1 0
BITMAP
0C00
0C00
0C00
0000
1F80
7080
6080
E000
E000
E000
E000
E000
7000
3880
1F80
ENDCHAR
STARTCHAR Ccaron
ENCODING 268
SWIDTH 711 0
DWIDTH 14 0
BBX 13 19 1 0
BITMAP
18C0
0D80
0700
0000
07F0
1C18
3808
7008
E000
E000
E000
E000
E000
E000
E000
7000
3800
1C08
07F0
ENDCHAR
STARTCHAR ccaron
ENCODING 269
SWIDTH 541 0
DWIDTH 11 0
BBX 9 15 1 0
BITMAP
6300
3600
1C00
0000
1F80
7080
6080
E000
E000
E000
E000
E000
7000
3880
1F80
ENDCHAR
STARTCHAR Dcaron
ENCODING 270
SWIDTH 794 0
DWIDTH 16 0
BBX 15 19 0 0
BITMAP
0C60
06C0
0380
0000
FFE0
3878
381C
381C
380E
380E
380E
380E
380E
380E
380C
381C
3818
3830
FFE0
ENDCHAR
STARTCHAR dcaron
ENCODING 271
SWIDTH 884 0
DWIDTH 17 0
BBX 16 15 0 0
BITMAP
03E7
00E7
00E7
00E3
1EE3
71E6
60E0
E0E0
E0E0
E0E0
E0E0
E0E0
71E0
7EF0
3CF8
ENDCHAR
STARTCHAR Dcroat
ENCODING 272
SWIDTH 794 0
DWIDTH 16 0
BBX 15 15 0 0
BITMAP
FFE0
3878
381C
381C
380E
380E
380E
FF0E
380E
380E
380C
381C
3818
3838
FFE0
ENDCHAR
STARTCHAR dcroat
ENCODING 273
SWIDTH 652 0
DWIDTH 13 0
BBX 13 15 0 0
BITMAP
03E0
00E0
03F8
00E0
1EE0
71E0
60E0
E0E0
E0E0
E0E0
E0E0
E0E0
71E0
7EF0
3CF8
ENDCHAR
STARTCHAR Emacron
ENCODING 274
SWIDTH 601 0
DWIDTH 12 0
BBX 12 17 0 0
BITMAP
3F00
0000
FFE0
3820
3820
3800
3800
3800
3840
3FC0
3840
3800
3800
3800
3810
3830
FFF0
ENDCHAR
STARTCHAR emacron
ENCODING 275
SWIDTH 568 0
DWIDTH 11 0
BBX 10 13 0 0
BITMAP
3F00
0000
1F00
7380
6180
E1C0
E1C0
FFC0
E000
E000
7000
3840
1FC0
ENDCHAR
STARTCHAR Ebreve
ENCODING 276
SWIDTH 601 0
DWIDTH 12 0
BBX 12 19 0 0
BITMAP
2080
1F00
0E00
0000
FFE0
3820
3820
3800
3800
3800
3840
3FC0
3840
3800
3800
3800
3810
3830
FFF0
ENDCHAR
STARTCHAR ebreve
ENCODING 277
SWIDTH 568 0
DWIDTH 11 0
BBX 10 15 0 0
BITMAP
2080
1F00
0E00
0000
1F00
7380
6180
E1C0
E1C0
FFC0
E000
E000
7000
3840
1FC0
ENDCHAR
STARTCHAR Edotaccent
ENCODING 278
SWIDTH 601 0
DWIDTH 12 0
BBX 12 19 0 0
BITMAP
0C00
0C00
0C00
0000
FFE0
3820
3820
3800
3800
3800
3840
3FC0
3840
3800
3800
3800
3810
3830
FFF0
ENDCHAR
STARTCHAR edotaccent
ENCODING 279
SWIDTH 568 0
DWIDTH 11 0
BBX 10 15 0 0
BITMAP
0C00
0C00
0C00
0000
1F00
7380
6180
E1C0
E1C0
FFC0
E000
E000
7000
3840
1FC0
ENDCHAR
STARTCHAR Eogonek
ENCODING 280
SWIDTH 601 0
DWIDTH 12 0
BBX 12 18 0 -3
BITMAP
FFE0
3820
3820
3800
3800
3800
3840
3FC0
3840
3800
3800
3800
3810
3830
FFF0
0600
0C00
0F00
ENDCHAR
STARTCHAR eogonek
ENCODING 281
SWIDTH 568 0
DWIDTH 11 0
BBX 10 14 0 -3
BITMAP
1F00
7380
6180
E1C0
E1C0
FFC0
E000
E000
7000
3840
1FC0
0C00
1800
1E00
ENDCHAR
STARTCHAR Ecaron
ENCODING 282
SWIDTH 601 0
DWIDTH 12 0
BBX 12 19 0 0
BITMAP
3180
1B00
0E00
0000
FFE0
3820
3820
3800
3800
3800
3840
3FC0
3840
3800
3800
3800
3810
3830
FFF0
ENDCHAR
STARTCHAR ecaron
ENCODING 283
SWIDTH 568 0
DWIDTH 11 0
BBX 10 15 0 0
BITMAP
3180
1B00
0E00
0000
1F00
7380
6180
E1C0
E1C0
FFC0
E000
E000
7000
3840
1FC0
ENDCHAR
STARTCHAR Gcircumflex
ENCODING 284
SWIDTH 753 0
DWIDTH 15 0
BBX 14 19 1 0
BITMAP
0700
0D80
18C0
0000
0FE0
1C30
3010
7010
E000
E000
E000
E000
E1FC
E070
E070
7070
7070
3870
0FE0
ENDCHAR
STARTCHAR gcircumflex
ENCODING 285
SWIDTH 599 0
DWIDTH 12 0
BBX 12 19 0 -4
BITMAP
0700
0D80
18C0
0000
1FF0
31A0
71C0
71C0
71C0
3180
1F00
1000
3000
7FC0
1FE0
E0E0
E0E0
F1C0
3F00
ENDCHAR
STARTCHAR Gbreve
ENCODING 286
SWIDTH 753 0
DWIDTH 15 0
BBX 14 19 1 0
BITMAP
1040
0F80
0700
0000
0FE0
1C30
3010
7010
E000
E000
E000
E000
E1FC
E070
E070
7070
7070
3870
0FE0
ENDCHAR
STARTCHAR gbreve
ENCODING 287
SWIDTH 599 0
DWIDTH 12 0
BBX 12 19 0 -4
BITMAP
1040
0F80
0700
0000
1FF0
31A0
71C0
71C0
71C0
3180
1F00
1000
3000
7FC0
1FE0
E0E0
E0E0
F1C0
3F00
ENDCHAR
STARTCHAR Gdotaccent
ENCODING 288
SWIDTH 753 0
DWIDTH 15 0
BBX 14 19 1 0
BITMAP
0300
0300
0300
0000
0FE0
1C30
3010
7010
E000
E000
E000
E000
E1FC
E070
E070
7070
7070
3870
0FE0
ENDCHAR
STARTCHAR gdotaccent
ENCODING 289
SWIDTH 599 0
DWIDTH 12 0
BBX 12 19 0 -4
BITMAP
0600
0600
0600
0000
1FF0
31A0
71C0
71C0
71C0
3180
1F00
1000
3000
7FC0
1FE0
E0E0
E0E0
F1C0
3F00
ENDCHAR
STARTCHAR Gcommaaccent
ENCODING 290
SWIDTH 753 0
DWIDTH 15 0
BBX 14 23 1 -8
BITMAP
0FE0
1C30
3010
7010
E000
E000
E000
E000
E1FC
E070
E070
7070
7070
3870
0FE0
0000
0700
0700
0700
0700
0300
0300
0600
ENDCHAR
STARTCHAR gcommaaccent
ENCODING 291
SWIDTH 599 0
DWIDTH 12 0
BBX 12 22 0 -4
BITMAP
0300
0600
0600
0700
0700
0700
0000
1FF0
31A0
71C0
71C0
71C0
3180
1F00
1000
3000
7FC0
1FE0
E0E0
E0E0
F1C0
3F00
ENDCHAR
STARTCHAR Hcircumflex
ENCODING 292
SWIDTH 798 0
DWIDTH 16 0
BBX 16 19 0 0
BITMAP
01C0
0360
0630
0000
FE7F
381C
381C
381C
381C
381C
381C
3FFC
381C
381C
381C
381C
381C
381C
FE7F
ENDCHAR
STARTCHAR hcircumflex
ENCODING 293
SWIDTH 654 0
DWIDTH 13 0
BBX 14 19 0 0
BITMAP
1C00
3600
6300
0000
F800
3800
3800
3800
39E0
3BF0
3C70
3870
3870
3870
3870
3870
3870
3870
FFFC
ENDCHAR
STARTCHAR Hbar
ENCODING 294
SWIDTH 798 0
DWIDTH 16 0
BBX 16 15 0 0
BITMAP
FE7F
381C
381C
FFFF
381C
381C
381C
3FFC
381C
381C
381C
381C
381C
381C
FE7F
ENDCHAR
STARTCHAR hbar
ENCODING 295
SWIDTH 654 0
DWIDTH 13 0
BBX 14 15 0 0
BITMAP
F800
3800
7F00
3800
39E0
3BF0
3C70
3870
3870
3870
3870
3870
3870
3870
FFFC
ENDCHAR
STARTCHAR Itilde
ENCODING 296
SWIDTH 349 0
DWIDTH 7 0
BBX 7 19 0 0
BITMAP
72
FE
9C
00
FE
38
38
38
38
38
38
38
38
38
38
38
38
38
FE
ENDCHAR
STARTCHAR itilde
ENCODING 297
SWIDTH 325 0
DWIDTH 7 0
BBX 7 15 0 0
BITMAP
72
FE
9C
00
F8
38
38
38
38
38
38
38
38
38
FE
ENDCHAR
STARTCHAR Imacron
ENCODING 298
SWIDTH 349 0
DWIDTH 7 0
BBX 7 17 0 0
BITMAP
7E
00
FE
38
38
38
38
38
38
38
38
38
38
38
38
38
FE
ENDCHAR
STARTCHAR imacron
ENCODING 299
SWIDTH 325 0
DWIDTH 7 0
BBX 7 13 0 0
BITMAP
FC
00
F8
38
38
38
38
38
38
38
38
38
FE
ENDCHAR
STARTCHAR Ibreve
ENCODING 300
SWIDTH 349 0
DWIDTH 7 0
BBX 7 19 0 0
BITMAP
82
7C
38
00
FE
38
38
38
38
38
38
38
38
38
38
38
38
38
FE
ENDCHAR
STARTCHAR ibreve
ENCODING 301
SWIDTH 325 0
DWIDTH 7 0
BBX 7 15 0 0
BITMAP
82
7C
38
00
F8
38
38
38
38
38
38
38
38
38
FE
ENDCHAR
STARTCHAR Iogonek
ENCODING 302
SWIDTH 349 0
DWIDTH 7 0
BBX 7 18 0 -3
BITMAP
FE
38
38
38
38
38
38
38
38
38
38
38
38
38
FE
18
30
3C
ENDCHAR
STARTCHAR iogonek
ENCODING 303
SWIDTH 325 0
DWIDTH 7 0
BBX 7 18 0 -3
BITMAP
38
38
38
00
F8
38
38
38
38
38
38
38
38
38
FE
18
30
3C
ENDCHAR
STARTCHAR Idotaccent
ENCODING 304
SWIDTH 349 0
DWIDTH 7 0
BBX 7 19 0 0
BITMAP
18
18
18
00
FE
38
38
38
38
38
38
38
38
38
38
38
38
38
FE
ENDCHAR
STARTCHAR dotlessi
ENCODING 305
SWIDTH 325 0
DWIDTH 7 0
BBX 7 11 0 0
BITMAP
F8
38
38
38
38
38
38
38
38
38
FE
ENDCHAR
STARTCHAR IJ
ENCODING 306
SWIDTH 784 0
DWIDTH 16 0
BBX 16 18 0 -3
BITMAP
FE7F
381C
381C
381C
381C
381C
381C
381C
381C
381C
381C
381C
381C
381C
FE1C
011C
0138
01F0
ENDCHAR
STARTCHAR ij
ENCODING 307
SWIDTH 664 0
DWIDTH 14 0
BBX 14 19 0 -4
BITMAP
381C
381C
381C
0000
F87C
381C
381C
381C
381C
381C
381C
381C
381C
381C
FE1C
001C
011C
011C
01F8
ENDCHAR
STARTCHAR Jcircumflex
ENCODING 308
SWIDTH 452 0
DWIDTH 9 0
BBX 9 22 0 -3
BITMAP
0E00
1B00
3180
0000
3F80
0E00
0E00
0E00
0E00
0E00
0E00
0E00
0E00
0E00
0E00
0E00
0E00
0E00
0E00
8E00
9C00
F800
ENDCHAR
STARTCHAR jcircumflex
ENCODING 309
SWIDTH 355 0
DWIDTH 7 0
BBX 8 19 0 -4
BITMAP
1C
36
63
00
3E
0E
0E
0E
0E
0E
0E
0E
0E
0E
0E
0E
8E
8E
FC
ENDCHAR
STARTCHAR Kcommaaccent
ENCODING 310
SWIDTH 747 0
DWIDTH 15 0
BBX 15 23 0 -8
BITMAP
FC3C
3830
3820
3840
3880
3900
3B00
3F00
3F80
3BC0
39E0
38F0
3878
387C
FCFE
0000
0380
0380
0380
0380
0180
0180
0300
ENDCHAR
STARTCHAR kcommaaccent
ENCODING 311
SWIDTH 654 0
DWIDTH 12 0
BBX 13 23 0 -8
BITMAP
F800
3800
3800
3800
38F0
3860
3880
3900
3B00
3F80
3B80
3BC0
39E0
38F0
FCF8
0000
0700
0700
0700
0700
0300
0300
0600
ENDCHAR
STARTCHAR kgreenlandic
ENCODING 312
SWIDTH 654 0
DWIDTH 12 0
BBX 13 11 0 0
BITMAP
38F0
3860
3880
3900
3B00
3F80
3B80
3BC0
39E0
38F0
FCF8
ENDCHAR
STARTCHAR Lacute
ENCODING 313
SWIDTH 584 0
DWIDTH 12 0
BBX 12 19 0 0
BITMAP
0700
0C00
1800
0000
FE00
3800
3800
3800
3800
3800
3800
3800
3800
3800
3800
3800
3830
3810
FFF0
ENDCHAR
STARTCHAR lacute
ENCODING 314
SWIDTH 325 0
DWIDTH 7 0
BBX 7 19 0 0
BITMAP
0E
18
30
00
F8
38
38
38
38
38
38
38
38
38
38
38
38
38
FE
ENDCHAR
STARTCHAR Lcommaaccent
ENCODING 315
SWIDTH 584 0
DWIDTH 12 0
BBX 12 23 0 -8
BITMAP
FE00
3800
3800
3800
3800
3800
3800
3800
3800
3800
3800
3800
3830
3810
FFF0
0000
0E00
0E00
0E00
0E00
0600
0600
0C00
ENDCHAR
STARTCHAR lcommaaccent
ENCODING 316
SWIDTH 325 0
DWIDTH 7 0
BBX 7 23 0 -8
BITMAP
F8
38
38
38
38
38
38
38
38
38
38
38
38
38
FE
00
38
38
38
38
18
18
30
ENDCHAR
STARTCHAR Lcaron
ENCODING 317
SWIDTH 820 0
DWIDTH 16 0
BBX 15 15 0 0
BITMAP
FE0E
380E
380E
3806
3806
380C
3800
3800
3800
3800
3800
3800
3830
3810
FFF0
ENDCHAR
STARTCHAR lcaron
ENCODING 318
SWIDTH 574 0
DWIDTH 12 0
BBX 11 15 0 0
BITMAP
F8E0
38E0
38E0
3860
3860
38C0
3800
3800
3800
3800
3800
3800
3800
3800
FE00
ENDCHAR
STARTCHAR Ldot
ENCODING 319
SWIDTH 1178 0
DWIDTH 23 0
BBX 18 15 0 0
BITMAP
FE0000
380000
380000
380000
380000
380000
380000
3800C0
3800C0
3800C0
380000
380000
383000
381000
FFF000
ENDCHAR
STARTCHAR ldot
ENCODING 320
SWIDTH 932 0
DWIDTH 19 0
BBX 14 15 0 0
BITMAP
F800
3800
3800
3800
3800
3800
3800
380C
380C
380C
3800
3800
3800
3800
FE00
ENDCHAR
STARTCHAR Lslash
ENCODING 321
SWIDTH 584 0
DWIDTH 12 0
BBX 12 15 0 0
BITMAP
FE00
3800
3800
3800
3A00
3E00
3800
7800
F800
3800
3800
3800
3810
3830
FFF0
ENDCHAR
STARTCHAR lslash
ENCODING 322
SWIDTH 325 0
DWIDTH 7 0
BBX 7 15 0 0
BITMAP
F8
38
38
38
38
3A
3C
38
F8
B8
38
38
38
38
FE
ENDCHAR
STARTCHAR Nacute
ENCODING 323
SWIDTH 788 0
DWIDTH 16 0
BBX 15 19 0 0
BITMAP
01C0
0300
0600
0000
F03E
3808
3C08
3C08
3E08
2F08
2788
2388
23C8
21E8
20E8
20F8
2078
2038
F818
ENDCHAR
STARTCHAR nacute
ENCODING 324
SWIDTH 654 0
DWIDTH 13 0
BBX 14 15 0 0
BITMAP
01C0
0300
0600
0000
F9E0
7BF0
3C70
3870
3870
3870
3870
3870
3870
3870
FFFC
ENDCHAR
STARTCHAR Ncommaaccent
ENCODING 325
SWIDTH 788 0
DWIDTH 16 0
BBX 15 23 0 -8
BITMAP
F03E
3808
3C08
3C08
3E08
2F08
2788
2388
23C8
21E8
20E8
20F8
2078
2038
F818
0000
0380
0380
0380
0380
0180
0180
0300
ENDCHAR
STARTCHAR ncommaaccent
ENCODING 326
SWIDTH 654 0
DWIDTH 13 0
BBX 14 19 0 -8
BITMAP
F9E0
7BF0
3C70
3870
3870
3870
3870
3870
3870
3870
FFFC
0000
0380
0380
0380
0380
0180
0180
0300
ENDCHAR
STARTCHAR Ncaron
ENCODING 327
SWIDTH 788 0
DWIDTH 16 0
BBX 15 19 0 0
BITMAP
18C0
0D80
0700
0000
F03E
3808
3C08
3C08
3E08
2F08
2788
2388
23C8
21E8
20E8
20F8
2078
2038
F818
ENDCHAR
STARTCHAR ncaron
ENCODING 328
SWIDTH 654 0
DWIDTH 13 0
BBX 14 15 0 0
BITMAP
18C0
0D80
0700
0000
F9E0
7BF0
3C70
3870
3870
3870
3870
3870
3870
3870
FFFC
ENDCHAR
STARTCHAR napostrophe
ENCODING 329
SWIDTH 906 0
DWIDTH 18 0
BBX 18 15 1 0
BITMAP
E00000
E00000
E00000
600000
6F9E00
C7BF00
03C700
038700
038700
038700
038700
038700
038700
038700
0FFFC0
ENDCHAR
STARTCHAR Eng
ENCODING 330
SWIDTH 788 0
DWIDTH 16 0
BBX 15 19 0 -4
BITMAP
F03E
3808
3C08
3C08
3E08
2F08
2788
2388
23C8
21E8
20F8
20F8
2078
2038
F838
0038
0238
0238
03F0
ENDCHAR
STARTCHAR eng
ENCODING 331
SWIDTH 654 0
DWIDTH 13 0
BBX 12 15 0 -4
BITMAP
F9E0
7BF0
3C70
3870
3870
3870
3870
3870
3870
3870
FE70
0070
0470
0470
07E0
ENDCHAR
STARTCHAR Omacron
ENCODING 332
SWIDTH 810 0
DWIDTH 16 0
BBX 15 17 1 0
BITMAP
07E0
0000
0FE0
1C70
3018
701C
E00E
E00E
E00E
E00E
E00E
E00E
E00E
701C
3018
1C70
0FE0
ENDCHAR
STARTCHAR omacron
ENCODING 333
SWIDTH 617 0
DWIDTH 12 0
BBX 11 13 1 0
BITMAP
1F80
0000
1F00
71C0
71C0
E0E0
E0E0
E0E0
E0E0
E0E0
71C0
31C0
1F00
ENDCHAR
STARTCHAR Obreve
ENCODING 334
SWIDTH 810 0
DWIDTH 16 0
BBX 15 19 1 0
BITMAP
0820
07C0
0380
0000
0FE0
1C70
3018
701C
E00E
E00E
E00E
E00E
E00E
E00E
E00E
701C
3018
1C70
0FE0
ENDCHAR
STARTCHAR obreve
ENCODING 335
SWIDTH 617 0
DWIDTH 12 0
BBX 11 15 1 0
BITMAP
2080
1F00
0E00
0000
1F00
71C0
71C0
E0E0
E0E0
E0E0
E0E0
E0E0
71C0
31C0
1F00
ENDCHAR
STARTCHAR Ohungarumlaut
ENCODING 336
SWIDTH 810 0
DWIDTH 16 0
BBX 15 19 1 0
BITMAP
01B0
0340
0480
0000
0FE0
1C70
3018
701C
E00E
E00E
E00E
E00E
E00E
E00E
E00E
701C
3018
1C70
0FE0
ENDCHAR
STARTCHAR ohungarumlaut
ENCODING 337
SWIDTH 617 0
DWIDTH 12 0
BBX 11 15 1 0
BITMAP
06C0
0D00
1200
0000
1F00
71C0
71C0
E0E0
E0E0
E0E0
E0E0
E0E0
71C0
31C0
1F00
ENDCHAR
STARTCHAR OE
ENCODING 338
SWIDTH 1044 0
DWIDTH 21 0
BBX 19 15 1 0
BITMAP
0FBFE0
387820
703820
703800
E03800
E03800
E03840
E03FC0
E03840
E03800
E03800
703800
303820
187820
0FBFE0
ENDCHAR
STARTCHAR oe
ENCODING 339
SWIDTH 943 0
DWIDTH 19 0
BBX 17 11 1 0
BITMAP
1F1E00
71E300
70E300
E0E380
E0E380
E0FF80
E0E000
E0E000
70F000
31F880
1F3F80
ENDCHAR
STARTCHAR Racute
ENCODING 340
SWIDTH 720 0
DWIDTH 14 0
BBX 15 19 0 0
BITMAP
01C0
0300
0600
0000
FFC0
38E0
3870
3870
3870
3870
39E0
3FC0
3BC0
39E0
38E0
38F0
3878
387C
FC3E
ENDCHAR
STARTCHAR racute
ENCODING 341
SWIDTH 462 0
DWIDTH 9 0
BBX 9 15 0 0
BITMAP
0700
0C00
1800
0000
F980
3F80
3C80
3800
3800
3800
3800
3800
3800
3800
FE00
ENDCHAR
STARTCHAR Rcommaaccent
ENCODING 342
SWIDTH 720 0
DWIDTH 14 0
BBX 15 23 0 -8
BITMAP
FFC0
38E0
3870
3870
3870
3870
39E0
3FC0
3BC0
39E0
38E0
38F0
3878
387C
FC3E
0000
0380
0380
0380
0380
0180
0180
0300
ENDCHAR
STARTCHAR rcommaaccent
ENCODING 343
SWIDTH 462 0
DWIDTH 9 0
BBX 9 19 0 -8
BITMAP
F980
3F80
3C80
3800
3800
3800
3800
3800
3800
3800
FE00
0000
3800
3800
3800
3800
1800
1800
3000
ENDCHAR
STARTCHAR Rcaron
ENCODING 344
SWIDTH 720 0
DWIDTH 14 0
BBX 15 19 0 0
BITMAP
18C0
0D80
0700
0000
FFC0
38E0
3870
3870
3870
3870
39E0
3FC0
3BC0
39E0
38E0
38F0
3878
387C
FC3E
ENDCHAR
STARTCHAR rcaron
ENCODING 345
SWIDTH 462 0
DWIDTH 9 0
BBX 9 15 0 0
BITMAP
6300
3600
1C00
0000
F980
3F80
3C80
3800
3800
3800
3800
3800
3800
3800
FE00
ENDCHAR
STARTCHAR Sacute
ENCODING 346
SWIDTH 556 0
DWIDTH 11 0
BBX 10 19 1 0
BITMAP
0700
0C00
1800
0000
3F00
7180
E080
E080
E000
F800
7E00
3F00
0F80
03C0
01C0
81C0
81C0
C380
7E00
ENDCHAR
STARTCHAR sacute
ENCODING 347
SWIDTH 525 0
DWIDTH 10 0
BBX 9 15 1 0
BITMAP
0700
0C00
1800
0000
3F00
7100
E100
F000
FC00
7F00
1F80
8780
8380
C700
7E00
ENDCHAR
STARTCHAR Scircumflex
ENCODING 348
SWIDTH 556 0
DWIDTH 11 0
BBX 10 19 1 0
BITMAP
1C00
3600
6300
0000
3F00
7180
E080
E080
E000
F800
7E00
3F00
0F80
03C0
01C0
81C0
81C0
C380
7E00
ENDCHAR
STARTCHAR scircumflex
ENCODING 349
SWIDTH 525 0
DWIDTH 10 0
BBX 9 15 1 0
BITMAP
1C00
3600
6300
0000
3F00
7100
E100
F000
FC00
7F00
1F80
8780
8380
C700
7E00
ENDCHAR
STARTCHAR Scedilla
ENCODING 350
SWIDTH 556 0
DWIDTH 11 0
BBX 10 19 1 -4
BITMAP
3F00
7180
E080
E080
E000
F800
7E00
3F00
0F80
03C0
01C0
81C0
81C0
C380
7E00
0C00
0600
0600
0C00
ENDCHAR
STARTCHAR scedilla
ENCODING 351
SWIDTH 525 0
DWIDTH 10 0
BBX 9 15 1 -4
BITMAP
3F00
7100
E100
F000
FC00
7F00
1F80
8780
8380
C700
7E00
1800
0C00
0C00
1800
ENDCHAR
STARTCHAR Scaron
ENCODING 352
SWIDTH 556 0
DWIDTH 11 0
BBX 10 19 1 0
BITMAP
6300
3600
1C00
0000
3F00
7180
E080
E080
E000
F800
7E00
3F00
0F80
03C0
01C0
81C0
81C0
C380
7E00
ENDCHAR
STARTCHAR scaron
ENCODING 353
SWIDTH 525 0
DWIDTH 10 0
BBX 9 15 1 0
BITMAP
6300
3600
1C00
0000
3F00
7100
E100
F000
FC00
7F00
1F80
8780
8380
C700
7E00
ENDCHAR
STARTCHAR Tcommaaccent
ENCODING 354
SWIDTH 714 0
DWIDTH 14 0
BBX 13 19 1 -4
BITMAP
FFF8
C708
8708
0700
0700
0700
0700
0700
0700
0700
0700
0700
0700
0700
1FC0
0600
0300
0300
0600
ENDCHAR
STARTCHAR tcommaaccent
ENCODING 355
SWIDTH 389 0
DWIDTH 8 0
BBX 7 18 0 -4
BITMAP
30
70
70
FE
70
70
70
70
70
70
70
70
70
3E
30
18
18
30
ENDCHAR
STARTCHAR Tcaron
ENCODING 356
SWIDTH 714 0
DWIDTH 14 0
BBX 13 19 1 0
BITMAP
18C0
0D80
0700
0000
FFF8
C708
8708
0700
0700
0700
0700
0700
0700
0700
0700
0700
0700
0700
1FC0
ENDCHAR
STARTCHAR tcaron
ENCODING 357
SWIDTH 635 0
DWIDTH 13 0
BBX 12 15 0 0
BITMAP
0070
3070
7070
7030
FE30
7060
7000
7000
7000
7000
7000
7000
7000
7000
3E00
ENDCHAR
STARTCHAR Tbar
ENCODING 358
SWIDTH 714 0
DWIDTH 14 0
BBX 13 15 1 0
BITMAP
FFF8
C708
8708
0700
0700
0700
0700
1FC0
0700
0700
0700
0700
0700
0700
1FC0
ENDCHAR
STARTCHAR tbar
ENCODING 359
SWIDTH 389 0
DWIDTH 8 0
BBX 7 14 0 0
BITMAP
30
70
70
FE
70
70
70
70
FE
70
70
70
70
3E
ENDCHAR
STARTCHAR Utilde
ENCODING 360
SWIDTH 747 0
DWIDTH 15 0
BBX 15 19 0 0
BITMAP
0E40
1FC0
1380
0000
FE3E
3808
3808
3808
3808
3808
3808
3808
3808
3808
3808
3808
1C10
1C10
07E0
ENDCHAR
STARTCHAR utilde
ENCODING 361
SWIDTH 654 0
DWIDTH 13 0
BBX 14 15 0 0
BITMAP
0E40
1FC0
1380
0000
F9F0
3870
3870
3870
3870
3870
3870
3870
38F0
3F78
1E7C
ENDCHAR
STARTCHAR Umacron
ENCODING 362
SWIDTH 747 0
DWIDTH 15 0
BBX 15 17 0 0
BITMAP
0FC0
0000
FE3E
3808
3808
3808
3808
3808
3808
3808
3808
3808
3808
3808
1C10
1C10
07E0
ENDCHAR
STARTCHAR umacron
ENCODING 363
SWIDTH 654 0
DWIDTH 13 0
BBX 14 13 0 0
BITMAP
0FC0
0000
F9F0
3870
3870
3870
3870
3870
3870
3870
38F0
3F78
1E7C
ENDCHAR
STARTCHAR Ubreve
ENCODING 364
SWIDTH 747 0
DWIDTH 15 0
BBX 15 19 0 0
BITMAP
1040
0F80
0700
0000
FE3E
3808
3808
3808
3808
3808
3808
3808
3808
3808
3808
3808
1C10
1C10
07E0
ENDCHAR
STARTCHAR ubreve
ENCODING 365
SWIDTH 654 0
DWIDTH 13 0
BBX 14 15 0 0
BITMAP
1040
0F80
0700
0000
F9F0
3870
3870
3870
3870
3870
3870
3870
38F0
3F78
1E7C
ENDCHAR
STARTCHAR Uring
ENCODING 366
SWIDTH 747 0
DWIDTH 15 0
BBX 15 19 0 0
BITMAP
0700
0500
0700
0000
FE3E
3808
3808
3808
3808
3808
3808
3808
3808
3808
3808
3808
1C10
1C10
07E0
ENDCHAR
STARTCHAR uring
ENCODING 367
SWIDTH 654 0
DWIDTH 13 0
BBX 14 15 0 0
BITMAP
0700
0500
0700
0000
F9F0
3870
3870
3870
3870
3870
3870
3870
38F0
3F78
1E7C
ENDCHAR
STARTCHAR Uhungarumlaut
ENCODING 368
SWIDTH 747 0
DWIDTH 15 0
BBX 15 19 0 0
BITMAP
0360
0680
0900
0000
FE3E
3808
3808
3808
3808
3808
3808
3808
3808
3808
3808
3808
1C10
1C10
07E0
ENDCHAR
STARTCHAR uhungarumlaut
ENCODING 369
SWIDTH 654 0
DWIDTH 13 0
BBX 14 15 0 0
BITMAP
0360
0680
0900
0000
F9F0
3870
3870
3870
3870
3870
3870
3870
38F0
3F78
1E7C
ENDCHAR
STARTCHAR Uogonek
ENCODING 370
SWIDTH 747 0
DWIDTH 15 0
BBX 15 18 0 -3
BITMAP
FE3E
3808
3808
3808
3808
3808
3808
3808
3808
3808
3808
3808
1C10
1C10
07E0
0300
0600
0780
ENDCHAR
STARTCHAR uogonek
ENCODING 371
SWIDTH 654 0
DWIDTH 13 0
BBX 14 14 0 -3
BITMAP
F9F0
3870
3870
3870
3870
3870
3870
3870
38F0
3F78
1E7C
0180
0300
03C0
ENDCHAR
STARTCHAR Wcircumflex
ENCODING 372
SWIDTH 955 0
DWIDTH 19 0
BBX 19 19 0 0
BITMAP
01C000
036000
063000
000000
FC61E0
7060C0
787080
387080
38F080
3CF100
1CB900
1D3900
1D3A00
1F1E00
0E1E00
0E1C00
0E0C00
040C00
040C00
ENDCHAR
STARTCHAR wcircumflex
ENCODING 373
SWIDTH 880 0
DWIDTH 18 0
BBX 18 15 0 0
BITMAP
01C000
036000
063000
000000
FC63C0
706180
38F100
38F100
39F200
1D3A00
1D3A00
1E3C00
0E1C00
0C1C00
040800
ENDCHAR
STARTCHAR Ycircumflex
ENCODING 374
SWIDTH 717 0
DWIDTH 14 0
BBX 15 19 0 0
BITMAP
0700
0D80
18C0
0000
FE1E
780C
3C08
1C10
1E30
0F20
0740
07C0
0380
0380
0380
0380
0380
0380
0FE0
ENDCHAR
STARTCHAR ycircumflex
ENCODING 375
SWIDTH 654 0
DWIDTH 13 0
BBX 13 19 0 -4
BITMAP
0E00
1B00
3180
0000
FC78
7830
3820
3C40
1C40
1C80
0E80
0F00
0700
0600
0600
0400
0C00
1800
3800
ENDCHAR
STARTCHAR Ydieresis
ENCODING 376
SWIDTH 717 0
DWIDTH 14 0
BBX 15 18 0 0
BITMAP
0CC0
0CC0
0000
FE1E
780C
3C08
1C10
1E30
0F20
0740
07C0
0380
0380
0380
0380
0380
0380
0FE0
ENDCHAR
STARTCHAR Zacute
ENCODING 377
SWIDTH 639 0
DWIDTH 13 0
BBX 11 19 1 0
BITMAP
01C0
0300
0600
0000
7FE0
41E0
41C0
03C0
0380
0700
0F00
0E00
1E00
1C00
3800
7800
7020
F060
FFE0
ENDCHAR
STARTCHAR zacute
ENCODING 378
SWIDTH 584 0
DWIDTH 12 0
BBX 10 15 1 0
BITMAP
0380
0600
0C00
0000
FFC0
C3C0
8780
0700
0E00
1E00
3C00
3800
7840
F0C0
FFC0
ENDCHAR
STARTCHAR Zdotaccent
ENCODING 379
SWIDTH 639 0
DWIDTH 13 0
BBX 11 19 1 0
BITMAP
0600
0600
0600
0000
7FE0
41E0
41C0
03C0
0380
0700
0F00
0E00
1E00
1C00
3800
7800
7020
F060
FFE0
ENDCHAR
STARTCHAR zdotaccent
ENCODING 380
SWIDTH 584 0
DWIDTH 12 0
BBX 10 15 1 0
BITMAP
0C00
0C00
0C00
0000
FFC0
C3C0
8780
0700
0E00
1E00
3C00
3800
7840
F0C0
FFC0
ENDCHAR
STARTCHAR Zcaron
ENCODING 381
SWIDTH 639 0
DWIDTH 13 0
BBX 11 19 1 0
BITMAP
3180
1B00
0E00
0000
7FE0
41E0
41C0
03C0
0380
0700
0F00
0E00
1E00
1C00
3800
7800
7020
F060
FFE0
ENDCHAR
STARTCHAR zcaron
ENCODING 382
SWIDTH 584 0
DWIDTH 12 0
BBX 10 15 1 0
BITMAP
3180
1B00
0E00
0000
FFC0
C3C0
8780
0700
0E00
1E00
3C00
3800
7840
F0C0
FFC0
ENDCHAR
STARTCHAR uni0186
ENCODING 390
SWIDTH 711 0
DWIDTH 14 0
BBX 13 15 1 0
BITMAP
7F00
81C0
00E0
0070
0038
0038
0038
0038
0038
0038
0038
8070
80E0
C1C0
7F00
ENDCHAR
STARTCHAR uni0189
ENCODING 393
SWIDTH 794 0
DWIDTH 16 0
BBX 15 15 0 0
BITMAP
FFE0
3878
381C
381C
380E
380E
380E
FF0E
380E
380E
380C
381C
3818
3838
FFE0
ENDCHAR
STARTCHAR uni018E
ENCODING 398
SWIDTH 601 0
DWIDTH 12 0
BBX 12 15 0 0
BITMAP
FFF0
C1C0
81C0
01C0
01C0
01C0
21C0
3FC0
21C0
01C0
01C0
01C0
41C0
41C0
7FF0
ENDCHAR
STARTCHAR florin
ENCODING 402
SWIDTH 623 0
DWIDTH 12 0
BBX 10 18 2 -3
BITMAP
03C0
0E40
0C40
1C00
1C00
3800
3800
7E00
3800
3800
7000
7000
7000
7000
7000
E000
E000
E000
ENDCHAR
STARTCHAR uni0197
ENCODING 407
SWIDTH 349 0
DWIDTH 7 0
BBX 7 15 0 0
BITMAP
FE
38
38
38
38
38
38
FE
38
38
38
38
38
38
FE
ENDCHAR
STARTCHAR uni019A
ENCODING 410
SWIDTH 325 0
DWIDTH 7 0
BBX 7 15 0 0
BITMAP
F8
38
38
38
38
38
38
FE
38
38
38
38
38
38
FE
ENDCHAR
STARTCHAR uni019D
ENCODING 413
SWIDTH 788 0
DWIDTH 16 0
BBX 17 19 -2 -4
BITMAP
3C0F80
0E0200
0F0200
0F0200
0F8200
0BC200
09E200
08E200
08F200
087A00
0E3A00
0E3E00
0E1E00
0E0E00
0E0600
0E0000
8E0000
8E0000
FC0000
ENDCHAR
STARTCHAR uni019F
ENCODING 415
SWIDTH 810 0
DWIDTH 16 0
BBX 15 15 1 0
BITMAP
0FE0
1C70
3018
701C
E00E
E00E
E00E
FFFE
E00E
E00E
E00E
701C
3018
1C70
0FE0
ENDCHAR
STARTCHAR Ohorn
ENCODING 416
SWIDTH 810 0
DWIDTH 16 0
BBX 17 15 1 0
BITMAP
0FE380
1C7380
301B80
701D80
E00F80
E00F00
E00E00
E00E00
E00E00
E00E00
E00E00
701C00
301800
1C7000
0FE000
ENDCHAR
STARTCHAR ohorn
ENCODING 417
SWIDTH 617 0
DWIDTH 12 0
BBX 13 11 1 0
BITMAP
1F38
71F8
71F8
E0F8
E0F8
E0F0
E0E0
E0E0
71C0
31C0
1F00
ENDCHAR
STARTCHAR uni01A7
ENCODING 423
SWIDTH 556 0
DWIDTH 11 0
BBX 10 15 1 0
BITMAP
3F00
6380
41C0
41C0
01C0
07C0
1F80
3F00
7C00
F000
E000
E040
E040
70C0
1F80
ENDCHAR
STARTCHAR uni01A8
ENCODING 424
SWIDTH 525 0
DWIDTH 10 0
BBX 9 11 1 0
BITMAP
7E00
4700
4380
0780
1F80
7F00
FC00
F080
E080
7180
3F00
ENDCHAR
STARTCHAR uni01AE
ENCODING 430
SWIDTH 714 0
DWIDTH 14 0
BBX 13 19 1 -4
BITMAP
FFF8
C708
8708
0700
0700
0700
0700
0700
0700
0700
0700
0700
0700
0700
0700
0700
0710
0710
03F0
ENDCHAR
STARTCHAR Uhorn
ENCODING 431
SWIDTH 747 0
DWIDTH 15 0
BBX 17 15 0 0
BITMAP
FE3F80
380B80
380B80
380980
380980
380B00
380800
380800
380800
380800
380800
380800
1C1000
1C1000
07E000
ENDCHAR
STARTCHAR uhorn
ENCODING 432
SWIDTH 654 0
DWIDTH 13 0
BBX 16 11 0 0
BITMAP
F9F7
3877
3877
3873
3873
3876
3870
3870
38F0
3F78
1E7C
ENDCHAR
STARTCHAR uni01B5
ENCODING 437
SWIDTH 639 0
DWIDTH 13 0
BBX 11 15 1 0
BITMAP
7FE0
41E0
41C0
03C0
0380
0700
0F00
3F80
1E00
1C00
3800
7800
7020
F060
FFE0
ENDCHAR
STARTCHAR uni01B6
ENCODING 438
SWIDTH 584 0
DWIDTH 12 0
BBX 10 11 1 0
BITMAP
FFC0
C3C0
8780
0700
0E00
3F80
3C00
3800
7840
F0C0
FFC0
ENDCHAR
STARTCHAR uni01BB
ENCODING 443
SWIDTH 623 0
DWIDTH 12 0
BBX 10 15 1 0
BITMAP
7F00
C380
C1C0
81C0
01C0
01C0
0380
FFC0
0400
1800
3000
6000
7FC0
FFC0
FFC0
ENDCHAR
STARTCHAR uni01BC
ENCODING 444
SWIDTH 623 0
DWIDTH 12 0
BBX 9 15 2 0
BITMAP
FF80
FF80
8000
8000
8000
8000
FC00
0F00
0780
0380
0380
0380
8380
8700
FC00
ENDCHAR
STARTCHAR uni01C0
ENCODING 448
SWIDTH 259 0
DWIDTH 5 0
BBX 1 18 2 -3
BITMAP
80
80
80
80
80
80
80
80
80
80
80
80
80
80
80
80
80
80
ENDCHAR
STARTCHAR uni01C2
ENCODING 450
SWIDTH 623 0
DWIDTH 12 0
BBX 12 18 0 -3
BITMAP
0200
0200
0200
0200
0200
0200
FFF0
0200
0200
0200
0200
FFF0
0200
0200
0200
0200
0200
0200
ENDCHAR
STARTCHAR uni01C3
ENCODING 451
SWIDTH 265 0
DWIDTH 5 0
BBX 3 15 1 0
BITMAP
E0
E0
E0
E0
E0
E0
E0
40
40
40
40
00
E0
E0
E0
ENDCHAR
STARTCHAR uni01CD
ENCODING 461
SWIDTH 795 0
DWIDTH 16 0
BBX 16 19 0 0
BITMAP
0630
0360
01C0
0000
0180
0180
03C0
03C0
07E0
04E0
04F0
0870
0870
1FF8
1038
201C
201C
601E
F03F
ENDCHAR
STARTCHAR uni01CE
ENCODING 462
SWIDTH 556 0
DWIDTH 11 0
BBX 10 15 1 0
BITMAP
6300
3600
1C00
0000
3E00
6300
4380
0380
0380
3F80
F380
E380
E380
E380
7DC0
ENDCHAR
STARTCHAR uni01CF
ENCODING 463
SWIDTH 349 0
DWIDTH 7 0
BBX 7 19 0 0
BITMAP
C6
6C
38
00
FE
38
38
38
38
38
38
38
38
38
38
38
38
38
FE
ENDCHAR
STARTCHAR uni01D0
ENCODING 464
SWIDTH 325 0
DWIDTH 7 0
BBX 7 15 0 0
BITMAP
C6
6C
38
00
F8
38
38
38
38
38
38
38
38
38
FE
ENDCHAR
STARTCHAR uni01D1
ENCODING 465
SWIDTH 810 0
DWIDTH 16 0
BBX 15 19 1 0
BITMAP
0C60
06C0
0380
0000
0FE0
1C70
3018
701C
E00E
E00E
E00E
E00E
E00E
E00E
E00E
701C
3018
1C70
0FE0
ENDCHAR
STARTCHAR uni01D2
ENCODING 466
SWIDTH 617 0
DWIDTH 12 0
BBX 11 15 1 0
BITMAP
3180
1B00
0E00
0000
1F00
71C0
71C0
E0E0
E0E0
E0E0
E0E0
E0E0
71C0
31C0
1F00
ENDCHAR
STARTCHAR uni01D3
ENCODING 467
SWIDTH 747 0
DWIDTH 15 0
BBX 15 19 0 0
BITMAP
18C0
0D80
0700
0000
FE3E
3808
3808
3808
3808
3808
3808
3808
3808
3808
3808
3808
1C10
1C10
07E0
ENDCHAR
STARTCHAR uni01D4
ENCODING 468
SWIDTH 654 0
DWIDTH 13 0
BBX 14 15 0 0
BITMAP
18C0
0D80
0700
0000
F9F0
3870
3870
3870
3870
3870
3870
3870
38F0
3F78
1E7C
ENDCHAR
STARTCHAR uni01D5
ENCODING 469
SWIDTH 747 0
DWIDTH 15 0
BBX 15 20 0 0
BITMAP
0FC0
0000
0CC0
0CC0
0000
FE3E
3808
3808
3808
3808
3808
3808
3808
3808
3808
3808
3808
1C10
1C10
07E0
ENDCHAR
STARTCHAR uni01D6
ENCODING 470
SWIDTH 654 0
DWIDTH 13 0
BBX 14 16 0 0
BITMAP
0FC0
0000
0CC0
0CC0
0000
F9F0
3870
3870
3870
3870
3870
3870
3870
38F0
3F78
1E7C
ENDCHAR
STARTCHAR uni01D7
ENCODING 471
SWIDTH 747 0
DWIDTH 15 0
BBX 15 22 0 0
BITMAP
00E0
0180
0300
0000
0CC0
0CC0
0000
FE3E
3808
3808
3808
3808
3808
3808
3808
3808
3808
3808
3808
1C10
1C10
07E0
ENDCHAR
STARTCHAR uni01D8
ENCODING 472
SWIDTH 654 0
DWIDTH 13 0
BBX 14 18 0 0
BITMAP
01C0
0300
0600
0000
0CC0
0CC0
0000
F9F0
3870
3870
3870
3870
3870
3870
3870
38F0
3F78
1E7C
ENDCHAR
STARTCHAR uni01D9
ENCODING 473
SWIDTH 747 0
DWIDTH 15 0
BBX 15 22 0 0
BITMAP
0C60
06C0
0380
0000
0CC0
0CC0
0000
FE3E
3808
3808
3808
3808
3808
3808
3808
3808
3808
3808
3808
1C10
1C10
07E0
ENDCHAR
STARTCHAR uni01DA
ENCODING 474
SWIDTH 654 0
DWIDTH 13 0
BBX 14 18 0 0
BITMAP
18C0
0D80
0700
0000
0CC0
0CC0
0000
F9F0
3870
3870
3870
3870
3870
3870
3870
38F0
3F78
1E7C
ENDCHAR
STARTCHAR uni01DB
ENCODING 475
SWIDTH 747 0
DWIDTH 15 0
BBX 15 22 0 0
BITMAP
0E00
0300
0180
0000
0CC0
0CC0
0000
FE3E
3808
3808
3808
3808
3808
3808
3808
3808
3808
3808
3808
1C10
1C10
07E0
ENDCHAR
STARTCHAR uni01DC
ENCODING 476
SWIDTH 654 0
DWIDTH 13 0
BBX 14 18 0 0
BITMAP
1C00
0600
0300
0000
0CC0
0CC0
0000
F9F0
3870
3870
3870
3870
3870
3870
3870
38F0
3F78
1E7C
ENDCHAR
STARTCHAR uni01DD
ENCODING 477
SWIDTH 568 0
DWIDTH 11 0
BBX 10 11 0 0
BITMAP
FE00
8700
0380
01C0
01C0
FFC0
E1C0
E1C0
6180
7380
3E00
ENDCHAR
STARTCHAR uni01DE
ENCODING 478
SWIDTH 795 0
DWIDTH 16 0
BBX 16 20 0 0
BITMAP
07E0
0000
0660
0660
0000
0180
0180
03C0
03C0
07E0
04E0
04F0
0870
0870
1FF8
1038
201C
201C
601E
F03F
ENDCHAR
STARTCHAR uni01DF
ENCODING 479
SWIDTH 556 0
DWIDTH 11 0
BBX 10 16 1 0
BITMAP
3F00
0000
3300
3300
0000
3E00
6300
4380
0380
0380
3F80
F380
E380
E380
E380
7DC0
ENDCHAR
STARTCHAR uni01E0
ENCODING 480
SWIDTH 795 0
DWIDTH 16 0
BBX 16 21 0 0
BITMAP
07E0
0000
0180
0180
0180
0000
0180
0180
03C0
03C0
07E0
04E0
04F0
0870
0870
1FF8
1038
201C
201C
601E
F03F
ENDCHAR
STARTCHAR uni01E1
ENCODING 481
SWIDTH 556 0
DWIDTH 11 0
BBX 10 17 1 0
BITMAP
3F00
0000
0C00
0C00
0C00
0000
3E00
6300
4380
0380
0380
3F80
F380
E380
E380
E380
7DC0
ENDCHAR
STARTCHAR uni01E2
ENCODING 482
SWIDTH 959 0
DWIDTH 19 0
BBX 19 17 0 0
BITMAP
007E00
000000
007FE0
007820
00B820
00B800
013800
023800
023840
043FC0
043840
083800
1FF800
103800
203820
403820
F0FFE0
ENDCHAR
STARTCHAR uni01E3
ENCODING 483
SWIDTH 858 0
DWIDTH 17 0
BBX 16 13 0 0
BITMAP
07E0
0000
3E7C
63CE
4386
0387
0387
3FFF
F380
E380
E3C0
F3E1
7C7F
ENDCHAR
STARTCHAR uni01E4
ENCODING 484
SWIDTH 753 0
DWIDTH 15 0
BBX 16 15 1 0
BITMAP
0FE0
1C30
3010
7010
E000
E000
E000
E000
E1FC
E070
E07F
7070
7070
3870
0FE0
ENDCHAR
STARTCHAR uni01E5
ENCODING 485
SWIDTH 599 0
DWIDTH 12 0
BBX 12 15 0 -4
BITMAP
1FF0
31A0
71C0
71C0
71C0
3180
1F00
1000
3000
7FC0
1FE0
FFF0
E0E0
F1C0
3F00
ENDCHAR
STARTCHAR Gcaron
ENCODING 486
SWIDTH 753 0
DWIDTH 15 0
BBX 14 19 1 0
BITMAP
18C0
0D80
0700
0000
0FE0
1C30
3010
7010
E000
E000
E000
E000
E1FC
E070
E070
7070
7070
3870
0FE0
ENDCHAR
STARTCHAR gcaron
ENCODING 487
SWIDTH 599 0
DWIDTH 12 0
BBX 12 19 0 -4
BITMAP
18C0
0D80
0700
0000
1FF0
31A0
71C0
71C0
71C0
3180
1F00
1000
3000
7FC0
1FE0
E0E0
E0E0
F1C0
3F00
ENDCHAR
STARTCHAR uni01E8
ENCODING 488
SWIDTH 747 0
DWIDTH 15 0
BBX 15 19 0 0
BITMAP
18C0
0D80
0700
0000
FC3C
3830
3820
3840
3880
3900
3B00
3F00
3F80
3BC0
39E0
38F0
3878
387C
FCFE
ENDCHAR
STARTCHAR uni01E9
ENCODING 489
SWIDTH 654 0
DWIDTH 12 0
BBX 13 19 0 0
BITMAP
6300
3600
1C00
0000
F800
3800
3800
3800
38F0
3860
3880
3900
3B00
3F80
3B80
3BC0
39E0
38F0
FCF8
ENDCHAR
STARTCHAR uni01EA
ENCODING 490
SWIDTH 810 0
DWIDTH 16 0
BBX 15 18 1 -3
BITMAP
0FE0
1C70
3018
701C
E00E
E00E
E00E
E00E
E00E
E00E
E00E
701C
3018
1C70
0FE0
0180
0300
03C0
ENDCHAR
STARTCHAR uni01EB
ENCODING 491
SWIDTH 617 0
DWIDTH 12 0
BBX 11 14 1 -3
BITMAP
1F00
71C0
71C0
E0E0
E0E0
E0E0
E0E0
E0E0
71C0
31C0
1F00
0600
0C00
0F00
ENDCHAR
STARTCHAR uni01EC
ENCODING 492
SWIDTH 810 0
DWIDTH 16 0
BBX 15 20 1 -3
BITMAP
07E0
0000
0FE0
1C70
3018
701C
E00E
E00E
E00E
E00E
E00E
E00E
E00E
701C
3018
1C70
0FE0
0180
0300
03C0
ENDCHAR
STARTCHAR uni01ED
ENCODING 493
SWIDTH 617 0
DWIDTH 12 0
BBX 11 16 1 -3
BITMAP
1F80
0000
1F00
71C0
71C0
E0E0
E0E0
E0E0
E0E0
E0E0
71C0
31C0
1F00
0600
0C00
0F00
ENDCHAR
STARTCHAR uni01F0
ENCODING 496
SWIDTH 355 0
DWIDTH 7 0
BBX 8 19 0 -4
BITMAP
63
36
1C
00
3E
0E
0E
0E
0E
0E
0E
0E
0E
0E
0E
0E
8E
8E
FC
ENDCHAR
STARTCHAR uni01F4
ENCODING 500
SWIDTH 753 0
DWIDTH 15 0
BBX 14 19 1 0
BITMAP
01C0
0300
0600
0000
0FE0
1C30
3010
7010
E000
E000
E000
E000
E1FC
E070
E070
7070
7070
3870
0FE0
ENDCHAR
STARTCHAR uni01F5
ENCODING 501
SWIDTH 599 0
DWIDTH 12 0
BBX 12 19 0 -4
BITMAP
01C0
0300
0600
0000
1FF0
31A0
71C0
71C0
71C0
3180
1F00
1000
3000
7FC0
1FE0
E0E0
E0E0
F1C0
3F00
ENDCHAR
STARTCHAR uni01F8
ENCODING 504
SWIDTH 788 0
DWIDTH 16 0
BBX 15 19 0 0
BITMAP
1C00
0600
0300
0000
F03E
3808
3C08
3C08
3E08
2F08
2788
2388
23C8
21E8
20E8
20F8
2078
2038
F818
ENDCHAR
STARTCHAR uni01F9
ENCODING 505
SWIDTH 654 0
DWIDTH 13 0
BBX 14 15 0 0
BITMAP
1C00
0600
0300
0000
F9E0
7BF0
3C70
3870
3870
3870
3870
3870
3870
3870
FFFC
ENDCHAR
STARTCHAR Aringacute
ENCODING 506
SWIDTH 795 0
DWIDTH 16 0
BBX 16 23 0 0
BITMAP
00E0
0180
0300
0000
0380
0280
0380
0000
0180
0180
03C0
03C0
07E0
04E0
04F0
0870
0870
1FF8
1038
201C
201C
601E
F03F
ENDCHAR
STARTCHAR aringacute
ENCODING 507
SWIDTH 556 0
DWIDTH 11 0
BBX 10 19 1 0
BITMAP
0700
0C00
1800
0000
1C00
1400
1C00
0000
3E00
6300
4380
0380
0380
3F80
F380
E380
E380
E380
7DC0
ENDCHAR
STARTCHAR AEacute
ENCODING 508
SWIDTH 959 0
DWIDTH 19 0
BBX 19 19 0 0
BITMAP
000E00
001800
003000
000000
007FE0
007820
00B820
00B800
013800
023800
023840
043FC0
043840
083800
1FF800
103800
203820
403820
F0FFE0
ENDCHAR
STARTCHAR aeacute
ENCODING 509
SWIDTH 858 0
DWIDTH 17 0
BBX 16 15 0 0
BITMAP
0070
00C0
0180
0000
3E7C
63CE
4386
0387
0387
3FFF
F380
E380
E3C0
F3E1
7C7F
ENDCHAR
STARTCHAR Oslashacute
ENCODING 510
SWIDTH 810 0
DWIDTH 16 0
BBX 15 19 1 0
BITMAP
0070
00C0
0180
0000
0FE6
1C3C
301C
701C
E02E
E04E
E08E
E10E
E20E
E40E
E80E
701C
7018
7870
C7E0
ENDCHAR
STARTCHAR oslashacute
ENCODING 511
SWIDTH 617 0
DWIDTH 12 0
BBX 13 15 0 0
BITMAP
00E0
0180
0300
0000
0F98
18E0
38E0
70F0
7170
7270
7470
7870
38E0
38C0
CF80
ENDCHAR
STARTCHAR uni0200
ENCODING 512
SWIDTH 795 0
DWIDTH 16 0
BBX 16 19 0 0
BITMAP
0D80
02C0
0120
0000
0180
0180
03C0
03C0
07E0
04E0
04F0
0870
0870
1FF8
1038
201C
201C
601E
F03F
ENDCHAR
STARTCHAR uni0201
ENCODING 513
SWIDTH 556 0
DWIDTH 11 0
BBX 10 15 1 0
BITMAP
D800
2C00
1200
0000
3E00
6300
4380
0380
0380
3F80
F380
E380
E380
E380
7DC0
ENDCHAR
STARTCHAR uni0202
ENCODING 514
SWIDTH 795 0
DWIDTH 16 0
BBX 16 19 0 0
BITMAP
01C0
03E0
0410
0000
0180
0180
03C0
03C0
07E0
04E0
04F0
0870
0870
1FF8
1038
201C
201C
601E
F03F
ENDCHAR
STARTCHAR uni0203
ENCODING 515
SWIDTH 556 0
DWIDTH 11 0
BBX 10 15 1 0
BITMAP
1C00
3E00
4100
0000
3E00
6300
4380
0380
0380
3F80
F380
E380
E380
E380
7DC0
ENDCHAR
STARTCHAR uni0204
ENCODING 516
SWIDTH 601 0
DWIDTH 12 0
BBX 12 19 0 0
BITMAP
6C00
1600
0900
0000
FFE0
3820
3820
3800
3800
3800
3840
3FC0
3840
3800
3800
3800
3810
3830
FFF0
ENDCHAR
STARTCHAR uni0205
ENCODING 517
SWIDTH 568 0
DWIDTH 11 0
BBX 10 15 0 0
BITMAP
6C00
1600
0900
0000
1F00
7380
6180
E1C0
E1C0
FFC0
E000
E000
7000
3840
1FC0
ENDCHAR
STARTCHAR uni0206
ENCODING 518
SWIDTH 601 0
DWIDTH 12 0
BBX 12 19 0 0
BITMAP
0E00
1F00
2080
0000
FFE0
3820
3820
3800
3800
3800
3840
3FC0
3840
3800
3800
3800
3810
3830
FFF0
ENDCHAR
STARTCHAR uni0207
ENCODING 519
SWIDTH 568 0
DWIDTH 11 0
BBX 10 15 0 0
BITMAP
0E00
1F00
2080
0000
1F00
7380
6180
E1C0
E1C0
FFC0
E000
E000
7000
3840
1FC0
ENDCHAR
STARTCHAR uni0208
ENCODING 520
SWIDTH 349 0
DWIDTH 7 0
BBX 8 19 -1 0
BITMAP
D8
2C
12
00
7F
1C
1C
1C
1C
1C
1C
1C
1C
1C
1C
1C
1C
1C
7F
ENDCHAR
STARTCHAR uni0209
ENCODING 521
SWIDTH 325 0
DWIDTH 7 0
BBX 8 15 -1 0
BITMAP
D8
2C
12
00
7C
1C
1C
1C
1C
1C
1C
1C
1C
1C
7F
ENDCHAR
STARTCHAR uni020A
ENCODING 522
SWIDTH 349 0
DWIDTH 7 0
BBX 7 19 0 0
BITMAP
38
7C
82
00
FE
38
38
38
38
38
38
38
38
38
38
38
38
38
FE
ENDCHAR
STARTCHAR uni020B
ENCODING 523
SWIDTH 325 0
DWIDTH 7 0
BBX 7 15 0 0
BITMAP
38
7C
82
00
F8
38
38
38
38
38
38
38
38
38
FE
ENDCHAR
STARTCHAR uni020C
ENCODING 524
SWIDTH 810 0
DWIDTH 16 0
BBX 15 19 1 0
BITMAP
1B00
0580
0240
0000
0FE0
1C70
3018
701C
E00E
E00E
E00E
E00E
E00E
E00E
E00E
701C
3018
1C70
0FE0
ENDCHAR
STARTCHAR uni020D
ENCODING 525
SWIDTH 617 0
DWIDTH 12 0
BBX 11 15 1 0
BITMAP
6C00
1600
0900
0000
1F00
71C0
71C0
E0E0
E0E0
E0E0
E0E0
E0E0
71C0
31C0
1F00
ENDCHAR
STARTCHAR uni020E
ENCODING 526
SWIDTH 810 0
DWIDTH 16 0
BBX 15 19 1 0
BITMAP
0380
07C0
0820
0000
0FE0
1C70
3018
701C
E00E
E00E
E00E
E00E
E00E
E00E
E00E
701C
3018
1C70
0FE0
ENDCHAR
STARTCHAR uni020F
ENCODING 527
SWIDTH 617 0
DWIDTH 12 0
BBX 11 15 1 0
BITMAP
0E00
1F00
2080
0000
1F00
71C0
71C0
E0E0
E0E0
E0E0
E0E0
E0E0
71C0
31C0
1F00
ENDCHAR
STARTCHAR uni0210
ENCODING 528
SWIDTH 720 0
DWIDTH 14 0
BBX 15 19 0 0
BITMAP
3600
0B00
0480
0000
FFC0
38E0
3870
3870
3870
3870
39E0
3FC0
3BC0
39E0
38E0
38F0
3878
387C
FC3E
ENDCHAR
STARTCHAR uni0211
ENCODING 529
SWIDTH 462 0
DWIDTH 9 0
BBX 9 15 0 0
BITMAP
D800
2C00
1200
0000
F980
3F80
3C80
3800
3800
3800
3800
3800
3800
3800
FE00
ENDCHAR
STARTCHAR uni0212
ENCODING 530
SWIDTH 720 0
DWIDTH 14 0
BBX 15 19 0 0
BITMAP
0700
0F80
1040
0000
FFC0
38E0
3870
3870
3870
3870
39E0
3FC0
3BC0
39E0
38E0
38F0
3878
387C
FC3E
ENDCHAR
STARTCHAR uni0213
ENCODING 531
SWIDTH 462 0
DWIDTH 9 0
BBX 9 15 0 0
BITMAP
1C00
3E00
4100
0000
F980
3F80
3C80
3800
3800
3800
3800
3800
3800
3800
FE00
ENDCHAR
STARTCHAR uni0214
ENCODING 532
SWIDTH 747 0
DWIDTH 15 0
BBX 15 19 0 0
BITMAP
3600
0B00
0480
0000
FE3E
3808
3808
3808
3808
3808
3808
3808
3808
3808
3808
3808
1C10
1C10
07E0
ENDCHAR
STARTCHAR uni0215
ENCODING 533
SWIDTH 654 0
DWIDTH 13 0
BBX 14 15 0 0
BITMAP
3600
0B00
0480
0000
F9F0
3870
3870
3870
3870
3870
3870
3870
38F0
3F78
1E7C
ENDCHAR
STARTCHAR uni0216
ENCODING 534
SWIDTH 747 0
DWIDTH 15 0
BBX 15 19 0 0
BITMAP
0700
0F80
1040
0000
FE3E
3808
3808
3808
3808
3808
3808
3808
3808
3808
3808
3808
1C10
1C10
07E0
ENDCHAR
STARTCHAR uni0217
ENCODING 535
SWIDTH 654 0
DWIDTH 13 0
BBX 14 15 0 0
BITMAP
0700
0F80
1040
0000
F9F0
3870
3870
3870
3870
3870
3870
3870
38F0
3F78
1E7C
ENDCHAR
STARTCHAR Scommaaccent
ENCODING 536
SWIDTH 556 0
DWIDTH 11 0
BBX 10 23 1 -8
BITMAP
3F00
7180
E080
E080
E000
F800
7E00
3F00
0F80
03C0
01C0
81C0
81C0
C380
7E00
0000
0E00
0E00
0E00
0E00
0600
0600
0C00
ENDCHAR
STARTCHAR scommaaccent
ENCODING 537
SWIDTH 525 0
DWIDTH 10 0
BBX 9 19 1 -8
BITMAP
3F00
7100
E100
F000
FC00
7F00
1F80
8780
8380
C700
7E00
0000
1C00
1C00
1C00
1C00
0C00
0C00
1800
ENDCHAR
STARTCHAR Tcommaaccent
ENCODING 538
SWIDTH 714 0
DWIDTH 14 0
BBX 13 23 1 -8
BITMAP
FFF8
C708
8708
0700
0700
0700
0700
0700
0700
0700
0700
0700
0700
0700
1FC0
0000
0700
0700
0700
0700
0300
0300
0600
ENDCHAR
STARTCHAR tcommaaccent
ENCODING 539
SWIDTH 389 0
DWIDTH 8 0
BBX 7 22 0 -8
BITMAP
30
70
70
FE
70
70
70
70
70
70
70
70
70
3E
00
38
38
38
38
18
18
30
ENDCHAR
STARTCHAR uni021E
ENCODING 542
SWIDTH 798 0
DWIDTH 16 0
BBX 16 19 0 0
BITMAP
0630
0360
01C0
0000
FE7F
381C
381C
381C
381C
381C
381C
3FFC
381C
381C
381C
381C
381C
381C
FE7F
ENDCHAR
STARTCHAR uni021F
ENCODING 543
SWIDTH 654 0
DWIDTH 13 0
BBX 14 19 0 0
BITMAP
6300
3600
1C00
0000
F800
3800
3800
3800
39E0
3BF0
3C70
3870
3870
3870
3870
3870
3870
3870
FFFC
ENDCHAR
STARTCHAR uni0226
ENCODING 550
SWIDTH 795 0
DWIDTH 16 0
BBX 16 19 0 0
BITMAP
0180
0180
0180
0000
0180
0180
03C0
03C0
07E0
04E0
04F0
0870
0870
1FF8
1038
201C
201C
601E
F03F
ENDCHAR
STARTCHAR uni0227
ENCODING 551
SWIDTH 556 0
DWIDTH 11 0
BBX 10 15 1 0
BITMAP
0C00
0C00
0C00
0000
3E00
6300
4380
0380
0380
3F80
F380
E380
E380
E380
7DC0
ENDCHAR
STARTCHAR uni0228
ENCODING 552
SWIDTH 601 0
DWIDTH 12 0
BBX 12 19 0 -4
BITMAP
FFE0
3820
3820
3800
3800
3800
3840
3FC0
3840
3800
3800
3800
3810
3830
FFF0
0600
0300
0300
0600
ENDCHAR
STARTCHAR uni0229
ENCODING 553
SWIDTH 568 0
DWIDTH 11 0
BBX 10 15 0 -4
BITMAP
1F00
7380
6180
E1C0
E1C0
FFC0
E000
E000
7000
3840
1FC0
0C00
0600
0600
0C00
ENDCHAR
STARTCHAR uni022A
ENCODING 554
SWIDTH 810 0
DWIDTH 16 0
BBX 15 20 1 0
BITMAP
0FC0
0000
0CC0
0CC0
0000
0FE0
1C70
3018
701C
E00E
E00E
E00E
E00E
E00E
E00E
E00E
701C
3018
1C70
0FE0
ENDCHAR
STARTCHAR uni022B
ENCODING 555
SWIDTH 617 0
DWIDTH 12 0
BBX 11 16 1 0
BITMAP
1F80
0000
1980
1980
0000
1F00
71C0
71C0
E0E0
E0E0
E0E0
E0E0
E0E0
71C0
31C0
1F00
ENDCHAR
STARTCHAR uni022C
ENCODING 556
SWIDTH 810 0
DWIDTH 16 0
BBX 15 21 1 0
BITMAP
07E0
0000
0720
0FE0
09C0
0000
0FE0
1C70
3018
701C
E00E
E00E
E00E
E00E
E00E
E00E
E00E
701C
3018
1C70
0FE0
ENDCHAR
STARTCHAR uni022D
ENCODING 557
SWIDTH 617 0
DWIDTH 12 0
BBX 11 17 1 0
BITMAP
1F80
0000
1C80
3F80
2700
0000
1F00
71C0
71C0
E0E0
E0E0
E0E0
E0E0
E0E0
71C0
31C0
1F00
ENDCHAR
STARTCHAR uni022E
ENCODING 558
SWIDTH 810 0
DWIDTH 16 0
BBX 15 19 1 0
BITMAP
0180
0180
0180
0000
0FE0
1C70
3018
701C
E00E
E00E
E00E
E00E
E00E
E00E
E00E
701C
3018
1C70
0FE0
ENDCHAR
STARTCHAR uni022F
ENCODING 559
SWIDTH 617 0
DWIDTH 12 0
BBX 11 15 1 0
BITMAP
0600
0600
0600
0000
1F00
71C0
71C0
E0E0
E0E0
E0E0
E0E0
E0E0
71C0
31C0
1F00
ENDCHAR
STARTCHAR uni0230
ENCODING 560
SWIDTH 810 0
DWIDTH 16 0
BBX 15 21 1 0
BITMAP
07E0
0000
0180
0180
0180
0000
0FE0
1C70
3018
701C
E00E
E00E
E00E
E00E
E00E
E00E
E00E
701C
3018
1C70
0FE0
ENDCHAR
STARTCHAR uni0231
ENCODING 561
SWIDTH 617 0
DWIDTH 12 0
BBX 11 17 1 0
BITMAP
1F80
0000
0600
0600
0600
0000
1F00
71C0
71C0
E0E0
E0E0
E0E0
E0E0
E0E0
71C0
31C0
1F00
ENDCHAR
STARTCHAR uni0232
ENCODING 562
SWIDTH 717 0
DWIDTH 14 0
BBX 15 17 0 0
BITMAP
0FC0
0000
FE1E
780C
3C08
1C10
1E30
0F20
0740
07C0
0380
0380
0380
0380
0380
0380
0FE0
ENDCHAR
STARTCHAR uni0233
ENCODING 563
SWIDTH 654 0
DWIDTH 13 0
BBX 13 17 0 -4
BITMAP
1F80
0000
FC78
7830
3820
3C40
1C40
1C80
0E80
0F00
0700
0600
0600
0400
0C00
1800
3800
ENDCHAR
STARTCHAR uni0250
ENCODING 592
SWIDTH 556 0
DWIDTH 11 0
BBX 10 11 1 0
BITMAP
EF80
71C0
71C0
71C0
73C0
7F00
7000
7000
7080
3180
1F00
ENDCHAR
STARTCHAR uni0254
ENCODING 596
SWIDTH 541 0
DWIDTH 11 0
BBX 9 11 1 0
BITMAP
FC00
8700
8300
0380
0380
0380
0380
0380
0700
8E00
FC00
ENDCHAR
STARTCHAR uni0258
ENCODING 600
SWIDTH 568 0
DWIDTH 11 0
BBX 10 11 0 0
BITMAP
3E00
7380
6180
E1C0
E1C0
FFC0
01C0
01C0
0380
8700
FE00
ENDCHAR
STARTCHAR uni0259
ENCODING 601
SWIDTH 568 0
DWIDTH 11 0
BBX 10 11 0 0
BITMAP
FE00
8700
0380
01C0
01C0
FFC0
E1C0
E1C0
6180
7380
3E00
ENDCHAR
STARTCHAR uni025F
ENCODING 607
SWIDTH 416 0
DWIDTH 8 0
BBX 9 15 0 -4
BITMAP
3F80
0E00
0E00
0E00
0E00
0E00
0E00
0E00
0E00
0E00
7F80
0E00
8E00
8E00
FC00
ENDCHAR
STARTCHAR uni0265
ENCODING 613
SWIDTH 654 0
DWIDTH 13 0
BBX 14 15 0 -4
BITMAP
FFFC
3870
3870
3870
3870
3870
3870
3870
38F0
3F70
1E70
0070
0070
0070
007C
ENDCHAR
STARTCHAR uni0275
ENCODING 629
SWIDTH 617 0
DWIDTH 12 0
BBX 11 11 1 0
BITMAP
1F00
71C0
71C0
E0E0
E0E0
FFE0
E0E0
E0E0
71C0
31C0
1F00
ENDCHAR
STARTCHAR uni0279
ENCODING 633
SWIDTH 462 0
DWIDTH 9 0
BBX 9 11 0 0
BITMAP
3F80
0E00
0E00
0E00
0E00
0E00
0E00
0E00
9E00
FE00
CF80
ENDCHAR
STARTCHAR uni0287
ENCODING 647
SWIDTH 389 0
DWIDTH 8 0
BBX 7 14 0 0
BITMAP
F8
1C
1C
1C
1C
1C
1C
1C
1C
1C
FE
1C
1C
18
ENDCHAR
STARTCHAR uni0288
ENCODING 648
SWIDTH 389 0
DWIDTH 8 0
BBX 8 18 0 -4
BITMAP
30
70
70
FE
70
70
70
70
70
70
70
70
70
70
70
71
71
3F
ENDCHAR
STARTCHAR uni0289
ENCODING 649
SWIDTH 654 0
DWIDTH 13 0
BBX 14 11 0 0
BITMAP
F9F0
3870
3870
3870
3870
FFFC
3870
3870
38F0
3F78
1E7C
ENDCHAR
STARTCHAR uni028C
ENCODING 652
SWIDTH 657 0
DWIDTH 13 0
BBX 13 11 0 0
BITMAP
0200
0700
0700
0F80
0B80
0BC0
11C0
11E0
20E0
60F0
F1F8
ENDCHAR
STARTCHAR uni028D
ENCODING 653
SWIDTH 880 0
DWIDTH 18 0
BBX 18 11 0 0
BITMAP
040800
0E0C00
0E1C00
0F1E00
172E00
172E00
13E700
23C700
23C700
618380
F18FC0
ENDCHAR
STARTCHAR uni028E
ENCODING 654
SWIDTH 654 0
DWIDTH 13 0
BBX 13 15 0 0
BITMAP
00E0
00C0
0180
0100
0300
0300
0700
0780
0B80
09C0
11C0
11E0
20E0
60F0
F1F8
ENDCHAR
STARTCHAR uni029E
ENCODING 670
SWIDTH 654 0
DWIDTH 12 0
BBX 13 15 0 -4
BITMAP
F9F8
78E0
3CE0
1EE0
0EE0
0FE0
06E0
04E0
08E0
30E0
78E0
00E0
00E0
00E0
00F8
ENDCHAR
STARTCHAR uni02BB
ENCODING 699
SWIDTH 265 0
DWIDTH 5 0
BBX 3 6 1 9
BITMAP
60
C0
C0
E0
E0
E0
ENDCHAR
STARTCHAR afii57929
ENCODING 700
SWIDTH 265 0
DWIDTH 5 0
BBX 3 6 1 9
BITMAP
E0
E0
E0
60
60
C0
ENDCHAR
STARTCHAR afii64937
ENCODING 701
SWIDTH 265 0
DWIDTH 5 0
BBX 3 6 1 9
BITMAP
E0
E0
E0
C0
C0
60
ENDCHAR
STARTCHAR circumflex
ENCODING 710
SWIDTH 617 0
DWIDTH 12 0
BBX 7 3 3 12
BITMAP
38
6C
C6
ENDCHAR
STARTCHAR caron
ENCODING 711
SWIDTH 617 0
DWIDTH 12 0
BBX 7 3 3 12
BITMAP
C6
6C
38
ENDCHAR
STARTCHAR uni02C8
ENCODING 712
SWIDTH 253 0
DWIDTH 5 0
BBX 3 6 1 9
BITMAP
E0
E0
E0
40
40
40
ENDCHAR
STARTCHAR macron
ENCODING 713
SWIDTH 617 0
DWIDTH 12 0
BBX 6 1 3 14
BITMAP
FC
ENDCHAR
STARTCHAR uni02CA
ENCODING 714
SWIDTH 617 0
DWIDTH 12 0
BBX 5 3 4 12
BITMAP
38
60
C0
ENDCHAR
STARTCHAR uni02CB
ENCODING 715
SWIDTH 617 0
DWIDTH 12 0
BBX 5 3 3 12
BITMAP
E0
30
18
ENDCHAR
STARTCHAR uni02CD
ENCODING 717
SWIDTH 617 0
DWIDTH 12 0
BBX 6 1 3 -2
BITMAP
FC
ENDCHAR
STARTCHAR uni02CE
ENCODING 718
SWIDTH 617 0
DWIDTH 12 0
BBX 5 3 3 -4
BITMAP
E0
30
18
ENDCHAR
STARTCHAR uni02CF
ENCODING 719
SWIDTH 617 0
DWIDTH 12 0
BBX 5 3 4 -4
BITMAP
38
60
C0
ENDCHAR
STARTCHAR breve
ENCODING 728
SWIDTH 617 0
DWIDTH 12 0
BBX 7 3 3 12
BITMAP
82
7C
38
ENDCHAR
STARTCHAR dotaccent
ENCODING 729
SWIDTH 617 0
DWIDTH 12 0
BBX 2 3 5 12
BITMAP
C0
C0
C0
ENDCHAR
STARTCHAR ring
ENCODING 730
SWIDTH 617 0
DWIDTH 12 0
BBX 3 3 5 12
BITMAP
E0
A0
E0
ENDCHAR
STARTCHAR ogonek
ENCODING 731
SWIDTH 617 0
DWIDTH 12 0
BBX 4 3 4 -3
BITMAP
60
C0
F0
ENDCHAR
STARTCHAR tilde
ENCODING 732
SWIDTH 617 0
DWIDTH 12 0
BBX 7 3 3 12
BITMAP
72
FE
9C
ENDCHAR
STARTCHAR hungarumlaut
ENCODING 733
SWIDTH 617 0
DWIDTH 12 0
BBX 7 3 4 12
BITMAP
36
68
90
ENDCHAR
STARTCHAR uni02EE
ENCODING 750
SWIDTH 470 0
DWIDTH 9 0
BBX 7 6 1 9
BITMAP
EE
EE
EE
66
44
88
ENDCHAR
STARTCHAR uni037E
ENCODING 894
SWIDTH 265 0
DWIDTH 5 0
BBX 3 14 1 -3
BITMAP
E0
E0
E0
00
00
00
00
00
E0
E0
E0
60
60
C0
ENDCHAR
STARTCHAR tonos
ENCODING 900
SWIDTH 617 0
DWIDTH 12 0
BBX 5 3 4 12
BITMAP
38
60
C0
ENDCHAR
STARTCHAR dieresistonos
ENCODING 901
SWIDTH 617 0
DWIDTH 12 0
BBX 7 6 3 13
BITMAP
0E
18
30
00
CC
CC
ENDCHAR
STARTCHAR anoteleia
ENCODING 903
SWIDTH 623 0
DWIDTH 12 0
BBX 2 3 5 5
BITMAP
C0
C0
C0
ENDCHAR
STARTCHAR mu
ENCODING 956
SWIDTH 705 0
DWIDTH 14 0
BBX 14 14 0 -3
BITMAP
F9F0
3870
3870
3870
3870
3870
3870
3870
38F0
3FF0
3E7C
3800
3800
3800
ENDCHAR
STARTCHAR uni1E00
ENCODING 7680
SWIDTH 795 0
DWIDTH 16 0
BBX 16 19 0 -4
BITMAP
0180
0180
03C0
03C0
07E0
04E0
04F0
0870
0870
1FF8
1038
201C
201C
601E
F03F
0000
01C0
0140
01C0
ENDCHAR
STARTCHAR uni1E01
ENCODING 7681
SWIDTH 556 0
DWIDTH 11 0
BBX 10 15 1 -4
BITMAP
3E00
6300
4380
0380
0380
3F80
F380
E380
E380
E380
7DC0
0000
1C00
1400
1C00
ENDCHAR
STARTCHAR uni1E02
ENCODING 7682
SWIDTH 639 0
DWIDTH 13 0
BBX 12 19 0 0
BITMAP
0600
0600
0600
0000
FF80
39C0
38E0
38E0
38E0
38C0
3980
3F80
38E0
3870
3870
3870
3870
38E0
FFC0
ENDCHAR
STARTCHAR uni1E03
ENCODING 7683
SWIDTH 640 0
DWIDTH 13 0
BBX 13 19 0 0
BITMAP
1800
1800
1800
0000
F800
3800
3800
3800
39E0
3BF0
3C70
3838
3838
3838
3838
3838
3870
3C70
3BC0
ENDCHAR
STARTCHAR uni1E04
ENCODING 7684
SWIDTH 639 0
DWIDTH 13 0
BBX 12 19 0 -4
BITMAP
FF80
39C0
38E0
38E0
38E0
38C0
3980
3F80
38E0
3870
3870
3870
3870
38E0
FFC0
0000
0600
0600
0600
ENDCHAR
STARTCHAR uni1E05
ENCODING 7685
SWIDTH 640 0
DWIDTH 13 0
BBX 13 19 0 -4
BITMAP
F800
3800
3800
3800
39E0
3BF0
3C70
3838
3838
3838
3838
3838
3870
3C70
3BC0
0000
0300
0300
0300
ENDCHAR
STARTCHAR uni1E06
ENCODING 7686
SWIDTH 639 0
DWIDTH 13 0
BBX 12 17 0 -2
BITMAP
FF80
39C0
38E0
38E0
38E0
38C0
3980
3F80
38E0
3870
3870
3870
3870
38E0
FFC0
0000
1F80
ENDCHAR
STARTCHAR uni1E07
ENCODING 7687
SWIDTH 640 0
DWIDTH 13 0
BBX 13 17 0 -2
BITMAP
F800
3800
3800
3800
39E0
3BF0
3C70
3838
3838
3838
3838
3838
3870
3C70
3BC0
0000
0FC0
ENDCHAR
STARTCHAR uni1E08
ENCODING 7688
SWIDTH 711 0
DWIDTH 14 0
BBX 13 23 1 -4
BITMAP
01C0
0300
0600
0000
07F0
1C18
3808
7008
E000
E000
E000
E000
E000
E000
E000
7000
3800
1C08
07F0
0200
0300
0300
0600
ENDCHAR
STARTCHAR uni1E09
ENCODING 7689
SWIDTH 541 0
DWIDTH 11 0
BBX 9 19 1 -4
BITMAP
0700
0C00
1800
0000
1F80
7080
6080
E000
E000
E000
E000
E000
7000
3880
1F80
0800
0C00
0C00
1800
ENDCHAR
STARTCHAR uni1E0A
ENCODING 7690
SWIDTH 794 0
DWIDTH 16 0
BBX 15 19 0 0
BITMAP
0300
0300
0300
0000
FFE0
3878
381C
381C
380E
380E
380E
380E
380E
380E
380C
381C
3818
3830
FFE0
ENDCHAR
STARTCHAR uni1E0B
ENCODING 7691
SWIDTH 652 0
DWIDTH 13 0
BBX 13 19 0 0
BITMAP
0180
0180
0180
0000
03E0
00E0
00E0
00E0
1EE0
71E0
60E0
E0E0
E0E0
E0E0
E0E0
E0E0
71E0
7EF0
3CF8
ENDCHAR
STARTCHAR uni1E0C
ENCODING 7692
SWIDTH 794 0
DWIDTH 16 0
BBX 15 19 0 -4
BITMAP
FFE0
3878
381C
381C
380E
380E
380E
380E
380E
380E
380C
381C
3818
3830
FFE0
0000
0300
0300
0300
ENDCHAR
STARTCHAR uni1E0D
ENCODING 7693
SWIDTH 652 0
DWIDTH 13 0
BBX 13 19 0 -4
BITMAP
03E0
00E0
00E0
00E0
1EE0
71E0
60E0
E0E0
E0E0
E0E0
E0E0
E0E0
71E0
7EF0
3CF8
0000
0300
0300
0300
ENDCHAR
STARTCHAR uni1E0E
ENCODING 7694
SWIDTH 794 0
DWIDTH 16 0
BBX 15 17 0 -2
BITMAP
FFE0
3878
381C
381C
380E
380E
380E
380E
380E
380E
380C
381C
3818
3830
FFE0
0000
0FC0
ENDCHAR
STARTCHAR uni1E0F
ENCODING 7695
SWIDTH 652 0
DWIDTH 13 0
BBX 13 17 0 -2
BITMAP
03E0
00E0
00E0
00E0
1EE0
71E0
60E0
E0E0
E0E0
E0E0
E0E0
E0E0
71E0
7EF0
3CF8
0000
0FC0
ENDCHAR
STARTCHAR uni1E10
ENCODING 7696
SWIDTH 794 0
DWIDTH 16 0
BBX 15 19 0 -4
BITMAP
FFE0
3878
381C
381C
380E
380E
380E
380E
380E
380E
380C
381C
3818
3830
FFE0
0300
0180
0180
0300
ENDCHAR
STARTCHAR uni1E11
ENCODING 7697
SWIDTH 652 0
DWIDTH 13 0
BBX 13 19 0 -4
BITMAP
03E0
00E0
00E0
00E0
1EE0
71E0
60E0
E0E0
E0E0
E0E0
E0E0
E0E0
71E0
7EF0
3EF8
0600
0300
0300
0600
ENDCHAR
STARTCHAR uni1E12
ENCODING 7698
SWIDTH 794 0
DWIDTH 16 0
BBX 15 19 0 -4
BITMAP
FFE0
3878
381C
381C
380E
380E
380E
380E
380E
380E
380C
381C
3818
3830
FFE0
0000
0700
0D80
18C0
ENDCHAR
STARTCHAR uni1E13
ENCODING 7699
SWIDTH 652 0
DWIDTH 13 0
BBX 13 19 0 -4
BITMAP
03E0
00E0
00E0
00E0
1EE0
71E0
60E0
E0E0
E0E0
E0E0
E0E0
E0E0
71E0
7EF0
3CF8
0000
0700
0D80
18C0
ENDCHAR
STARTCHAR uni1E14
ENCODING 7700
SWIDTH 601 0
DWIDTH 12 0
BBX 12 21 0 0
BITMAP
3800
0C00
0600
0000
3F00
0000
FFE0
3820
3820
3800
3800
3800
3840
3FC0
3840
3800
3800
3800
3810
3830
FFF0
ENDCHAR
STARTCHAR uni1E15
ENCODING 7701
SWIDTH 568 0
DWIDTH 11 0
BBX 10 17 0 0
BITMAP
3800
0C00
0600
0000
3F00
0000
1F00
7380
6180
E1C0
E1C0
FFC0
E000
E000
7000
3840
1FC0
ENDCHAR
STARTCHAR uni1E16
ENCODING 7702
SWIDTH 601 0
DWIDTH 12 0
BBX 12 21 0 0
BITMAP
0380
0600
0C00
0000
3F00
0000
FFE0
3820
3820
3800
3800
3800
3840
3FC0
3840
3800
3800
3800
3810
3830
FFF0
ENDCHAR
STARTCHAR uni1E17
ENCODING 7703
SWIDTH 568 0
DWIDTH 11 0
BBX 10 17 0 0
BITMAP
0380
0600
0C00
0000
3F00
0000
1F00
7380
6180
E1C0
E1C0
FFC0
E000
E000
7000
3840
1FC0
ENDCHAR
STARTCHAR uni1E18
ENCODING 7704
SWIDTH 601 0
DWIDTH 12 0
BBX 12 19 0 -4
BITMAP
FFE0
3820
3820
3800
3800
3800
3840
3FC0
3840
3800
3800
3800
3810
3830
FFF0
0000
0E00
1B00
3180
ENDCHAR
STARTCHAR uni1E19
ENCODING 7705
SWIDTH 568 0
DWIDTH 11 0
BBX 10 15 0 -4
BITMAP
1F00
7380
6180
E1C0
E1C0
FFC0
E000
E000
7000
3840
1FC0
0000
0E00
1B00
3180
ENDCHAR
STARTCHAR uni1E1A
ENCODING 7706
SWIDTH 601 0
DWIDTH 12 0
BBX 12 19 0 -4
BITMAP
FFE0
3820
3820
3800
3800
3800
3840
3FC0
3840
3800
3800
3800
3810
3830
FFF0
0000
1C80
3F80
2700
ENDCHAR
STARTCHAR uni1E1B
ENCODING 7707
SWIDTH 568 0
DWIDTH 11 0
BBX 10 15 0 -4
BITMAP
1F00
7380
6180
E1C0
E1C0
FFC0
E000
E000
7000
3840
1FC0
0000
1C80
3F80
2700
ENDCHAR
STARTCHAR uni1E1C
ENCODING 7708
SWIDTH 601 0
DWIDTH 12 0
BBX 12 23 0 -4
BITMAP
2080
1F00
0E00
0000
FFE0
3820
3820
3800
3800
3800
3840
3FC0
3840
3800
3800
3800
3810
3830
FFF0
0600
0300
0300
0600
ENDCHAR
STARTCHAR uni1E1D
ENCODING 7709
SWIDTH 568 0
DWIDTH 11 0
BBX 10 19 0 -4
BITMAP
2080
1F00
0E00
0000
1F00
7380
6180
E1C0
E1C0
FFC0
E000
E000
7000
3840
1FC0
0C00
0600
0600
0C00
ENDCHAR
STARTCHAR uni1E1E
ENCODING 7710
SWIDTH 584 0
DWIDTH 12 0
BBX 11 19 0 0
BITMAP
0C00
0C00
0C00
0000
FFE0
3820
3820
3800
3800
3800
3840
3FC0
3840
3800
3800
3800
3800
3800
FE00
ENDCHAR
STARTCHAR uni1E1F
ENCODING 7711
SWIDTH 416 0
DWIDTH 8 0
BBX 9 19 0 0
BITMAP
0C00
0C00
0C00
0000
1F80
3880
3880
3800
FF00
3800
3800
3800
3800
3800
3800
3800
3800
3800
FE00
ENDCHAR
STARTCHAR uni1E20
ENCODING 7712
SWIDTH 753 0
DWIDTH 15 0
BBX 14 17 1 0
BITMAP
0FC0
0000
0FE0
1C30
3010
7010
E000
E000
E000
E000
E1FC
E070
E070
7070
7070
3870
0FE0
ENDCHAR
STARTCHAR uni1E21
ENCODING 7713
SWIDTH 599 0
DWIDTH 12 0
BBX 12 17 0 -4
BITMAP
1F80
0000
1FF0
31A0
71C0
71C0
71C0
3180
1F00
1000
3000
7FC0
1FE0
E0E0
E0E0
F1C0
3F00
ENDCHAR
STARTCHAR uni1E22
ENCODING 7714
SWIDTH 798 0
DWIDTH 16 0
BBX 16 19 0 0
BITMAP
0180
0180
0180
0000
FE7F
381C
381C
381C
381C
381C
381C
3FFC
381C
381C
381C
381C
381C
381C
FE7F
ENDCHAR
STARTCHAR uni1E23
ENCODING 7715
SWIDTH 654 0
DWIDTH 13 0
BBX 14 19 0 0
BITMAP
1800
1800
1800
0000
F800
3800
3800
3800
39E0
3BF0
3C70
3870
3870
3870
3870
3870
3870
3870
FFFC
ENDCHAR
STARTCHAR uni1E24
ENCODING 7716
SWIDTH 798 0
DWIDTH 16 0
BBX 16 19 0 -4
BITMAP
FE7F
381C
381C
381C
381C
381C
381C
3FFC
381C
381C
381C
381C
381C
381C
FE7F
0000
0180
0180
0180
ENDCHAR
STARTCHAR uni1E25
ENCODING 7717
SWIDTH 654 0
DWIDTH 13 0
BBX 14 19 0 -4
BITMAP
F800
3800
3800
3800
39E0
3BF0
3C70
3870
3870
3870
3870
3870
3870
3870
FFFC
0000
0300
0300
0300
ENDCHAR
STARTCHAR uni1E26
ENCODING 7718
SWIDTH 798 0
DWIDTH 16 0
BBX 16 18 0 0
BITMAP
0660
0660
0000
FE7F
381C
381C
381C
381C
381C
381C
3FFC
381C
381C
381C
381C
381C
381C
FE7F
ENDCHAR
STARTCHAR uni1E27
ENCODING 7719
SWIDTH 654 0
DWIDTH 13 0
BBX 14 18 0 0
BITMAP
6600
6600
0000
F800
3800
3800
3800
39E0
3BF0
3C70
3870
3870
3870
3870
3870
3870
3870
FFFC
ENDCHAR
STARTCHAR uni1E28
ENCODING 7720
SWIDTH 798 0
DWIDTH 16 0
BBX 16 19 0 -4
BITMAP
FE7F
381C
381C
381C
381C
381C
381C
3FFC
381C
381C
381C
381C
381C
381C
FEFF
0180
00C0
00C0
0180
ENDCHAR
STARTCHAR uni1E29
ENCODING 7721
SWIDTH 654 0
DWIDTH 13 0
BBX 14 19 0 -4
BITMAP
F800
3800
3800
3800
39E0
3BF0
3C70
3870
3870
3870
3870
3870
3870
3870
FFFC
0300
0180
0180
0300
ENDCHAR
STARTCHAR uni1E2A
ENCODING 7722
SWIDTH 798 0
DWIDTH 16 0
BBX 16 19 0 -4
BITMAP
FE7F
381C
381C
381C
381C
381C
381C
3FFC
381C
381C
381C
381C
381C
381C
FE7F
0000
0410
03E0
01C0
ENDCHAR
STARTCHAR uni1E2B
ENCODING 7723
SWIDTH 654 0
DWIDTH 13 0
BBX 14 19 0 -4
BITMAP
F800
3800
3800
3800
39E0
3BF0
3C70
3870
3870
3870
3870
3870
3870
3870
FFFC
0000
0820
07C0
0380
ENDCHAR
STARTCHAR uni1E2C
ENCODING 7724
SWIDTH 349 0
DWIDTH 7 0
BBX 7 19 0 -4
BITMAP
FE
38
38
38
38
38
38
38
38
38
38
38
38
38
FE
00
72
FE
9C
ENDCHAR
STARTCHAR uni1E2D
ENCODING 7725
SWIDTH 325 0
DWIDTH 7 0
BBX 7 19 0 -4
BITMAP
38
38
38
00
F8
38
38
38
38
38
38
38
38
38
FE
00
72
FE
9C
ENDCHAR
STARTCHAR uni1E2E
ENCODING 7726
SWIDTH 349 0
DWIDTH 7 0
BBX 7 22 0 0
BITMAP
0E
18
30
00
CC
CC
00
FE
38
38
38
38
38
38
38
38
38
38
38
38
38
FE
ENDCHAR
STARTCHAR uni1E2F
ENCODING 7727
SWIDTH 325 0
DWIDTH 7 0
BBX 7 18 0 0
BITMAP
0E
18
30
00
CC
CC
00
F8
38
38
38
38
38
38
38
38
38
FE
ENDCHAR
STARTCHAR uni1E30
ENCODING 7728
SWIDTH 747 0
DWIDTH 15 0
BBX 15 19 0 0
BITMAP
01C0
0300
0600
0000
FC3C
3830
3820
3840
3880
3900
3B00
3F00
3F80
3BC0
39E0
38F0
3878
387C
FCFE
ENDCHAR
STARTCHAR uni1E31
ENCODING 7729
SWIDTH 654 0
DWIDTH 12 0
BBX 13 19 0 0
BITMAP
0700
0C00
1800
0000
F800
3800
3800
3800
38F0
3860
3880
3900
3B00
3F80
3B80
3BC0
39E0
38F0
FCF8
ENDCHAR
STARTCHAR uni1E32
ENCODING 7730
SWIDTH 747 0
DWIDTH 15 0
BBX 15 19 0 -4
BITMAP
FC3C
3830
3820
3840
3880
3900
3B00
3F00
3F80
3BC0
39E0
38F0
3878
387C
FCFE
0000
0180
0180
0180
ENDCHAR
STARTCHAR uni1E33
ENCODING 7731
SWIDTH 654 0
DWIDTH 12 0
BBX 13 19 0 -4
BITMAP
F800
3800
3800
3800
38F0
3860
3880
3900
3B00
3F80
3B80
3BC0
39E0
38F0
FCF8
0000
0300
0300
0300
ENDCHAR
STARTCHAR uni1E34
ENCODING 7732
SWIDTH 747 0
DWIDTH 15 0
BBX 15 17 0 -2
BITMAP
FC3C
3830
3820
3840
3880
3900
3B00
3F00
3F80
3BC0
39E0
38F0
3878
387C
FCFE
0000
07E0
ENDCHAR
STARTCHAR uni1E35
ENCODING 7733
SWIDTH 654 0
DWIDTH 12 0
BBX 13 17 0 -2
BITMAP
F800
3800
3800
3800
38F0
3860
3880
3900
3B00
3F80
3B80
3BC0
39E0
38F0
FCF8
0000
0FC0
ENDCHAR
STARTCHAR uni1E36
ENCODING 7734
SWIDTH 584 0
DWIDTH 12 0
BBX 12 19 0 -4
BITMAP
FE00
3800
3800
3800
3800
3800
3800
3800
3800
3800
3800
3800
3830
3810
FFF0
0000
0600
0600
0600
ENDCHAR
STARTCHAR uni1E37
ENCODING 7735
SWIDTH 325 0
DWIDTH 7 0
BBX 7 19 0 -4
BITMAP
F8
38
38
38
38
38
38
38
38
38
38
38
38
38
FE
00
18
18
18
ENDCHAR
STARTCHAR uni1E38
ENCODING 7736
SWIDTH 584 0
DWIDTH 12 0
BBX 12 21 0 -4
BITMAP
7E00
0000
FE00
3800
3800
3800
3800
3800
3800
3800
3800
3800
3800
3800
3830
3810
FFF0
0000
0600
0600
0600
ENDCHAR
STARTCHAR uni1E39
ENCODING 7737
SWIDTH 325 0
DWIDTH 7 0
BBX 7 21 0 -4
BITMAP
FC
00
F8
38
38
38
38
38
38
38
38
38
38
38
38
38
FE
00
18
18
18
ENDCHAR
STARTCHAR uni1E3A
ENCODING 7738
SWIDTH 584 0
DWIDTH 12 0
BBX 12 17 0 -2
BITMAP
FE00
3800
3800
3800
3800
3800
3800
3800
3800
3800
3800
3800
3830
3810
FFF0
0000
1F80
ENDCHAR
STARTCHAR uni1E3B
ENCODING 7739
SWIDTH 325 0
DWIDTH 7 0
BBX 7 17 0 -2
BITMAP
F8
38
38
38
38
38
38
38
38
38
38
38
38
38
FE
00
7E
ENDCHAR
STARTCHAR uni1E3C
ENCODING 7740
SWIDTH 584 0
DWIDTH 12 0
BBX 12 19 0 -4
BITMAP
FE00
3800
3800
3800
3800
3800
3800
3800
3800
3800
3800
3800
3830
3810
FFF0
0000
0E00
1B00
3180
ENDCHAR
STARTCHAR uni1E3D
ENCODING 7741
SWIDTH 325 0
DWIDTH 7 0
BBX 7 19 0 -4
BITMAP
F8
38
38
38
38
38
38
38
38
38
38
38
38
38
FE
00
38
6C
C6
ENDCHAR
STARTCHAR uni1E3E
ENCODING 7742
SWIDTH 904 0
DWIDTH 18 0
BBX 18 19 0 0
BITMAP
007000
00C000
018000
000000
F807C0
3C0700
3C0F00
3E0F00
2E1F00
2E1700
273700
272700
27A700
23C700
23C700
218700
218700
200700
F00FC0
ENDCHAR
STARTCHAR uni1E3F
ENCODING 7743
SWIDTH 967 0
DWIDTH 19 0
BBX 19 15 0 0
BITMAP
003800
006000
00C000
000000
FBCF00
3FFF80
3CF380
38E380
38E380
38E380
38E380
38E380
38E380
38E380
FDF7E0
ENDCHAR
STARTCHAR uni1E40
ENCODING 7744
SWIDTH 904 0
DWIDTH 18 0
BBX 18 19 0 0
BITMAP
00C000
00C000
00C000
000000
F807C0
3C0700
3C0F00
3E0F00
2E1F00
2E1700
273700
272700
27A700
23C700
23C700
218700
218700
200700
F00FC0
ENDCHAR
STARTCHAR uni1E41
ENCODING 7745
SWIDTH 967 0
DWIDTH 19 0
BBX 19 15 0 0
BITMAP
00C000
00C000
00C000
000000
FBCF00
3FFF80
3CF380
38E380
38E380
38E380
38E380
38E380
38E380
38E380
FDF7E0
ENDCHAR
STARTCHAR uni1E42
ENCODING 7746
SWIDTH 904 0
DWIDTH 18 0
BBX 18 19 0 -4
BITMAP
F807C0
3C0700
3C0F00
3E0F00
2E1F00
2E1700
273700
272700
27A700
23C700
23C700
218700
218700
200700
F00FC0
000000
006000
006000
006000
ENDCHAR
STARTCHAR uni1E43
ENCODING 7747
SWIDTH 967 0
DWIDTH 19 0
BBX 19 15 0 -4
BITMAP
FBCF00
3FFF80
3CF380
38E380
38E380
38E380
38E380
38E380
38E380
38E380
FDF7E0
000000
006000
006000
006000
ENDCHAR
STARTCHAR uni1E44
ENCODING 7748
SWIDTH 788 0
DWIDTH 16 0
BBX 15 19 0 0
BITMAP
0300
0300
0300
0000
F03E
3808
3C08
3C08
3E08
2F08
2788
2388
23C8
21E8
20E8
20F8
2078
2038
F818
ENDCHAR
STARTCHAR uni1E45
ENCODING 7749
SWIDTH 654 0
DWIDTH 13 0
BBX 14 15 0 0
BITMAP
0600
0600
0600
0000
F9E0
7BF0
3C70
3870
3870
3870
3870
3870
3870
3870
FFFC
ENDCHAR
STARTCHAR uni1E46
ENCODING 7750
SWIDTH 788 0
DWIDTH 16 0
BBX 15 19 0 -4
BITMAP
F03E
3808
3C08
3C08
3E08
2F08
2788
2388
23C8
21E8
20E8
20F8
2078
2038
F818
0000
0180
0180
0180
ENDCHAR
STARTCHAR uni1E47
ENCODING 7751
SWIDTH 654 0
DWIDTH 13 0
BBX 14 15 0 -4
BITMAP
F9E0
7BF0
3C70
3870
3870
3870
3870
3870
3870
3870
FFFC
0000
0300
0300
0300
ENDCHAR
STARTCHAR uni1E48
ENCODING 7752
SWIDTH 788 0
DWIDTH 16 0
BBX 15 17 0 -2
BITMAP
F03E
3808
3C08
3C08
3E08
2F08
2788
2388
23C8
21E8
20E8
20F8
2078
2038
F818
0000
07E0
ENDCHAR
STARTCHAR uni1E49
ENCODING 7753
SWIDTH 654 0
DWIDTH 13 0
BBX 14 13 0 -2
BITMAP
F9E0
7BF0
3C70
3870
3870
3870
3870
3870
3870
3870
FFFC
0000
0FC0
ENDCHAR
STARTCHAR uni1E4A
ENCODING 7754
SWIDTH 788 0
DWIDTH 16 0
BBX 15 19 0 -4
BITMAP
F03E
3808
3C08
3C08
3E08
2F08
2788
2388
23C8
21E8
20E8
20F8
2078
2038
F818
0000
0380
06C0
0C60
ENDCHAR
STARTCHAR uni1E4B
ENCODING 7755
SWIDTH 654 0
DWIDTH 13 0
BBX 14 15 0 -4
BITMAP
F9E0
7BF0
3C70
3870
3870
3870
3870
3870
3870
3870
FFFC
0000
0380
06C0
0C60
ENDCHAR
STARTCHAR uni1E4C
ENCODING 7756
SWIDTH 810 0
DWIDTH 16 0
BBX 15 23 1 0
BITMAP
00E0
0180
0300
0000
0720
0FE0
09C0
0000
0FE0
1C70
3018
701C
E00E
E00E
E00E
E00E
E00E
E00E
E00E
701C
3018
1C70
0FE0
ENDCHAR
STARTCHAR uni1E4D
ENCODING 7757
SWIDTH 617 0
DWIDTH 12 0
BBX 11 19 1 0
BITMAP
0380
0600
0C00
0000
1C80
3F80
2700
0000
1F00
71C0
71C0
E0E0
E0E0
E0E0
E0E0
E0E0
71C0
31C0
1F00
ENDCHAR
STARTCHAR uni1E4E
ENCODING 7758
SWIDTH 810 0
DWIDTH 16 0
BBX 15 22 1 0
BITMAP
0660
0660
0000
0720
0FE0
09C0
0000
0FE0
1C70
3018
701C
E00E
E00E
E00E
E00E
E00E
E00E
E00E
701C
3018
1C70
0FE0
ENDCHAR
STARTCHAR uni1E4F
ENCODING 7759
SWIDTH 617 0
DWIDTH 12 0
BBX 11 18 1 0
BITMAP
1980
1980
0000
1C80
3F80
2700
0000
1F00
71C0
71C0
E0E0
E0E0
E0E0
E0E0
E0E0
71C0
31C0
1F00
ENDCHAR
STARTCHAR uni1E50
ENCODING 7760
SWIDTH 810 0
DWIDTH 16 0
BBX 15 21 1 0
BITMAP
0E00
0300
0180
0000
07E0
0000
0FE0
1C70
3018
701C
E00E
E00E
E00E
E00E
E00E
E00E
E00E
701C
3018
1C70
0FE0
ENDCHAR
STARTCHAR uni1E51
ENCODING 7761
SWIDTH 617 0
DWIDTH 12 0
BBX 11 17 1 0
BITMAP
3800
0C00
0600
0000
1F80
0000
1F00
71C0
71C0
E0E0
E0E0
E0E0
E0E0
E0E0
71C0
31C0
1F00
ENDCHAR
STARTCHAR uni1E52
ENCODING 7762
SWIDTH 810 0
DWIDTH 16 0
BBX 15 21 1 0
BITMAP
00E0
0180
0300
0000
07E0
0000
0FE0
1C70
3018
701C
E00E
E00E
E00E
E00E
E00E
E00E
E00E
701C
3018
1C70
0FE0
ENDCHAR
STARTCHAR uni1E53
ENCODING 7763
SWIDTH 617 0
DWIDTH 12 0
BBX 11 17 1 0
BITMAP
0380
0600
0C00
0000
1F80
0000
1F00
71C0
71C0
E0E0
E0E0
E0E0
E0E0
E0E0
71C0
31C0
1F00
ENDCHAR
STARTCHAR uni1E54
ENCODING 7764
SWIDTH 614 0
DWIDTH 12 0
BBX 12 19 0 0
BITMAP
01C0
0300
0600
0000
FFC0
38E0
3870
3870
3870
3870
3860
38E0
3F80
3800
3800
3800
3800
3800
FE00
ENDCHAR
STARTCHAR uni1E55
ENCODING 7765
SWIDTH 652 0
DWIDTH 13 0
BBX 13 19 0 -4
BITMAP
01C0
0300
0600
0000
F9E0
7BF0
3C70
3838
3838
3838
3838
3838
3870
3C70
3BC0
3800
3800
3800
FE00
ENDCHAR
STARTCHAR uni1E56
ENCODING 7766
SWIDTH 614 0
DWIDTH 12 0
BBX 12 19 0 0
BITMAP
0600
0600
0600
0000
FFC0
38E0
3870
3870
3870
3870
3860
38E0
3F80
3800
3800
3800
3800
3800
FE00
ENDCHAR
STARTCHAR uni1E57
ENCODING 7767
SWIDTH 652 0
DWIDTH 13 0
BBX 13 19 0 -4
BITMAP
0600
0600
0600
0000
F9E0
7BF0
3C70
3838
3838
3838
3838
3838
3870
3C70
3BC0
3800
3800
3800
FE00
ENDCHAR
STARTCHAR uni1E58
ENCODING 7768
SWIDTH 720 0
DWIDTH 14 0
BBX 15 19 0 0
BITMAP
0300
0300
0300
0000
FFC0
38E0
3870
3870
3870
3870
39E0
3FC0
3BC0
39E0
38E0
38F0
3878
387C
FC3E
ENDCHAR
STARTCHAR uni1E59
ENCODING 7769
SWIDTH 462 0
DWIDTH 9 0
BBX 9 15 0 0
BITMAP
0C00
0C00
0C00
0000
F980
3F80
3C80
3800
3800
3800
3800
3800
3800
3800
FE00
ENDCHAR
STARTCHAR uni1E5A
ENCODING 7770
SWIDTH 720 0
DWIDTH 14 0
BBX 15 19 0 -4
BITMAP
FFC0
38E0
3870
3870
3870
3870
39E0
3FC0
3BC0
39E0
38E0
38F0
3878
387C
FC3E
0000
0180
0180
0180
ENDCHAR
STARTCHAR uni1E5B
ENCODING 7771
SWIDTH 462 0
DWIDTH 9 0
BBX 9 15 0 -4
BITMAP
F980
3F80
3C80
3800
3800
3800
3800
3800
3800
3800
FE00
0000
1800
1800
1800
ENDCHAR
STARTCHAR uni1E5C
ENCODING 7772
SWIDTH 720 0
DWIDTH 14 0
BBX 15 21 0 -4
BITMAP
0FC0
0000
FFC0
38E0
3870
3870
3870
3870
39E0
3FC0
3BC0
39E0
38E0
38F0
3878
387C
FC3E
0000
0180
0180
0180
ENDCHAR
STARTCHAR uni1E5D
ENCODING 7773
SWIDTH 462 0
DWIDTH 9 0
BBX 9 17 0 -4
BITMAP
3F00
0000
F980
3F80
3C80
3800
3800
3800
3800
3800
3800
3800
FE00
0000
1800
1800
1800
ENDCHAR
STARTCHAR uni1E5E
ENCODING 7774
SWIDTH 720 0
DWIDTH 14 0
BBX 15 17 0 -2
BITMAP
FFC0
38E0
3870
3870
3870
3870
39E0
3FC0
3BC0
39E0
38E0
38F0
3878
387C
FC3E
0000
07E0
ENDCHAR
STARTCHAR uni1E5F
ENCODING 7775
SWIDTH 462 0
DWIDTH 9 0
BBX 9 13 0 -2
BITMAP
F980
3F80
3C80
3800
3800
3800
3800
3800
3800
3800
FE00
0000
7E00
ENDCHAR
STARTCHAR uni1E60
ENCODING 7776
SWIDTH 556 0
DWIDTH 11 0
BBX 10 19 1 0
BITMAP
1800
1800
1800
0000
3F00
7180
E080
E080
E000
F800
7E00
3F00
0F80
03C0
01C0
81C0
81C0
C380
7E00
ENDCHAR
STARTCHAR uni1E61
ENCODING 7777
SWIDTH 525 0
DWIDTH 10 0
BBX 9 15 1 0
BITMAP
1800
1800
1800
0000
3F00
7100
E100
F000
FC00
7F00
1F80
8780
8380
C700
7E00
ENDCHAR
STARTCHAR uni1E62
ENCODING 7778
SWIDTH 556 0
DWIDTH 11 0
BBX 10 19 1 -4
BITMAP
3F00
7180
E080
E080
E000
F800
7E00
3F00
0F80
03C0
01C0
81C0
81C0
C380
7E00
0000
0C00
0C00
0C00
ENDCHAR
STARTCHAR uni1E63
ENCODING 7779
SWIDTH 525 0
DWIDTH 10 0
BBX 9 15 1 -4
BITMAP
3F00
7100
E100
F000
FC00
7F00
1F80
8780
8380
C700
7E00
0000
0C00
0C00
0C00
ENDCHAR
STARTCHAR uni1E64
ENCODING 7780
SWIDTH 556 0
DWIDTH 11 0
BBX 10 23 1 0
BITMAP
0C00
0C00
0C00
0000
0700
0C00
1800
0000
3F00
7180
E080
E080
E000
F800
7E00
3F00
0F80
03C0
01C0
81C0
81C0
C380
7E00
ENDCHAR
STARTCHAR uni1E65
ENCODING 7781
SWIDTH 525 0
DWIDTH 10 0
BBX 9 19 1 0
BITMAP
0C00
0C00
0C00
0000
0700
0C00
1800
0000
3F00
7100
E100
F000
FC00
7F00
1F80
8780
8380
C700
7E00
ENDCHAR
STARTCHAR uni1E66
ENCODING 7782
SWIDTH 556 0
DWIDTH 11 0
BBX 10 23 1 0
BITMAP
0C00
0C00
0C00
0000
6300
3600
1C00
0000
3F00
7180
E080
E080
E000
F800
7E00
3F00
0F80
03C0
01C0
81C0
81C0
C380
7E00
ENDCHAR
STARTCHAR uni1E67
ENCODING 7783
SWIDTH 525 0
DWIDTH 10 0
BBX 9 19 1 0
BITMAP
0C00
0C00
0C00
0000
6300
3600
1C00
0000
3F00
7100
E100
F000
FC00
7F00
1F80
8780
8380
C700
7E00
ENDCHAR
STARTCHAR uni1E68
ENCODING 7784
SWIDTH 556 0
DWIDTH 11 0
BBX 10 23 1 -4
BITMAP
1800
1800
1800
0000
3F00
7180
E080
E080
E000
F800
7E00
3F00
0F80
03C0
01C0
81C0
81C0
C380
7E00
0000
0C00
0C00
0C00
ENDCHAR
STARTCHAR uni1E69
ENCODING 7785
SWIDTH 525 0
DWIDTH 10 0
BBX 9 19 1 -4
BITMAP
1800
1800
1800
0000
3F00
7100
E100
F000
FC00
7F00
1F80
8780
8380
C700
7E00
0000
0C00
0C00
0C00
ENDCHAR
STARTCHAR uni1E6A
ENCODING 7786
SWIDTH 714 0
DWIDTH 14 0
BBX 13 19 1 0
BITMAP
0600
0600
0600
0000
FFF8
C708
8708
0700
0700
0700
0700
0700
0700
0700
0700
0700
0700
0700
1FC0
ENDCHAR
STARTCHAR uni1E6B
ENCODING 7787
SWIDTH 389 0
DWIDTH 8 0
BBX 7 18 0 0
BITMAP
30
30
30
00
30
70
70
FE
70
70
70
70
70
70
70
70
70
3E
ENDCHAR
STARTCHAR uni1E6C
ENCODING 7788
SWIDTH 714 0
DWIDTH 14 0
BBX 13 19 1 -4
BITMAP
FFF8
C708
8708
0700
0700
0700
0700
0700
0700
0700
0700
0700
0700
0700
1FC0
0000
0300
0300
0300
ENDCHAR
STARTCHAR uni1E6D
ENCODING 7789
SWIDTH 389 0
DWIDTH 8 0
BBX 7 18 0 -4
BITMAP
30
70
70
FE
70
70
70
70
70
70
70
70
70
3E
00
30
30
30
ENDCHAR
STARTCHAR uni1E6E
ENCODING 7790
SWIDTH 714 0
DWIDTH 14 0
BBX 13 17 1 -2
BITMAP
FFF8
C708
8708
0700
0700
0700
0700
0700
0700
0700
0700
0700
0700
0700
1FC0
0000
0FC0
ENDCHAR
STARTCHAR uni1E6F
ENCODING 7791
SWIDTH 389 0
DWIDTH 8 0
BBX 7 16 0 -2
BITMAP
30
70
70
FE
70
70
70
70
70
70
70
70
70
3E
00
FC
ENDCHAR
STARTCHAR uni1E70
ENCODING 7792
SWIDTH 714 0
DWIDTH 14 0
BBX 13 19 1 -4
BITMAP
FFF8
C708
8708
0700
0700
0700
0700
0700
0700
0700
0700
0700
0700
0700
1FC0
0000
0700
0D80
18C0
ENDCHAR
STARTCHAR uni1E71
ENCODING 7793
SWIDTH 389 0
DWIDTH 8 0
BBX 7 18 0 -4
BITMAP
30
70
70
FE
70
70
70
70
70
70
70
70
70
3E
00
38
6C
C6
ENDCHAR
STARTCHAR uni1E72
ENCODING 7794
SWIDTH 747 0
DWIDTH 15 0
BBX 15 18 0 -3
BITMAP
FE3E
3808
3808
3808
3808
3808
3808
3808
3808
3808
3808
3808
1C10
1C10
07E0
0000
0CC0
0CC0
ENDCHAR
STARTCHAR uni1E73
ENCODING 7795
SWIDTH 654 0
DWIDTH 13 0
BBX 14 14 0 -3
BITMAP
F9F0
3870
3870
3870
3870
3870
3870
3870
38F0
3F78
1E7C
0000
0660
0660
ENDCHAR
STARTCHAR uni1E74
ENCODING 7796
SWIDTH 747 0
DWIDTH 15 0
BBX 15 19 0 -4
BITMAP
FE3E
3808
3808
3808
3808
3808
3808
3808
3808
3808
3808
3808
1C10
1C10
07E0
0000
0E40
1FC0
1380
ENDCHAR
STARTCHAR uni1E75
ENCODING 7797
SWIDTH 654 0
DWIDTH 13 0
BBX 14 15 0 -4
BITMAP
F9F0
3870
3870
3870
3870
3870
3870
3870
38F0
3F78
1E7C
0000
0720
0FE0
09C0
ENDCHAR
STARTCHAR uni1E76
ENCODING 7798
SWIDTH 747 0
DWIDTH 15 0
BBX 15 19 0 -4
BITMAP
FE3E
3808
3808
3808
3808
3808
3808
3808
3808
3808
3808
3808
1C10
1C10
07E0
0000
0700
0D80
18C0
ENDCHAR
STARTCHAR uni1E77
ENCODING 7799
SWIDTH 654 0
DWIDTH 13 0
BBX 14 15 0 -4
BITMAP
F9F0
3870
3870
3870
3870
3870
3870
3870
38F0
3F78
1E7C
0000
0380
06C0
0C60
ENDCHAR
STARTCHAR uni1E78
ENCODING 7800
SWIDTH 747 0
DWIDTH 15 0
BBX 15 23 0 0
BITMAP
00E0
0180
0300
0000
0E40
1FC0
1380
0000
FE3E
3808
3808
3808
3808
3808
3808
3808
3808
3808
3808
3808
1C10
1C10
07E0
ENDCHAR
STARTCHAR uni1E79
ENCODING 7801
SWIDTH 654 0
DWIDTH 13 0
BBX 14 19 0 0
BITMAP
01C0
0300
0600
0000
0E40
1FC0
1380
0000
F9F0
3870
3870
3870
3870
3870
3870
3870
38F0
3F78
1E7C
ENDCHAR
STARTCHAR uni1E7A
ENCODING 7802
SWIDTH 747 0
DWIDTH 15 0
BBX 15 20 0 0
BITMAP
0CC0
0CC0
0000
0FC0
0000
FE3E
3808
3808
3808
3808
3808
3808
3808
3808
3808
3808
3808
1C10
1C10
07E0
ENDCHAR
STARTCHAR uni1E7B
ENCODING 7803
SWIDTH 654 0
DWIDTH 13 0
BBX 14 16 0 0
BITMAP
0CC0
0CC0
0000
0FC0
0000
F9F0
3870
3870
3870
3870
3870
3870
3870
38F0
3F78
1E7C
ENDCHAR
STARTCHAR uni1E7C
ENCODING 7804
SWIDTH 753 0
DWIDTH 15 0
BBX 15 19 0 0
BITMAP
0E40
1FC0
1380
0000
FC1E
780C
3808
3C08
1C10
1C10
0E30
0E20
0F20
0740
0740
0380
0380
0380
0100
ENDCHAR
STARTCHAR uni1E7D
ENCODING 7805
SWIDTH 657 0
DWIDTH 13 0
BBX 13 15 0 0
BITMAP
0E40
1FC0
1380
0000
FC78
7830
3820
3C40
1C40
1E80
0E80
0F80
0700
0700
0200
ENDCHAR
STARTCHAR uni1E7E
ENCODING 7806
SWIDTH 753 0
DWIDTH 15 0
BBX 15 19 0 -4
BITMAP
FC1E
780C
3808
3C08
1C10
1C10
0E30
0E20
0F20
0740
0740
0380
0380
0380
0100
0000
0180
0180
0180
ENDCHAR
STARTCHAR uni1E7F
ENCODING 7807
SWIDTH 657 0
DWIDTH 13 0
BBX 13 15 0 -4
BITMAP
FC78
7830
3820
3C40
1C40
1E80
0E80
0F80
0700
0700
0200
0000
0300
0300
0300
ENDCHAR
STARTCHAR Wgrave
ENCODING 7808
SWIDTH 955 0
DWIDTH 19 0
BBX 19 19 0 0
BITMAP
070000
018000
00C000
000000
FC61E0
7060C0
787080
387080
38F080
3CF100
1CB900
1D3900
1D3A00
1F1E00
0E1E00
0E1C00
0E0C00
040C00
040C00
ENDCHAR
STARTCHAR wgrave
ENCODING 7809
SWIDTH 880 0
DWIDTH 18 0
BBX 18 15 0 0
BITMAP
070000
018000
00C000
000000
FC63C0
706180
38F100
38F100
39F200
1D3A00
1D3A00
1E3C00
0E1C00
0C1C00
040800
ENDCHAR
STARTCHAR Wacute
ENCODING 7810
SWIDTH 955 0
DWIDTH 19 0
BBX 19 19 0 0
BITMAP
007000
00C000
018000
000000
FC61E0
7060C0
787080
387080
38F080
3CF100
1CB900
1D3900
1D3A00
1F1E00
0E1E00
0E1C00
0E0C00
040C00
040C00
ENDCHAR
STARTCHAR wacute
ENCODING 7811
SWIDTH 880 0
DWIDTH 18 0
BBX 18 15 0 0
BITMAP
007000
00C000
018000
000000
FC63C0
706180
38F100
38F100
39F200
1D3A00
1D3A00
1E3C00
0E1C00
0C1C00
040800
ENDCHAR
STARTCHAR Wdieresis
ENCODING 7812
SWIDTH 955 0
DWIDTH 19 0
BBX 19 18 0 0
BITMAP
033000
033000
000000
FC61E0
7060C0
787080
387080
38F080
3CF100
1CB900
1D3900
1D3A00
1F1E00
0E1E00
0E1C00
0E0C00
040C00
040C00
ENDCHAR
STARTCHAR wdieresis
ENCODING 7813
SWIDTH 880 0
DWIDTH 18 0
BBX 18 14 0 0
BITMAP
033000
033000
000000
FC63C0
706180
38F100
38F100
39F200
1D3A00
1D3A00
1E3C00
0E1C00
0C1C00
040800
ENDCHAR
STARTCHAR uni1E86
ENCODING 7814
SWIDTH 955 0
DWIDTH 19 0
BBX 19 19 0 0
BITMAP
00C000
00C000
00C000
000000
FC61E0
7060C0
787080
387080
38F080
3CF100
1CB900
1D3900
1D3A00
1F1E00
0E1E00
0E1C00
0E0C00
040C00
040C00
ENDCHAR
STARTCHAR uni1E87
ENCODING 7815
SWIDTH 880 0
DWIDTH 18 0
BBX 18 15 0 0
BITMAP
00C000
00C000
00C000
000000
FC63C0
706180
38F100
38F100
39F200
1D3A00
1D3A00
1E3C00
0E1C00
0C1C00
040800
ENDCHAR
STARTCHAR uni1E88
ENCODING 7816
SWIDTH 955 0
DWIDTH 19 0
BBX 19 19 0 -4
BITMAP
FC61E0
7060C0
787080
387080
38F080
3CF100
1CB900
1D3900
1D3A00
1F1E00
0E1E00
0E1C00
0E0C00
040C00
040C00
000000
00C000
00C000
00C000
ENDCHAR
STARTCHAR uni1E89
ENCODING 7817
SWIDTH 880 0
DWIDTH 18 0
BBX 18 15 0 -4
BITMAP
FC63C0
706180
38F100
38F100
39F200
1D3A00
1D3A00
1E3C00
0E1C00
0C1C00
040800
000000
00C000
00C000
00C000
ENDCHAR
STARTCHAR uni1E8A
ENCODING 7818
SWIDTH 702 0
DWIDTH 14 0
BBX 14 19 0 0
BITMAP
0300
0300
0300
0000
FE3C
3818
3C10
1C20
0E40
0FC0
0780
0780
07C0
09C0
19E0
10E0
20F0
6078
F0FC
ENDCHAR
STARTCHAR uni1E8B
ENCODING 7819
SWIDTH 608 0
DWIDTH 12 0
BBX 12 15 0 0
BITMAP
0C00
0C00
0C00
0000
FCF0
7840
3C80
1D80
0F00
0F00
0F80
1B80
33C0
61E0
F3F0
ENDCHAR
STARTCHAR uni1E8C
ENCODING 7820
SWIDTH 702 0
DWIDTH 14 0
BBX 14 18 0 0
BITMAP
0CC0
0CC0
0000
FE3C
3818
3C10
1C20
0E40
0FC0
0780
0780
07C0
09C0
19E0
10E0
20F0
6078
F0FC
ENDCHAR
STARTCHAR uni1E8D
ENCODING 7821
SWIDTH 608 0
DWIDTH 12 0
BBX 12 14 0 0
BITMAP
3300
3300
0000
FCF0
7840
3C80
1D80
0F00
0F00
0F80
1B80
33C0
61E0
F3F0
ENDCHAR
STARTCHAR uni1E8E
ENCODING 7822
SWIDTH 717 0
DWIDTH 14 0
BBX 15 19 0 0
BITMAP
0300
0300
0300
0000
FE1E
780C
3C08
1C10
1E30
0F20
0740
07C0
0380
0380
0380
0380
0380
0380
0FE0
ENDCHAR
STARTCHAR uni1E8F
ENCODING 7823
SWIDTH 654 0
DWIDTH 13 0
BBX 13 19 0 -4
BITMAP
0600
0600
0600
0000
FC78
7830
3820
3C40
1C40
1C80
0E80
0F00
0700
0600
0600
0400
0C00
1800
3800
ENDCHAR
STARTCHAR uni1E90
ENCODING 7824
SWIDTH 639 0
DWIDTH 13 0
BBX 11 19 1 0
BITMAP
0700
0D80
18C0
0000
7FE0
41E0
41C0
03C0
0380
0700
0F00
0E00
1E00
1C00
3800
7800
7020
F060
FFE0
ENDCHAR
STARTCHAR uni1E91
ENCODING 7825
SWIDTH 584 0
DWIDTH 12 0
BBX 10 15 1 0
BITMAP
0E00
1B00
3180
0000
FFC0
C3C0
8780
0700
0E00
1E00
3C00
3800
7840
F0C0
FFC0
ENDCHAR
STARTCHAR uni1E92
ENCODING 7826
SWIDTH 639 0
DWIDTH 13 0
BBX 11 19 1 -4
BITMAP
7FE0
41E0
41C0
03C0
0380
0700
0F00
0E00
1E00
1C00
3800
7800
7020
F060
FFE0
0000
0C00
0C00
0C00
ENDCHAR
STARTCHAR uni1E93
ENCODING 7827
SWIDTH 584 0
DWIDTH 12 0
BBX 10 15 1 -4
BITMAP
FFC0
C3C0
8780
0700
0E00
1E00
3C00
3800
7840
F0C0
FFC0
0000
0C00
0C00
0C00
ENDCHAR
STARTCHAR uni1E94
ENCODING 7828
SWIDTH 639 0
DWIDTH 13 0
BBX 11 17 1 -2
BITMAP
7FE0
41E0
41C0
03C0
0380
0700
0F00
0E00
1E00
1C00
3800
7800
7020
F060
FFE0
0000
3F00
ENDCHAR
STARTCHAR uni1E95
ENCODING 7829
SWIDTH 584 0
DWIDTH 12 0
BBX 10 13 1 -2
BITMAP
FFC0
C3C0
8780
0700
0E00
1E00
3C00
3800
7840
F0C0
FFC0
0000
3F00
ENDCHAR
STARTCHAR uni1E96
ENCODING 7830
SWIDTH 654 0
DWIDTH 13 0
BBX 14 17 0 -2
BITMAP
F800
3800
3800
3800
39E0
3BF0
3C70
3870
3870
3870
3870
3870
3870
3870
FFFC
0000
0FC0
ENDCHAR
STARTCHAR uni1E97
ENCODING 7831
SWIDTH 389 0
DWIDTH 8 0
BBX 7 17 0 0
BITMAP
CC
CC
00
30
70
70
FE
70
70
70
70
70
70
70
70
70
3E
ENDCHAR
STARTCHAR uni1E98
ENCODING 7832
SWIDTH 880 0
DWIDTH 18 0
BBX 18 15 0 0
BITMAP
01C000
014000
01C000
000000
FC63C0
706180
38F100
38F100
39F200
1D3A00
1D3A00
1E3C00
0E1C00
0C1C00
040800
ENDCHAR
STARTCHAR uni1E99
ENCODING 7833
SWIDTH 654 0
DWIDTH 13 0
BBX 13 19 0 -4
BITMAP
0E00
0A00
0E00
0000
FC78
7830
3820
3C40
1C40
1C80
0E80
0F00
0700
0600
0600
0400
0C00
1800
3800
ENDCHAR
STARTCHAR uni1EA0
ENCODING 7840
SWIDTH 795 0
DWIDTH 16 0
BBX 16 19 0 -4
BITMAP
0180
0180
03C0
03C0
07E0
04E0
04F0
0870
0870
1FF8
1038
201C
201C
601E
F03F
0000
00C0
00C0
00C0
ENDCHAR
STARTCHAR uni1EA1
ENCODING 7841
SWIDTH 556 0
DWIDTH 11 0
BBX 10 15 1 -4
BITMAP
3E00
6300
4380
0380
0380
3F80
F380
E380
E380
E380
7DC0
0000
0C00
0C00
0C00
ENDCHAR
STARTCHAR uni1EA4
ENCODING 7844
SWIDTH 795 0
DWIDTH 16 0
BBX 16 23 0 0
BITMAP
0070
00C0
0180
0000
01C0
0360
0630
0000
0180
0180
03C0
03C0
07E0
04E0
04F0
0870
0870
1FF8
1038
201C
201C
601E
F03F
ENDCHAR
STARTCHAR uni1EA5
ENCODING 7845
SWIDTH 556 0
DWIDTH 11 0
BBX 10 19 1 0
BITMAP
0700
0C00
1800
0000
1C00
3600
6300
0000
3E00
6300
4380
0380
0380
3F80
F380
E380
E380
E380
7DC0
ENDCHAR
STARTCHAR uni1EA6
ENCODING 7846
SWIDTH 795 0
DWIDTH 16 0
BBX 16 23 0 0
BITMAP
0700
0180
00C0
0000
01C0
0360
0630
0000
0180
0180
03C0
03C0
07E0
04E0
04F0
0870
0870
1FF8
1038
201C
201C
601E
F03F
ENDCHAR
STARTCHAR uni1EA7
ENCODING 7847
SWIDTH 556 0
DWIDTH 11 0
BBX 10 19 1 0
BITMAP
7000
1800
0C00
0000
1C00
3600
6300
0000
3E00
6300
4380
0380
0380
3F80
F380
E380
E380
E380
7DC0
ENDCHAR
STARTCHAR uni1EAA
ENCODING 7850
SWIDTH 795 0
DWIDTH 16 0
BBX 16 23 0 0
BITMAP
0390
07F0
04E0
0000
01C0
0360
0630
0000
0180
0180
03C0
03C0
07E0
04E0
04F0
0870
0870
1FF8
1038
201C
201C
601E
F03F
ENDCHAR
STARTCHAR uni1EAB
ENCODING 7851
SWIDTH 556 0
DWIDTH 11 0
BBX 10 19 1 0
BITMAP
3900
7F00
4E00
0000
1C00
3600
6300
0000
3E00
6300
4380
0380
0380
3F80
F380
E380
E380
E380
7DC0
ENDCHAR
STARTCHAR uni1EAC
ENCODING 7852
SWIDTH 795 0
DWIDTH 16 0
BBX 16 23 0 -4
BITMAP
01C0
0360
0630
0000
0180
0180
03C0
03C0
07E0
04E0
04F0
0870
0870
1FF8
1038
201C
201C
601E
F03F
0000
00C0
00C0
00C0
ENDCHAR
STARTCHAR uni1EAD
ENCODING 7853
SWIDTH 556 0
DWIDTH 11 0
BBX 10 19 1 -4
BITMAP
0E00
1B00
3180
0000
3E00
6300
4380
0380
0380
3F80
F380
E380
E380
E380
7DC0
0000
0C00
0C00
0C00
ENDCHAR
STARTCHAR uni1EAE
ENCODING 7854
SWIDTH 795 0
DWIDTH 16 0
BBX 16 23 0 0
BITMAP
0070
00C0
0180
0000
0410
03E0
01C0
0000
0180
0180
03C0
03C0
07E0
04E0
04F0
0870
0870
1FF8
1038
201C
201C
601E
F03F
ENDCHAR
STARTCHAR uni1EAF
ENCODING 7855
SWIDTH 556 0
DWIDTH 11 0
BBX 10 19 1 0
BITMAP
0700
0C00
1800
0000
4100
3E00
1C00
0000
3E00
6300
4380
0380
0380
3F80
F380
E380
E380
E380
7DC0
ENDCHAR
STARTCHAR uni1EB0
ENCODING 7856
SWIDTH 795 0
DWIDTH 16 0
BBX 16 23 0 0
BITMAP
0700
0180
00C0
0000
0410
03E0
01C0
0000
0180
0180
03C0
03C0
07E0
04E0
04F0
0870
0870
1FF8
1038
201C
201C
601E
F03F
ENDCHAR
STARTCHAR uni1EB1
ENCODING 7857
SWIDTH 556 0
DWIDTH 11 0
BBX 10 19 1 0
BITMAP
7000
1800
0C00
0000
4100
3E00
1C00
0000
3E00
6300
4380
0380
0380
3F80
F380
E380
E380
E380
7DC0
ENDCHAR
STARTCHAR uni1EB4
ENCODING 7860
SWIDTH 795 0
DWIDTH 16 0
BBX 16 23 0 0
BITMAP
0390
07F0
04E0
0000
0410
03E0
01C0
0000
0180
0180
03C0
03C0
07E0
04E0
04F0
0870
0870
1FF8
1038
201C
201C
601E
F03F
ENDCHAR
STARTCHAR uni1EB5
ENCODING 7861
SWIDTH 556 0
DWIDTH 11 0
BBX 10 19 1 0
BITMAP
3900
7F00
4E00
0000
4100
3E00
1C00
0000
3E00
6300
4380
0380
0380
3F80
F380
E380
E380
E380
7DC0
ENDCHAR
STARTCHAR uni1EB6
ENCODING 7862
SWIDTH 795 0
DWIDTH 16 0
BBX 16 23 0 -4
BITMAP
0410
03E0
01C0
0000
0180
0180
03C0
03C0
07E0
04E0
04F0
0870
0870
1FF8
1038
201C
201C
601E
F03F
0000
00C0
00C0
00C0
ENDCHAR
STARTCHAR uni1EB7
ENCODING 7863
SWIDTH 556 0
DWIDTH 11 0
BBX 10 19 1 -4
BITMAP
2080
1F00
0E00
0000
3E00
6300
4380
0380
0380
3F80
F380
E380
E380
E380
7DC0
0000
0C00
0C00
0C00
ENDCHAR
STARTCHAR uni1EB8
ENCODING 7864
SWIDTH 601 0
DWIDTH 12 0
BBX 12 19 0 -4
BITMAP
FFE0
3820
3820
3800
3800
3800
3840
3FC0
3840
3800
3800
3800
3810
3830
FFF0
0000
0600
0600
0600
ENDCHAR
STARTCHAR uni1EB9
ENCODING 7865
SWIDTH 568 0
DWIDTH 11 0
BBX 10 15 0 -4
BITMAP
1F00
7380
6180
E1C0
E1C0
FFC0
E000
E000
7000
3840
1FC0
0000
0C00
0C00
0C00
ENDCHAR
STARTCHAR uni1EBC
ENCODING 7868
SWIDTH 601 0
DWIDTH 12 0
BBX 12 19 0 0
BITMAP
1C80
3F80
2700
0000
FFE0
3820
3820
3800
3800
3800
3840
3FC0
3840
3800
3800
3800
3810
3830
FFF0
ENDCHAR
STARTCHAR uni1EBD
ENCODING 7869
SWIDTH 568 0
DWIDTH 11 0
BBX 10 15 0 0
BITMAP
1C80
3F80
2700
0000
1F00
7380
6180
E1C0
E1C0
FFC0
E000
E000
7000
3840
1FC0
ENDCHAR
STARTCHAR uni1EBE
ENCODING 7870
SWIDTH 601 0
DWIDTH 12 0
BBX 12 23 0 0
BITMAP
01C0
0300
0600
0000
0700
0D80
18C0
0000
FFE0
3820
3820
3800
3800
3800
3840
3FC0
3840
3800
3800
3800
3810
3830
FFF0
ENDCHAR
STARTCHAR uni1EBF
ENCODING 7871
SWIDTH 568 0
DWIDTH 11 0
BBX 10 19 0 0
BITMAP
0380
0600
0C00
0000
0E00
1B00
3180
0000
1F00
7380
6180
E1C0
E1C0
FFC0
E000
E000
7000
3840
1FC0
ENDCHAR
STARTCHAR uni1EC0
ENCODING 7872
SWIDTH 601 0
DWIDTH 12 0
BBX 12 23 0 0
BITMAP
1C00
0600
0300
0000
0700
0D80
18C0
0000
FFE0
3820
3820
3800
3800
3800
3840
3FC0
3840
3800
3800
3800
3810
3830
FFF0
ENDCHAR
STARTCHAR uni1EC1
ENCODING 7873
SWIDTH 568 0
DWIDTH 11 0
BBX 10 19 0 0
BITMAP
3800
0C00
0600
0000
0E00
1B00
3180
0000
1F00
7380
6180
E1C0
E1C0
FFC0
E000
E000
7000
3840
1FC0
ENDCHAR
STARTCHAR uni1EC4
ENCODING 7876
SWIDTH 601 0
DWIDTH 12 0
BBX 12 23 0 0
BITMAP
0E40
1FC0
1380
0000
0700
0D80
18C0
0000
FFE0
3820
3820
3800
3800
3800
3840
3FC0
3840
3800
3800
3800
3810
3830
FFF0
ENDCHAR
STARTCHAR uni1EC5
ENCODING 7877
SWIDTH 568 0
DWIDTH 11 0
BBX 10 19 0 0
BITMAP
1C80
3F80
2700
0000
0E00
1B00
3180
0000
1F00
7380
6180
E1C0
E1C0
FFC0
E000
E000
7000
3840
1FC0
ENDCHAR
STARTCHAR uni1EC6
ENCODING 7878
SWIDTH 601 0
DWIDTH 12 0
BBX 12 23 0 -4
BITMAP
0E00
1B00
3180
0000
FFE0
3820
3820
3800
3800
3800
3840
3FC0
3840
3800
3800
3800
3810
3830
FFF0
0000
0600
0600
0600
ENDCHAR
STARTCHAR uni1EC7
ENCODING 7879
SWIDTH 568 0
DWIDTH 11 0
BBX 10 19 0 -4
BITMAP
0E00
1B00
3180
0000
1F00
7380
6180
E1C0
E1C0
FFC0
E000
E000
7000
3840
1FC0
0000
0C00
0C00
0C00
ENDCHAR
STARTCHAR uni1ECA
ENCODING 7882
SWIDTH 349 0
DWIDTH 7 0
BBX 7 19 0 -4
BITMAP
FE
38
38
38
38
38
38
38
38
38
38
38
38
38
FE
00
18
18
18
ENDCHAR
STARTCHAR uni1ECB
ENCODING 7883
SWIDTH 325 0
DWIDTH 7 0
BBX 7 19 0 -4
BITMAP
38
38
38
00
F8
38
38
38
38
38
38
38
38
38
FE
00
18
18
18
ENDCHAR
STARTCHAR uni1ECC
ENCODING 7884
SWIDTH 810 0
DWIDTH 16 0
BBX 15 19 1 -4
BITMAP
0FE0
1C70
3018
701C
E00E
E00E
E00E
E00E
E00E
E00E
E00E
701C
3018
1C70
0FE0
0000
0180
0180
0180
ENDCHAR
STARTCHAR uni1ECD
ENCODING 7885
SWIDTH 617 0
DWIDTH 12 0
BBX 11 15 1 -4
BITMAP
1F00
71C0
71C0
E0E0
E0E0
E0E0
E0E0
E0E0
71C0
31C0
1F00
0000
0600
0600
0600
ENDCHAR
STARTCHAR uni1ED0
ENCODING 7888
SWIDTH 810 0
DWIDTH 16 0
BBX 15 23 1 0
BITMAP
00E0
0180
0300
0000
0380
06C0
0C60
0000
0FE0
1C70
3018
701C
E00E
E00E
E00E
E00E
E00E
E00E
E00E
701C
3018
1C70
0FE0
ENDCHAR
STARTCHAR uni1ED1
ENCODING 7889
SWIDTH 617 0
DWIDTH 12 0
BBX 11 19 1 0
BITMAP
0380
0600
0C00
0000
0E00
1B00
3180
0000
1F00
71C0
71C0
E0E0
E0E0
E0E0
E0E0
E0E0
71C0
31C0
1F00
ENDCHAR
STARTCHAR uni1ED2
ENCODING 7890
SWIDTH 810 0
DWIDTH 16 0
BBX 15 23 1 0
BITMAP
0E00
0300
0180
0000
0380
06C0
0C60
0000
0FE0
1C70
3018
701C
E00E
E00E
E00E
E00E
E00E
E00E
E00E
701C
3018
1C70
0FE0
ENDCHAR
STARTCHAR uni1ED3
ENCODING 7891
SWIDTH 617 0
DWIDTH 12 0
BBX 11 19 1 0
BITMAP
3800
0C00
0600
0000
0E00
1B00
3180
0000
1F00
71C0
71C0
E0E0
E0E0
E0E0
E0E0
E0E0
71C0
31C0
1F00
ENDCHAR
STARTCHAR uni1ED6
ENCODING 7894
SWIDTH 810 0
DWIDTH 16 0
BBX 15 23 1 0
BITMAP
0720
0FE0
09C0
0000
0380
06C0
0C60
0000
0FE0
1C70
3018
701C
E00E
E00E
E00E
E00E
E00E
E00E
E00E
701C
3018
1C70
0FE0
ENDCHAR
STARTCHAR uni1ED7
ENCODING 7895
SWIDTH 617 0
DWIDTH 12 0
BBX 11 19 1 0
BITMAP
1C80
3F80
2700
0000
0E00
1B00
3180
0000
1F00
71C0
71C0
E0E0
E0E0
E0E0
E0E0
E0E0
71C0
31C0
1F00
ENDCHAR
STARTCHAR uni1ED8
ENCODING 7896
SWIDTH 810 0
DWIDTH 16 0
BBX 15 23 1 -4
BITMAP
0380
06C0
0C60
0000
0FE0
1C70
3018
701C
E00E
E00E
E00E
E00E
E00E
E00E
E00E
701C
3018
1C70
0FE0
0000
0180
0180
0180
ENDCHAR
STARTCHAR uni1ED9
ENCODING 7897
SWIDTH 617 0
DWIDTH 12 0
BBX 11 19 1 -4
BITMAP
0E00
1B00
3180
0000
1F00
71C0
71C0
E0E0
E0E0
E0E0
E0E0
E0E0
71C0
31C0
1F00
0000
0600
0600
0600
ENDCHAR
STARTCHAR uni1EDA
ENCODING 7898
SWIDTH 810 0
DWIDTH 16 0
BBX 17 19 1 0
BITMAP
003800
006000
00C000
000000
0FE380
1C7380
301B80
701D80
E00F80
E00F00
E00E00
E00E00
E00E00
E00E00
E00E00
701C00
301800
1C7000
0FE000
ENDCHAR
STARTCHAR uni1EDB
ENCODING 7899
SWIDTH 617 0
DWIDTH 12 0
BBX 13 15 1 0
BITMAP
00E0
0180
0300
0000
1F38
71F8
71F8
E0F8
E0F8
E0F0
E0E0
E0E0
71C0
31C0
1F00
ENDCHAR
STARTCHAR uni1EDC
ENCODING 7900
SWIDTH 810 0
DWIDTH 16 0
BBX 17 19 1 0
BITMAP
038000
00C000
006000
000000
0FE380
1C7380
301B80
701D80
E00F80
E00F00
E00E00
E00E00
E00E00
E00E00
E00E00
701C00
301800
1C7000
0FE000
ENDCHAR
STARTCHAR uni1EDD
ENCODING 7901
SWIDTH 617 0
DWIDTH 12 0
BBX 13 15 1 0
BITMAP
0E00
0300
0180
0000
1F38
71F8
71F8
E0F8
E0F8
E0F0
E0E0
E0E0
71C0
31C0
1F00
ENDCHAR
STARTCHAR uni1EE0
ENCODING 7904
SWIDTH 810 0
DWIDTH 16 0
BBX 17 19 1 0
BITMAP
01C800
03F800
027000
000000
0FE380
1C7380
301B80
701D80
E00F80
E00F00
E00E00
E00E00
E00E00
E00E00
E00E00
701C00
301800
1C7000
0FE000
ENDCHAR
STARTCHAR uni1EE1
ENCODING 7905
SWIDTH 617 0
DWIDTH 12 0
BBX 13 15 1 0
BITMAP
0720
0FE0
09C0
0000
1F38
71F8
71F8
E0F8
E0F8
E0F0
E0E0
E0E0
71C0
31C0
1F00
ENDCHAR
STARTCHAR uni1EE2
ENCODING 7906
SWIDTH 810 0
DWIDTH 16 0
BBX 17 19 1 -4
BITMAP
0FE380
1C7380
301B80
701D80
E00F80
E00F00
E00E00
E00E00
E00E00
E00E00
E00E00
701C00
301800
1C7000
0FE000
000000
018000
018000
018000
ENDCHAR
STARTCHAR uni1EE3
ENCODING 7907
SWIDTH 617 0
DWIDTH 12 0
BBX 13 15 1 -4
BITMAP
1F38
71F8
71F8
E0F8
E0F8
E0F0
E0E0
E0E0
71C0
31C0
1F00
0000
0600
0600
0600
ENDCHAR
STARTCHAR uni1EE4
ENCODING 7908
SWIDTH 747 0
DWIDTH 15 0
BBX 15 19 0 -4
BITMAP
FE3E
3808
3808
3808
3808
3808
3808
3808
3808
3808
3808
3808
1C10
1C10
07E0
0000
0300
0300
0300
ENDCHAR
STARTCHAR uni1EE5
ENCODING 7909
SWIDTH 654 0
DWIDTH 13 0
BBX 14 15 0 -4
BITMAP
F9F0
3870
3870
3870
3870
3870
3870
3870
38F0
3F78
1E7C
0000
0180
0180
0180
ENDCHAR
STARTCHAR uni1EE8
ENCODING 7912
SWIDTH 747 0
DWIDTH 15 0
BBX 17 19 0 0
BITMAP
007000
00C000
018000
000000
FE3F80
380B80
380B80
380980
380980
380B00
380800
380800
380800
380800
380800
380800
1C1000
1C1000
07E000
ENDCHAR
STARTCHAR uni1EE9
ENCODING 7913
SWIDTH 654 0
DWIDTH 13 0
BBX 16 15 0 0
BITMAP
0070
00C0
0180
0000
F9F7
3877
3877
3873
3873
3876
3870
3870
38F0
3F78
1E7C
ENDCHAR
STARTCHAR uni1EEA
ENCODING 7914
SWIDTH 747 0
DWIDTH 15 0
BBX 17 19 0 0
BITMAP
070000
018000
00C000
000000
FE3F80
380B80
380B80
380980
380980
380B00
380800
380800
380800
380800
380800
380800
1C1000
1C1000
07E000
ENDCHAR
STARTCHAR uni1EEB
ENCODING 7915
SWIDTH 654 0
DWIDTH 13 0
BBX 16 15 0 0
BITMAP
0700
0180
00C0
0000
F9F7
3877
3877
3873
3873
3876
3870
3870
38F0
3F78
1E7C
ENDCHAR
STARTCHAR uni1EEE
ENCODING 7918
SWIDTH 747 0
DWIDTH 15 0
BBX 17 19 0 0
BITMAP
039000
07F000
04E000
000000
FE3F80
380B80
380B80
380980
380980
380B00
380800
380800
380800
380800
380800
380800
1C1000
1C1000
07E000
ENDCHAR
STARTCHAR uni1EEF
ENCODING 7919
SWIDTH 654 0
DWIDTH 13 0
BBX 16 15 0 0
BITMAP
0390
07F0
04E0
0000
F9F7
3877
3877
3873
3873
3876
3870
3870
38F0
3F78
1E7C
ENDCHAR
STARTCHAR uni1EF0
ENCODING 7920
SWIDTH 747 0
DWIDTH 15 0
BBX 17 19 0 -4
BITMAP
FE3F80
380B80
380B80
380980
380980
380B00
380800
380800
380800
380800
380800
380800
1C1000
1C1000
07E000
000000
030000
030000
030000
ENDCHAR
STARTCHAR uni1EF1
ENCODING 7921
SWIDTH 654 0
DWIDTH 13 0
BBX 16 15 0 -4
BITMAP
F9F7
3877
3877
3873
3873
3876
3870
3870
38F0
3F78
1E7C
0000
0180
0180
0180
ENDCHAR
STARTCHAR Ygrave
ENCODING 7922
SWIDTH 717 0
DWIDTH 14 0
BBX 15 19 0 0
BITMAP
1C00
0600
0300
0000
FE1E
780C
3C08
1C10
1E30
0F20
0740
07C0
0380
0380
0380
0380
0380
0380
0FE0
ENDCHAR
STARTCHAR ygrave
ENCODING 7923
SWIDTH 654 0
DWIDTH 13 0
BBX 13 19 0 -4
BITMAP
3800
0C00
0600
0000
FC78
7830
3820
3C40
1C40
1C80
0E80
0F00
0700
0600
0600
0400
0C00
1800
3800
ENDCHAR
STARTCHAR uni1EF4
ENCODING 7924
SWIDTH 717 0
DWIDTH 14 0
BBX 15 19 0 -4
BITMAP
FE1E
780C
3C08
1C10
1E30
0F20
0740
07C0
0380
0380
0380
0380
0380
0380
0FE0
0000
0180
0180
0180
ENDCHAR
STARTCHAR uni1EF5
ENCODING 7925
SWIDTH 654 0
DWIDTH 13 0
BBX 13 19 0 -8
BITMAP
FC78
7830
3820
3C40
1C40
1C80
0E80
0F00
0700
0600
0600
0400
0C00
1800
3800
0000
0C00
0C00
0C00
ENDCHAR
STARTCHAR uni1EF8
ENCODING 7928
SWIDTH 717 0
DWIDTH 14 0
BBX 15 19 0 0
BITMAP
0E40
1FC0
1380
0000
FE1E
780C
3C08
1C10
1E30
0F20
0740
07C0
0380
0380
0380
0380
0380
0380
0FE0
ENDCHAR
STARTCHAR uni1EF9
ENCODING 7929
SWIDTH 654 0
DWIDTH 13 0
BBX 13 19 0 -4
BITMAP
1C80
3F80
2700
0000
FC78
7830
3820
3C40
1C40
1C80
0E80
0F00
0700
0600
0600
0400
0C00
1800
3800
ENDCHAR
STARTCHAR uni2000
ENCODING 8192
SWIDTH 500 0
DWIDTH 10 0
BBX 1 1 0 0
BITMAP
00
ENDCHAR
STARTCHAR uni2001
ENCODING 8193
SWIDTH 1000 0
DWIDTH 19 0
BBX 1 1 0 0
BITMAP
00
ENDCHAR
STARTCHAR uni2002
ENCODING 8194
SWIDTH 500 0
DWIDTH 10 0
BBX 1 1 0 0
BITMAP
00
ENDCHAR
STARTCHAR uni2003
ENCODING 8195
SWIDTH 1000 0
DWIDTH 19 0
BBX 1 1 0 0
BITMAP
00
ENDCHAR
STARTCHAR uni2004
ENCODING 8196
SWIDTH 333 0
DWIDTH 6 0
BBX 1 1 0 0
BITMAP
00
ENDCHAR
STARTCHAR uni2005
ENCODING 8197
SWIDTH 250 0
DWIDTH 5 0
BBX 1 1 0 0
BITMAP
00
ENDCHAR
STARTCHAR uni2006
ENCODING 8198
SWIDTH 167 0
DWIDTH 3 0
BBX 1 1 0 0
BITMAP
00
ENDCHAR
STARTCHAR uni2007
ENCODING 8199
SWIDTH 623 0
DWIDTH 12 0
BBX 1 1 0 0
BITMAP
00
ENDCHAR
STARTCHAR uni2008
ENCODING 8200
SWIDTH 265 0
DWIDTH 5 0
BBX 1 1 0 0
BITMAP
00
ENDCHAR
STARTCHAR uni2009
ENCODING 8201
SWIDTH 200 0
DWIDTH 4 0
BBX 1 1 0 0
BITMAP
00
ENDCHAR
STARTCHAR uni200A
ENCODING 8202
SWIDTH 100 0
DWIDTH 2 0
BBX 1 1 0 0
BITMAP
00
ENDCHAR
STARTCHAR uni200B
ENCODING 8203
SWIDTH 0 0
DWIDTH 0 0
BBX 1 1 0 0
BITMAP
00
ENDCHAR
STARTCHAR uni2010
ENCODING 8208
SWIDTH 289 0
DWIDTH 6 0
BBX 5 2 0 6
BITMAP
F8
F8
ENDCHAR
STARTCHAR uni2011
ENCODING 8209
SWIDTH 289 0
DWIDTH 6 0
BBX 5 2 0 6
BITMAP
F8
F8
ENDCHAR
STARTCHAR figuredash
ENCODING 8210
SWIDTH 500 0
DWIDTH 10 0
BBX 9 1 1 7
BITMAP
FF80
ENDCHAR
STARTCHAR endash
ENCODING 8211
SWIDTH 500 0
DWIDTH 10 0
BBX 9 1 1 7
BITMAP
FF80
ENDCHAR
STARTCHAR emdash
ENCODING 8212
SWIDTH 1000 0
DWIDTH 20 0
BBX 18 1 1 6
BITMAP
FFFFC0
ENDCHAR
STARTCHAR afii00208
ENCODING 8213
SWIDTH 1000 0
DWIDTH 20 0
BBX 18 1 1 6
BITMAP
FFFFC0
ENDCHAR
STARTCHAR quoteleft
ENCODING 8216
SWIDTH 265 0
DWIDTH 5 0
BBX 3 6 1 9
BITMAP
60
C0
C0
E0
E0
E0
ENDCHAR
STARTCHAR quoteright
ENCODING 8217
SWIDTH 265 0
DWIDTH 5 0
BBX 3 6 1 9
BITMAP
E0
E0
E0
60
60
C0
ENDCHAR
STARTCHAR quotesinglbase
ENCODING 8218
SWIDTH 265 0
DWIDTH 5 0
BBX 3 7 1 -3
BITMAP
E0
E0
E0
E0
60
60
C0
ENDCHAR
STARTCHAR quotereversed
ENCODING 8219
SWIDTH 265 0
DWIDTH 5 0
BBX 3 6 1 9
BITMAP
E0
E0
E0
C0
C0
60
ENDCHAR
STARTCHAR quotedblleft
ENCODING 8220
SWIDTH 470 0
DWIDTH 9 0
BBX 7 6 1 9
BITMAP
22
44
CC
EE
EE
EE
ENDCHAR
STARTCHAR quotedblright
ENCODING 8221
SWIDTH 470 0
DWIDTH 9 0
BBX 7 6 1 9
BITMAP
EE
EE
EE
66
44
88
ENDCHAR
STARTCHAR quotedblbase
ENCODING 8222
SWIDTH 470 0
DWIDTH 9 0
BBX 7 7 1 -3
BITMAP
EE
EE
EE
66
66
66
CC
ENDCHAR
STARTCHAR uni201F
ENCODING 8223
SWIDTH 470 0
DWIDTH 9 0
BBX 7 6 1 9
BITMAP
EE
EE
EE
CC
44
22
ENDCHAR
STARTCHAR dagger
ENCODING 8224
SWIDTH 623 0
DWIDTH 12 0
BBX 9 18 2 -3
BITMAP
1C00
1C00
1C00
1C00
1C00
1C00
FF80
DD80
1C00
1C00
1C00
1C00
1C00
1C00
1C00
1C00
1C00
1C00
ENDCHAR
STARTCHAR daggerdbl
ENCODING 8225
SWIDTH 623 0
DWIDTH 12 0
BBX 9 18 2 -3
BITMAP
1C00
1C00
1C00
1C00
1C00
1C00
FF80
DD80
1C00
1C00
1C00
1C00
FF80
DD80
1C00
1C00
1C00
1C00
ENDCHAR
STARTCHAR bullet
ENCODING 8226
SWIDTH 623 0
DWIDTH 12 0
BBX 7 7 3 3
BITMAP
38
7C
FE
FE
FE
7C
38
ENDCHAR
STARTCHAR ellipsis
ENCODING 8230
SWIDTH 1000 0
DWIDTH 20 0
BBX 15 2 3 0
BITMAP
C186
C186
ENDCHAR
STARTCHAR perthousand
ENCODING 8240
SWIDTH 1139 0
DWIDTH 23 0
BBX 23 15 0 0
BITMAP
380600
440800
C61000
C63000
C66000
444000
388000
013838
024444
04C6C6
0CC6C6
18C6C6
10C6C6
204444
C03838
ENDCHAR
STARTCHAR guilsinglleft
ENCODING 8249
SWIDTH 337 0
DWIDTH 7 0
BBX 5 9 1 1
BITMAP
08
18
30
60
E0
60
30
18
08
ENDCHAR
STARTCHAR guilsinglright
ENCODING 8250
SWIDTH 337 0
DWIDTH 7 0
BBX 5 9 1 1
BITMAP
80
C0
60
30
38
30
60
C0
80
ENDCHAR
STARTCHAR fraction
ENCODING 8260
SWIDTH 55 0
DWIDTH 1 0
BBX 13 15 -5 0
BITMAP
0038
0030
0060
00E0
01C0
0180
0300
0700
0600
0C00
1C00
3800
3000
6000
E000
ENDCHAR
STARTCHAR oneinferior
ENCODING 8321
SWIDTH 374 0
DWIDTH 7 0
BBX 6 9 -12 -5
BITMAP
F0
30
30
30
30
30
30
30
FC
ENDCHAR
STARTCHAR twoinferior
ENCODING 8322
SWIDTH 374 0
DWIDTH 7 0
BBX 6 9 -11 -5
BITMAP
F8
8C
8C
0C
18
20
40
FC
FC
ENDCHAR
STARTCHAR threeinferior
ENCODING 8323
SWIDTH 374 0
DWIDTH 7 0
BBX 6 9 -12 -5
BITMAP
F8
8C
0C
08
70
1C
0C
8C
F8
ENDCHAR
STARTCHAR uni20A5
ENCODING 8357
SWIDTH 967 0
DWIDTH 19 0
BBX 19 18 0 -3
BITMAP
000600
000400
000800
000800
FBDF00
3FFF80
3CF380
38E380
38E380
38E380
38E380
38E380
39E380
39E380
FFF7E0
020000
040000
0C0000
ENDCHAR
STARTCHAR uni20A6
ENCODING 8358
SWIDTH 788 0
DWIDTH 16 0
BBX 15 15 0 0
BITMAP
F03E
3808
3C08
3C08
3FFC
2F08
2788
2388
23C8
3FFC
20E8
20F8
2078
2038
F818
ENDCHAR
STARTCHAR uni20A9
ENCODING 8361
SWIDTH 955 0
DWIDTH 19 0
BBX 19 15 0 0
BITMAP
FC61E0
7060C0
787080
387080
3FFF80
3CF100
1CB900
1D3900
1D3A00
1FFF00
0E1E00
0E1C00
0E0C00
040C00
040C00
ENDCHAR
STARTCHAR Euro
ENCODING 8364
SWIDTH 711 0
DWIDTH 14 0
BBX 16 15 -2 0
BITMAP
00FE
0383
0701
0E01
FFF0
1C00
1C00
1C00
1C00
FFF0
1C00
0E00
0700
0381
00FE
ENDCHAR
STARTCHAR uni20AD
ENCODING 8365
SWIDTH 747 0
DWIDTH 15 0
BBX 15 15 0 0
BITMAP
FC3C
3830
3820
3840
3880
3900
3B00
FFFE
3F80
3BC0
39E0
38F0
3878
387C
FCFE
ENDCHAR
STARTCHAR uni2103
ENCODING 8451
SWIDTH 957 0
DWIDTH 19 0
BBX 18 15 1 0
BITMAP
403F80
A0E0C0
A1C040
438040
070000
070000
070000
070000
070000
070000
070000
038000
01C000
00E040
003F80
ENDCHAR
STARTCHAR uni2109
ENCODING 8457
SWIDTH 830 0
DWIDTH 17 0
BBX 15 15 1 0
BITMAP
4FFE
A382
A382
4380
0380
0380
0384
03FC
0384
0380
0380
0380
0380
0380
0FE0
ENDCHAR
STARTCHAR trademark
ENCODING 8482
SWIDTH 1044 0
DWIDTH 21 0
BBX 20 8 0 7
BITMAP
FF3CF0
991CE0
991EE0
181FE0
181760
181760
181660
3C3070
ENDCHAR
STARTCHAR uni212A
ENCODING 8490
SWIDTH 747 0
DWIDTH 15 0
BBX 15 15 0 0
BITMAP
FC3C
3830
3820
3840
3880
3900
3B00
3F00
3F80
3BC0
39E0
38F0
3878
387C
FCFE
ENDCHAR
STARTCHAR uni212B
ENCODING 8491
SWIDTH 795 0
DWIDTH 16 0
BBX 16 19 0 0
BITMAP
0380
0280
0380
0000
0180
0180
03C0
03C0
07E0
04E0
04F0
0870
0870
1FF8
1038
201C
201C
601E
F03F
ENDCHAR
STARTCHAR uni2132
ENCODING 8498
SWIDTH 584 0
DWIDTH 12 0
BBX 11 15 0 0
BITMAP
0FE0
0380
0380
0380
0380
0380
4380
7F80
4380
0380
0380
0380
8380
8380
FFE0
ENDCHAR
STARTCHAR universal
ENCODING 8704
SWIDTH 795 0
DWIDTH 16 0
BBX 16 15 0 0
BITMAP
F03F
601E
201C
201C
1038
1FF8
0870
0870
04F0
04E0
07E0
03C0
03C0
0180
0180
ENDCHAR
STARTCHAR existential
ENCODING 8707
SWIDTH 601 0
DWIDTH 12 0
BBX 12 15 0 0
BITMAP
7FF0
41C0
41C0
01C0
01C0
01C0
21C0
3FC0
21C0
01C0
01C0
01C0
81C0
C1C0
FFF0
ENDCHAR
STARTCHAR uni2204
ENCODING 8708
SWIDTH 601 0
DWIDTH 12 0
BBX 12 18 0 -1
BITMAP
0030
0020
7FF0
41C0
41C0
01C0
01C0
01C0
23C0
3FC0
25C0
05C0
09C0
09C0
91C0
D1C0
FFF0
6000
ENDCHAR
STARTCHAR minus
ENCODING 8722
SWIDTH 623 0
DWIDTH 12 0
BBX 12 1 0 6
BITMAP
FFF0
ENDCHAR
STARTCHAR fraction
ENCODING 8725
SWIDTH 55 0
DWIDTH 1 0
BBX 13 15 -5 0
BITMAP
0038
0030
0060
00E0
01C0
0180
0300
0700
0600
0C00
1C00
3800
3000
6000
E000
ENDCHAR
STARTCHAR periodcentered
ENCODING 8729
SWIDTH 623 0
DWIDTH 12 0
BBX 2 3 5 5
BITMAP
C0
C0
C0
ENDCHAR
STARTCHAR uni2236
ENCODING 8758
SWIDTH 265 0
DWIDTH 5 0
BBX 3 11 1 0
BITMAP
E0
E0
E0
00
00
00
00
00
E0
E0
E0
ENDCHAR
STARTCHAR uni2259
ENCODING 8793
SWIDTH 623 0
DWIDTH 12 0
BBX 12 10 0 3
BITMAP
0700
0D80
18C0
0000
FFF0
0000
0000
0000
0000
FFF0
ENDCHAR
STARTCHAR uni225A
ENCODING 8794
SWIDTH 623 0
DWIDTH 12 0
BBX 12 10 0 3
BITMAP
18C0
0D80
0700
0000
FFF0
0000
0000
0000
0000
FFF0
ENDCHAR
STARTCHAR notequal
ENCODING 8800
SWIDTH 623 0
DWIDTH 12 0
BBX 12 18 0 -3
BITMAP
0030
0020
0040
0040
0080
0080
FFF0
0100
0200
0200
0400
FFF0
0800
0800
1000
1000
2000
6000
ENDCHAR
STARTCHAR equivalence
ENCODING 8801
SWIDTH 623 0
DWIDTH 12 0
BBX 12 5 0 4
BITMAP
FFF0
0000
FFF0
0000
FFF0
ENDCHAR
STARTCHAR uni2262
ENCODING 8802
SWIDTH 623 0
DWIDTH 12 0
BBX 12 18 0 -2
BITMAP
0030
0020
0040
0040
0080
0080
0100
FFF0
0200
FFF0
0400
FFF0
0800
0800
1000
1000
2000
6000
ENDCHAR
STARTCHAR lessequal
ENCODING 8804
SWIDTH 623 0
DWIDTH 12 0
BBX 11 15 -1 -2
BITMAP
0020
0060
0180
0600
1800
3000
C000
3000
1800
0600
0180
0060
0020
0000
FFE0
ENDCHAR
STARTCHAR greaterequal
ENCODING 8805
SWIDTH 623 0
DWIDTH 12 0
BBX 11 15 0 -2
BITMAP
8000
C000
3000
0C00
0300
0180
0060
0180
0300
0C00
3000
C000
8000
0000
FFE0
ENDCHAR
STARTCHAR uni226E
ENCODING 8814
SWIDTH 623 0
DWIDTH 12 0
BBX 11 18 -1 -2
BITMAP
0060
0040
0080
00A0
0160
0180
0600
1A00
3400
C400
3800
1800
1600
1180
2060
2020
4000
C000
ENDCHAR
STARTCHAR uni226F
ENCODING 8815
SWIDTH 623 0
DWIDTH 12 0
BBX 11 18 0 -2
BITMAP
0060
0040
0080
8080
C100
3100
0E00
0300
0580
0460
0980
0B00
1C00
3000
E000
A000
4000
C000
ENDCHAR
STARTCHAR uni2270
ENCODING 8816
SWIDTH 623 0
DWIDTH 12 0
BBX 11 18 -1 -3
BITMAP
0060
0040
00A0
00E0
0180
0700
1A00
3200
C400
3400
1800
0E00
1180
1060
2020
2000
FFE0
C000
ENDCHAR
STARTCHAR uni2271
ENCODING 8817
SWIDTH 623 0
DWIDTH 12 0
BBX 11 18 0 -3
BITMAP
0060
0040
8080
C080
3100
0D00
0300
0380
0460
0580
0B00
0C00
3000
D000
A000
2000
FFE0
C000
ENDCHAR
STARTCHAR fi
ENCODING -1
SWIDTH 672 0
DWIDTH 13 0
BBX 14 15 0 0
BITMAP
1F70
3970
3970
3800
FFF0
3870
3870
3870
3870
3870
3870
3870
3870
3870
FDFC
ENDCHAR
STARTCHAR fl
ENCODING -1
SWIDTH 672 0
DWIDTH 13 0
BBX 14 15 0 0
BITMAP
0FF0
18F0
3870
3870
FE70
3870
3870
3870
3870
3870
3870
3870
3870
3870
FCFC
ENDCHAR
ENDFONT
